pt-serif_bold.sfdir

StartChar: exclam
Encoding: 33 33 4
Width: 344
Flags: W
LayerCount: 2
Fore
SplineSet
172 218 m 1,0,-1
 122 412 l 1,1,-1
 122 690 l 1,2,3
 132 696 132 696 152 698.5 c 128,-1,4
 172 701 172 701 194 701 c 128,-1,5
 216 701 216 701 235.5 698.5 c 128,-1,6
 255 696 255 696 266 690 c 1,7,-1
 266 412 l 1,8,-1
 216 218 l 1,9,-1
 172 218 l 1,0,-1
110 71 m 256,10,11
 110 107 110 107 133.5 129 c 128,-1,12
 157 151 157 151 195 151 c 256,13,14
 233 151 233 151 257 129 c 128,-1,15
 281 107 281 107 281 71 c 256,16,17
 281 35 281 35 257 13.5 c 128,-1,18
 233 -8 233 -8 195 -8 c 256,19,20
 157 -8 157 -8 133.5 13.5 c 128,-1,21
 110 35 110 35 110 71 c 256,10,11
EndSplineSet
EndChar

StartChar: dollar
Encoding: 36 36 7
Width: 565
Flags: W
LayerCount: 2
Fore
SplineSet
246 -12 m 1,0,1
 216 -12 216 -12 186 -7.5 c 128,-1,2
 156 -3 156 -3 130 4 c 128,-1,3
 104 11 104 11 84 19.5 c 128,-1,4
 64 28 64 28 54 37 c 1,5,6
 56 76 56 76 64.5 114.5 c 128,-1,7
 73 153 73 153 81 175 c 1,8,-1
 123 175 l 1,9,-1
 174 78 l 1,10,11
 184 70 184 70 200.5 62.5 c 128,-1,12
 217 55 217 55 246 53 c 1,13,-1
 246 306 l 1,14,15
 244 307 244 307 241.5 307.5 c 128,-1,16
 239 308 239 308 237 310 c 1,17,-1
 214 320 l 2,18,19
 183 333 183 333 154 351.5 c 128,-1,20
 125 370 125 370 102 394.5 c 128,-1,21
 79 419 79 419 65 452 c 128,-1,22
 51 485 51 485 51 527 c 0,23,24
 51 568 51 568 65.5 600.5 c 128,-1,25
 80 633 80 633 106 656 c 128,-1,26
 132 679 132 679 168 693 c 128,-1,27
 204 707 204 707 246 710 c 1,28,-1
 246 760 l 1,29,-1
 316 760 l 1,30,-1
 316 711 l 1,31,32
 364 709 364 709 402.5 700 c 128,-1,33
 441 691 441 691 476 676 c 1,34,35
 476 661 476 661 473.5 644.5 c 128,-1,36
 471 628 471 628 467 612.5 c 128,-1,37
 463 597 463 597 458 584 c 128,-1,38
 453 571 453 571 449 564 c 1,39,-1
 408 564 l 1,40,-1
 357 641 l 1,41,42
 349 643 349 643 339.5 644.5 c 128,-1,43
 330 646 330 646 316 646 c 1,44,-1
 316 406 l 1,45,-1
 354 390 l 1,46,47
 384 376 384 376 414 358.5 c 128,-1,48
 444 341 444 341 467.5 317 c 128,-1,49
 491 293 491 293 505.5 261 c 128,-1,50
 520 229 520 229 520 185 c 0,51,52
 520 106 520 106 468 55 c 128,-1,53
 416 4 416 4 316 -9 c 1,54,-1
 316 -70 l 1,55,-1
 246 -70 l 1,56,-1
 246 -12 l 1,0,1
390 166 m 256,57,58
 390 209 390 209 366 234.5 c 128,-1,59
 342 260 342 260 306 279 c 1,60,-1
 306 58 l 1,61,62
 346 69 346 69 368 96 c 128,-1,63
 390 123 390 123 390 166 c 256,57,58
175 546 m 256,64,65
 175 504 175 504 198 478.5 c 128,-1,66
 221 453 221 453 256 434 c 1,67,-1
 256 644 l 1,68,69
 218 639 218 639 196.5 613.5 c 128,-1,70
 175 588 175 588 175 546 c 256,64,65
EndSplineSet
EndChar

StartChar: ampersand
Encoding: 38 38 9
Width: 896
Flags: W
LayerCount: 2
Fore
SplineSet
529 116 m 1,0,1
 497 143 497 143 464 178 c 128,-1,2
 431 213 431 213 401.5 249 c 128,-1,3
 372 285 372 285 348 319 c 128,-1,4
 324 353 324 353 310 377 c 1,5,6
 281 341 281 341 268 308.5 c 128,-1,7
 255 276 255 276 255 232 c 0,8,9
 255 195 255 195 267 164 c 128,-1,10
 279 133 279 133 300.5 110.5 c 128,-1,11
 322 88 322 88 351 75.5 c 128,-1,12
 380 63 380 63 414 63 c 0,13,14
 444 63 444 63 475.5 75.5 c 128,-1,15
 507 88 507 88 529 116 c 1,0,1
324 582 m 0,16,17
 324 567 324 567 330 549 c 128,-1,18
 336 531 336 531 345.5 513 c 128,-1,19
 355 495 355 495 366.5 478 c 128,-1,20
 378 461 378 461 389 448 c 1,21,22
 423 474 423 474 439 511 c 128,-1,23
 455 548 455 548 453 590 c 0,24,25
 451 618 451 618 435.5 637.5 c 128,-1,26
 420 657 420 657 388 657 c 0,27,28
 355 657 355 657 339.5 634 c 128,-1,29
 324 611 324 611 324 582 c 0,16,17
676 0 m 1,30,31
 656 12 656 12 629 28.5 c 128,-1,32
 602 45 602 45 576 71 c 1,33,34
 545 39 545 39 489 13.5 c 128,-1,35
 433 -12 433 -12 361 -12 c 0,36,37
 294 -12 294 -12 245.5 6.5 c 128,-1,38
 197 25 197 25 166 54.5 c 128,-1,39
 135 84 135 84 120 121 c 128,-1,40
 105 158 105 158 105 196 c 0,41,42
 105 242 105 242 122.5 280.5 c 128,-1,43
 140 319 140 319 165 349 c 128,-1,44
 190 379 190 379 218.5 400.5 c 128,-1,45
 247 422 247 422 268 434 c 1,46,47
 243 461 243 461 225 499 c 128,-1,48
 207 537 207 537 207 574 c 0,49,50
 207 599 207 599 217.5 624 c 128,-1,51
 228 649 228 649 249.5 668.5 c 128,-1,52
 271 688 271 688 302.5 700 c 128,-1,53
 334 712 334 712 376 712 c 0,54,55
 448 712 448 712 493 680 c 128,-1,56
 538 648 538 648 538 588 c 0,57,58
 538 559 538 559 528 533 c 128,-1,59
 518 507 518 507 501.5 484 c 128,-1,60
 485 461 485 461 463.5 440.5 c 128,-1,61
 442 420 442 420 418 403 c 1,62,63
 487 308 487 308 607 201 c 1,64,65
 615 212 615 212 625 238 c 128,-1,66
 635 264 635 264 642 297 c 128,-1,67
 649 330 649 330 651 367 c 128,-1,68
 653 404 653 404 645 437 c 1,69,70
 629 440 629 440 617 446 c 128,-1,71
 605 452 605 452 592 461 c 1,72,-1
 592 500 l 1,73,-1
 820 500 l 1,74,-1
 820 461 l 1,75,76
 793 444 793 444 754 437 c 1,77,78
 749 394 749 394 739 352 c 128,-1,79
 729 310 729 310 715.5 273 c 128,-1,80
 702 236 702 236 687 207 c 128,-1,81
 672 178 672 178 657 162 c 1,82,83
 692 131 692 131 728 107 c 128,-1,84
 764 83 764 83 799 63 c 1,85,-1
 850 39 l 1,86,-1
 850 0 l 1,87,-1
 676 0 l 1,30,31
EndSplineSet
EndChar

StartChar: quotesingle
Encoding: 39 39 10
Width: 288
Flags: W
LayerCount: 2
Fore
SplineSet
59 713 m 1,0,1
 66 730 66 730 90 741 c 128,-1,2
 114 752 114 752 144 752 c 0,3,4
 172 752 172 752 197.5 742 c 128,-1,5
 223 732 223 732 229 713 c 1,6,-1
 169 472 l 1,7,-1
 119 472 l 1,8,-1
 59 713 l 1,0,1
EndSplineSet
Substitution2: "'c2sc' Capitals to Small Capitals lookup 12 subtable" uniF634
Substitution2: "'aalt' Access All Alternates lookup 0 subtable" uniF634
EndChar

StartChar: parenleft
Encoding: 40 40 11
Width: 375
Flags: W
LayerCount: 2
Fore
SplineSet
327 -210 m 1,0,1
 279 -181 279 -181 229.5 -142.5 c 128,-1,2
 180 -104 180 -104 140 -50 c 128,-1,3
 100 4 100 4 75 75.5 c 128,-1,4
 50 147 50 147 50 243 c 0,5,6
 50 330 50 330 73.5 399.5 c 128,-1,7
 97 469 97 469 136 524.5 c 128,-1,8
 175 580 175 580 225.5 623.5 c 128,-1,9
 276 667 276 667 330 702 c 1,10,-1
 360 671 l 1,11,12
 320 628 320 628 288.5 584.5 c 128,-1,13
 257 541 257 541 235 490 c 128,-1,14
 213 439 213 439 201.5 379 c 128,-1,15
 190 319 190 319 190 243 c 0,16,17
 190 170 190 170 202.5 109 c 128,-1,18
 215 48 215 48 237.5 -3.5 c 128,-1,19
 260 -55 260 -55 291.5 -98 c 128,-1,20
 323 -141 323 -141 360 -177 c 1,21,-1
 327 -210 l 1,0,1
EndSplineSet
Position2: "'case' Case-Sensitive Forms lookup 1 per glyph data 3" dx=0 dy=100 dh=0 dv=0
EndChar

StartChar: parenright
Encoding: 41 41 12
Width: 375
Flags: W
LayerCount: 2
Fore
SplineSet
15 -177 m 1,0,1
 52 -141 52 -141 83 -96.5 c 128,-1,2
 114 -52 114 -52 136.5 1.5 c 128,-1,3
 159 55 159 55 171.5 117.5 c 128,-1,4
 184 180 184 180 184 253 c 0,5,6
 184 329 184 329 172.5 388.5 c 128,-1,7
 161 448 161 448 139.5 497 c 128,-1,8
 118 546 118 546 86.5 588 c 128,-1,9
 55 630 55 630 15 671 c 1,10,-1
 45 702 l 1,11,12
 102 669 102 669 152.5 626 c 128,-1,13
 203 583 203 583 241.5 528 c 128,-1,14
 280 473 280 473 302.5 405 c 128,-1,15
 325 337 325 337 325 253 c 0,16,17
 325 168 325 168 304.5 97.5 c 128,-1,18
 284 27 284 27 247.5 -30 c 128,-1,19
 211 -87 211 -87 160 -131.5 c 128,-1,20
 109 -176 109 -176 48 -210 c 1,21,-1
 15 -177 l 1,0,1
EndSplineSet
Position2: "'case' Case-Sensitive Forms lookup 1 per glyph data 3" dx=0 dy=100 dh=0 dv=0
EndChar

StartChar: asterisk
Encoding: 42 42 13
Width: 463
Flags: W
LayerCount: 2
Fore
SplineSet
58 597 m 1,0,1
 52 605 52 605 55.5 621.5 c 128,-1,2
 59 638 59 638 68 654.5 c 128,-1,3
 77 671 77 671 90 683.5 c 128,-1,4
 103 696 103 696 115 697 c 1,5,-1
 206 591 l 1,6,7
 206 576 206 576 193 569 c 1,8,-1
 58 597 l 1,0,1
118 429 m 1,9,10
 107 429 107 429 94.5 441.5 c 128,-1,11
 82 454 82 454 72 470.5 c 128,-1,12
 62 487 62 487 57 504 c 128,-1,13
 52 521 52 521 57 530 c 1,14,-1
 192 556 l 1,15,16
 206 548 206 548 206 535 c 1,17,-1
 118 429 l 1,9,10
291 395 m 1,18,19
 287 387 287 387 270.5 382.5 c 128,-1,20
 254 378 254 378 235 377.5 c 128,-1,21
 216 377 216 377 199 381 c 128,-1,22
 182 385 182 385 177 393 c 1,23,-1
 220 524 l 1,24,25
 234 532 234 532 247 524 c 1,26,-1
 291 395 l 1,18,19
405 530 m 1,27,28
 411 519 411 519 407.5 502 c 128,-1,29
 404 485 404 485 395.5 469 c 128,-1,30
 387 453 387 453 374.5 441.5 c 128,-1,31
 362 430 362 430 350 430 c 1,32,-1
 262 533 l 1,33,34
 262 546 262 546 274 554 c 1,35,-1
 405 530 l 1,27,28
352 696 m 1,36,37
 364 697 364 697 375.5 686.5 c 128,-1,38
 387 676 387 676 395 660.5 c 128,-1,39
 403 645 403 645 406.5 627.5 c 128,-1,40
 410 610 410 610 407 598 c 1,41,-1
 273 568 l 1,42,43
 261 577 261 577 261 590 c 1,44,-1
 352 696 l 1,36,37
177 731 m 1,45,46
 181 740 181 740 197 745 c 128,-1,47
 213 750 213 750 232 750 c 128,-1,48
 251 750 251 750 267.5 745.5 c 128,-1,49
 284 741 284 741 289 731 c 1,50,-1
 246 600 l 1,51,52
 233 592 233 592 220 600 c 1,53,-1
 177 731 l 1,45,46
EndSplineSet
EndChar

StartChar: plus
Encoding: 43 43 14
Width: 565
Flags: W
LayerCount: 2
Fore
SplineSet
57 384 m 1,0,-1
 242 384 l 1,1,-1
 242 580 l 1,2,-1
 322 580 l 1,3,-1
 322 384 l 1,4,-1
 507 384 l 1,5,-1
 507 304 l 1,6,-1
 322 304 l 1,7,-1
 322 102 l 1,8,-1
 242 102 l 1,9,-1
 242 304 l 1,10,-1
 57 304 l 1,11,-1
 57 384 l 1,0,-1
EndSplineSet
EndChar

StartChar: comma
Encoding: 44 44 15
Width: 306
Flags: W
LayerCount: 2
Fore
SplineSet
53 -131 m 1,0,1
 73 -125 73 -125 89 -113 c 128,-1,2
 105 -101 105 -101 116.5 -86 c 128,-1,3
 128 -71 128 -71 134 -54 c 128,-1,4
 140 -37 140 -37 139 -21 c 1,5,6
 125 -3 125 -3 105.5 8 c 128,-1,7
 86 19 86 19 64 26 c 1,8,9
 59 47 59 47 62.5 68 c 128,-1,10
 66 89 66 89 76 107 c 128,-1,11
 86 125 86 125 99.5 137.5 c 128,-1,12
 113 150 113 150 128 153 c 1,13,14
 149 152 149 152 169 143.5 c 128,-1,15
 189 135 189 135 205 119.5 c 128,-1,16
 221 104 221 104 230.5 80 c 128,-1,17
 240 56 240 56 240 24 c 0,18,19
 240 -7 240 -7 227.5 -39 c 128,-1,20
 215 -71 215 -71 193.5 -98.5 c 128,-1,21
 172 -126 172 -126 142 -146.5 c 128,-1,22
 112 -167 112 -167 76 -175 c 1,23,-1
 53 -131 l 1,0,1
EndSplineSet
EndChar

StartChar: hyphen
Encoding: 45 45 16
Width: 414
Flags: W
LayerCount: 2
Fore
SplineSet
66 327 m 1,0,-1
 348 327 l 1,1,-1
 348 237 l 1,2,-1
 66 237 l 1,3,-1
 66 327 l 1,0,-1
EndSplineSet
Position2: "'case' Case-Sensitive Forms lookup 1 per glyph data 2" dx=0 dy=80 dh=0 dv=0
EndChar

StartChar: period
Encoding: 46 46 17
Width: 296
Flags: W
LayerCount: 2
Fore
SplineSet
63 71 m 256,0,1
 63 107 63 107 86 129 c 128,-1,2
 109 151 109 151 147 151 c 256,3,4
 185 151 185 151 209 129 c 128,-1,5
 233 107 233 107 233 71 c 256,6,7
 233 35 233 35 209 13.5 c 128,-1,8
 185 -8 185 -8 147 -8 c 256,9,10
 109 -8 109 -8 86 13.5 c 128,-1,11
 63 35 63 35 63 71 c 256,0,1
EndSplineSet
EndChar

StartChar: slash
Encoding: 47 47 18
Width: 344
Flags: W
LayerCount: 2
Fore
SplineSet
318 716 m 1,0,-1
 378 691 l 1,1,-1
 13 -133 l 1,2,-1
 -46 -107 l 1,3,-1
 318 716 l 1,0,-1
EndSplineSet
EndChar

StartChar: zero
Encoding: 48 48 19
Width: 565
Flags: W
LayerCount: 2
Fore
SplineSet
23 350 m 0,0,1
 23 440 23 440 42.5 507.5 c 128,-1,2
 62 575 62 575 96.5 620.5 c 128,-1,3
 131 666 131 666 178.5 689 c 128,-1,4
 226 712 226 712 282 712 c 0,5,6
 402 712 402 712 472 621.5 c 128,-1,7
 542 531 542 531 542 350 c 0,8,9
 542 260 542 260 522.5 192.5 c 128,-1,10
 503 125 503 125 467.5 79.5 c 128,-1,11
 432 34 432 34 383 11 c 128,-1,12
 334 -12 334 -12 276 -12 c 0,13,14
 215 -12 215 -12 168 12.5 c 128,-1,15
 121 37 121 37 88.5 83.5 c 128,-1,16
 56 130 56 130 39.5 197 c 128,-1,17
 23 264 23 264 23 350 c 0,0,1
173 350 m 0,18,19
 173 278 173 278 177.5 221 c 128,-1,20
 182 164 182 164 194 124.5 c 128,-1,21
 206 85 206 85 225.5 64 c 128,-1,22
 245 43 245 43 275 43 c 0,23,24
 310 43 310 43 332.5 60 c 128,-1,25
 355 77 355 77 368.5 114 c 128,-1,26
 382 151 382 151 387 209 c 128,-1,27
 392 267 392 267 392 350 c 0,28,29
 392 422 392 422 388 479 c 128,-1,30
 384 536 384 536 372.5 575.5 c 128,-1,31
 361 615 361 615 339.5 636 c 128,-1,32
 318 657 318 657 282 657 c 0,33,34
 250 657 250 657 229 640 c 128,-1,35
 208 623 208 623 195.5 586 c 128,-1,36
 183 549 183 549 178 490.5 c 128,-1,37
 173 432 173 432 173 350 c 0,18,19
EndSplineSet
EndChar

StartChar: one
Encoding: 49 49 20
Width: 565
Flags: W
LayerCount: 2
Fore
SplineSet
466 0 m 1,0,-1
 120 0 l 1,1,-1
 120 43 l 1,2,3
 145 54 145 54 170.5 62.5 c 128,-1,4
 196 71 196 71 222 77 c 1,5,-1
 222 536 l 1,6,-1
 226 595 l 1,7,8
 198 586 198 586 168 583 c 128,-1,9
 138 580 138 580 106 581 c 1,10,-1
 101 618 l 1,11,12
 154 632 154 632 216.5 656 c 128,-1,13
 279 680 279 680 332 712 c 1,14,-1
 366 712 l 1,15,-1
 366 77 l 1,16,17
 391 71 391 71 416 62.5 c 128,-1,18
 441 54 441 54 466 43 c 1,19,-1
 466 0 l 1,0,-1
EndSplineSet
Substitution2: "'sups' Superscript lookup 13 subtable" onesuperior
Substitution2: "'sinf' Scientific Inferiors lookup 6 subtable" uni2081
Substitution2: "'subs' Subscript lookup 5 subtable" uni2081
Substitution2: "'numr' Numerators lookup 4 subtable" one.numerator
AlternateSubs2: "'aalt' Access All Alternates lookup 1 subtable" one.numerator uni2081 onesuperior
EndChar

StartChar: two
Encoding: 50 50 21
Width: 565
Flags: W
LayerCount: 2
Fore
SplineSet
141 478 m 1,0,-1
 107 478 l 1,1,2
 101 493 101 493 93.5 513 c 128,-1,3
 86 533 86 533 78 555 c 128,-1,4
 70 577 70 577 63 598.5 c 128,-1,5
 56 620 56 620 52 638 c 1,6,7
 87 668 87 668 141.5 690 c 128,-1,8
 196 712 196 712 274 712 c 0,9,10
 329 712 329 712 369 698 c 128,-1,11
 409 684 409 684 435.5 659 c 128,-1,12
 462 634 462 634 474.5 601 c 128,-1,13
 487 568 487 568 487 530 c 0,14,15
 487 469 487 469 459 414.5 c 128,-1,16
 431 360 431 360 390 312.5 c 128,-1,17
 349 265 349 265 302 224.5 c 128,-1,18
 255 184 255 184 217 151 c 1,19,-1
 165 116 l 1,20,-1
 165 112 l 1,21,-1
 226 118 l 1,22,-1
 398 118 l 1,23,-1
 447 230 l 1,24,-1
 481 230 l 1,25,26
 484 206 484 206 487.5 174 c 128,-1,27
 491 142 491 142 494 109.5 c 128,-1,28
 497 77 497 77 499 47.5 c 128,-1,29
 501 18 501 18 501 0 c 1,30,-1
 43 0 l 1,31,-1
 43 64 l 1,32,33
 69 87 69 87 102 117.5 c 128,-1,34
 135 148 135 148 169 184.5 c 128,-1,35
 203 221 203 221 236 262 c 128,-1,36
 269 303 269 303 295 345.5 c 128,-1,37
 321 388 321 388 336.5 432 c 128,-1,38
 352 476 352 476 352 518 c 0,39,40
 352 573 352 573 322.5 607.5 c 128,-1,41
 293 642 293 642 239 642 c 0,42,43
 222 642 222 642 208.5 640 c 128,-1,44
 195 638 195 638 178 633 c 1,45,-1
 141 478 l 1,0,-1
EndSplineSet
Substitution2: "'sups' Superscript lookup 13 subtable" twosuperior
Substitution2: "'sinf' Scientific Inferiors lookup 6 subtable" uni2082
Substitution2: "'subs' Subscript lookup 5 subtable" uni2082
AlternateSubs2: "'aalt' Access All Alternates lookup 1 subtable" uni2082 twosuperior
EndChar

StartChar: three
Encoding: 51 51 22
Width: 565
Flags: W
LayerCount: 2
Fore
SplineSet
257 53 m 0,0,1
 280 53 280 53 302 63.5 c 128,-1,2
 324 74 324 74 341.5 93 c 128,-1,3
 359 112 359 112 369.5 138 c 128,-1,4
 380 164 380 164 380 194 c 0,5,6
 380 228 380 228 368.5 252.5 c 128,-1,7
 357 277 357 277 338.5 293 c 128,-1,8
 320 309 320 309 296 316.5 c 128,-1,9
 272 324 272 324 248 324 c 2,10,-1
 190 324 l 1,11,-1
 190 364 l 1,12,-1
 340 560 l 1,13,-1
 374 595 l 1,14,-1
 374 599 l 1,15,-1
 320 593 l 1,16,-1
 169 593 l 1,17,-1
 130 491 l 1,18,-1
 96 491 l 1,19,20
 91 512 91 512 85.5 541 c 128,-1,21
 80 570 80 570 75.5 599 c 128,-1,22
 71 628 71 628 68.5 655 c 128,-1,23
 66 682 66 682 66 700 c 1,24,-1
 502 700 l 1,25,-1
 502 651 l 1,26,-1
 329 440 l 1,27,-1
 286 396 l 1,28,-1
 286 394 l 1,29,-1
 320 401 l 1,30,31
 367 399 367 399 404.5 383.5 c 128,-1,32
 442 368 442 368 467.5 341.5 c 128,-1,33
 493 315 493 315 506.5 280 c 128,-1,34
 520 245 520 245 520 203 c 0,35,36
 520 153 520 153 498.5 113 c 128,-1,37
 477 73 477 73 441 45 c 128,-1,38
 405 17 405 17 357 2.5 c 128,-1,39
 309 -12 309 -12 256 -12 c 0,40,41
 226 -12 226 -12 196 -7.5 c 128,-1,42
 166 -3 166 -3 139.5 5 c 128,-1,43
 113 13 113 13 91.5 24 c 128,-1,44
 70 35 70 35 55 48 c 1,45,-1
 92 152 l 1,46,-1
 121 152 l 1,47,48
 127 145 127 145 137.5 133.5 c 128,-1,49
 148 122 148 122 159.5 109 c 128,-1,50
 171 96 171 96 182 83 c 128,-1,51
 193 70 193 70 201 61 c 1,52,53
 211 59 211 59 223.5 56 c 128,-1,54
 236 53 236 53 257 53 c 0,0,1
EndSplineSet
Substitution2: "'sups' Superscript lookup 13 subtable" threesuperior
Substitution2: "'sinf' Scientific Inferiors lookup 6 subtable" uni2083
Substitution2: "'subs' Subscript lookup 5 subtable" uni2083
AlternateSubs2: "'aalt' Access All Alternates lookup 1 subtable" uni2083 threesuperior
EndChar

StartChar: four
Encoding: 52 52 23
Width: 565
Flags: W
LayerCount: 2
Fore
SplineSet
513 0 m 1,0,-1
 204 0 l 1,1,-1
 204 43 l 1,2,3
 253 60 253 60 296 67 c 1,4,-1
 296 180 l 1,5,-1
 0 180 l 1,6,-1
 0 225 l 1,7,-1
 383 712 l 1,8,-1
 437 712 l 1,9,-1
 437 245 l 1,10,-1
 560 245 l 1,11,-1
 560 180 l 1,12,-1
 437 180 l 1,13,-1
 437 67 l 1,14,15
 476 59 476 59 513 43 c 1,16,-1
 513 0 l 1,0,-1
296 458 m 1,17,-1
 306 528 l 1,18,-1
 303 528 l 1,19,-1
 265 458 l 1,20,-1
 120 271 l 1,21,-1
 80 238 l 1,22,-1
 151 245 l 1,23,-1
 296 245 l 1,24,-1
 296 458 l 1,17,-1
EndSplineSet
Substitution2: "'sinf' Scientific Inferiors lookup 6 subtable" uni2084
Substitution2: "'subs' Subscript lookup 5 subtable" uni2084
Substitution2: "'aalt' Access All Alternates lookup 0 subtable" uni2084
EndChar

StartChar: five
Encoding: 53 53 24
Width: 565
Flags: W
LayerCount: 2
Fore
SplineSet
455 755 m 1,0,-1
 489 755 l 1,1,2
 489 740 489 740 488 716 c 128,-1,3
 487 692 487 692 484 667 c 128,-1,4
 481 642 481 642 477 619.5 c 128,-1,5
 473 597 473 597 469 585 c 1,6,-1
 195 585 l 1,7,-1
 177 442 l 1,8,-1
 260 442 l 2,9,10
 314 442 314 442 358 427.5 c 128,-1,11
 402 413 402 413 433 385.5 c 128,-1,12
 464 358 464 358 481 318.5 c 128,-1,13
 498 279 498 279 498 228 c 0,14,15
 498 171 498 171 476.5 126.5 c 128,-1,16
 455 82 455 82 418 51.5 c 128,-1,17
 381 21 381 21 331 4.5 c 128,-1,18
 281 -12 281 -12 223 -12 c 256,19,20
 165 -12 165 -12 117 6.5 c 128,-1,21
 69 25 69 25 40 48 c 1,22,-1
 82 147 l 1,23,-1
 111 147 l 1,24,25
 118 140 118 140 127 129 c 128,-1,26
 136 118 136 118 146 106 c 128,-1,27
 156 94 156 94 165 82 c 128,-1,28
 174 70 174 70 181 61 c 1,29,30
 191 57 191 57 199.5 55 c 128,-1,31
 208 53 208 53 222 53 c 0,32,33
 252 53 252 53 278 63.5 c 128,-1,34
 304 74 304 74 322.5 93 c 128,-1,35
 341 112 341 112 352 138.5 c 128,-1,36
 363 165 363 165 363 197 c 0,37,38
 363 232 363 232 349.5 258.5 c 128,-1,39
 336 285 336 285 313 302 c 128,-1,40
 290 319 290 319 259 327.5 c 128,-1,41
 228 336 228 336 194 336 c 2,42,-1
 107 335 l 1,43,-1
 147 700 l 1,44,-1
 408 700 l 1,45,-1
 455 755 l 1,0,-1
EndSplineSet
EndChar

StartChar: six
Encoding: 54 54 25
Width: 565
Flags: W
LayerCount: 2
Fore
SplineSet
536 215 m 0,0,1
 536 163 536 163 516.5 121 c 128,-1,2
 497 79 497 79 464 49.5 c 128,-1,3
 431 20 431 20 386.5 4 c 128,-1,4
 342 -12 342 -12 292 -12 c 0,5,6
 230 -12 230 -12 182.5 7.5 c 128,-1,7
 135 27 135 27 103 62 c 128,-1,8
 71 97 71 97 54.5 145 c 128,-1,9
 38 193 38 193 38 250 c 0,10,11
 38 344 38 344 71 422 c 128,-1,12
 104 500 104 500 160 560 c 128,-1,13
 216 620 216 620 290.5 660 c 128,-1,14
 365 700 365 700 449 718 c 1,15,-1
 464 675 l 1,16,17
 410 658 410 658 364 629 c 128,-1,18
 318 600 318 600 282.5 558.5 c 128,-1,19
 247 517 247 517 224.5 464.5 c 128,-1,20
 202 412 202 412 196 349 c 1,21,22
 204 362 204 362 216.5 374.5 c 128,-1,23
 229 387 229 387 247 397.5 c 128,-1,24
 265 408 265 408 288.5 414.5 c 128,-1,25
 312 421 312 421 342 421 c 0,26,27
 383 421 383 421 418.5 408 c 128,-1,28
 454 395 454 395 480 369 c 128,-1,29
 506 343 506 343 521 304.5 c 128,-1,30
 536 266 536 266 536 215 c 0,0,1
386 203 m 0,31,32
 386 351 386 351 287 351 c 0,33,34
 253 351 253 351 229 333.5 c 128,-1,35
 205 316 205 316 194 293 c 1,36,37
 191 279 191 279 189.5 260.5 c 128,-1,38
 188 242 188 242 188 225 c 0,39,40
 188 191 188 191 194 159.5 c 128,-1,41
 200 128 200 128 213 103.5 c 128,-1,42
 226 79 226 79 246.5 64 c 128,-1,43
 267 49 267 49 296 49 c 0,44,45
 321 49 321 49 338 61.5 c 128,-1,46
 355 74 355 74 365.5 95 c 128,-1,47
 376 116 376 116 381 144 c 128,-1,48
 386 172 386 172 386 203 c 0,31,32
EndSplineSet
EndChar

StartChar: seven
Encoding: 55 55 26
Width: 565
Flags: W
LayerCount: 2
Fore
SplineSet
117 481 m 1,0,-1
 83 481 l 1,1,2
 78 502 78 502 73 532.5 c 128,-1,3
 68 563 68 563 63.5 594 c 128,-1,4
 59 625 59 625 56 653.5 c 128,-1,5
 53 682 53 682 53 700 c 1,6,-1
 521 700 l 1,7,-1
 521 653 l 1,8,9
 467 569 467 569 430 495 c 128,-1,10
 393 421 393 421 368 345 c 128,-1,11
 343 269 343 269 326.5 186 c 128,-1,12
 310 103 310 103 298 0 c 1,13,-1
 156 0 l 1,14,15
 192 145 192 145 249 276 c 128,-1,16
 306 407 306 407 384 540 c 1,17,-1
 421 588 l 1,18,-1
 371 583 l 1,19,-1
 156 583 l 1,20,-1
 117 481 l 1,0,-1
EndSplineSet
EndChar

StartChar: eight
Encoding: 56 56 27
Width: 565
Flags: W
LayerCount: 2
Fore
SplineSet
35 157 m 0,0,1
 35 227 35 227 80 274.5 c 128,-1,2
 125 322 125 322 198 345 c 1,3,4
 138 379 138 379 101 425.5 c 128,-1,5
 64 472 64 472 64 533 c 0,6,7
 64 572 64 572 79.5 604.5 c 128,-1,8
 95 637 95 637 124 661 c 128,-1,9
 153 685 153 685 194.5 698.5 c 128,-1,10
 236 712 236 712 288 712 c 0,11,12
 336 712 336 712 375.5 700 c 128,-1,13
 415 688 415 688 443 667 c 128,-1,14
 471 646 471 646 486 616 c 128,-1,15
 501 586 501 586 501 550 c 0,16,17
 501 490 501 490 461 446 c 128,-1,18
 421 402 421 402 360 383 c 1,19,20
 403 360 403 360 434.5 337 c 128,-1,21
 466 314 466 314 487 289 c 128,-1,22
 508 264 508 264 518.5 236 c 128,-1,23
 529 208 529 208 529 175 c 0,24,25
 529 136 529 136 512.5 102 c 128,-1,26
 496 68 496 68 464.5 42.5 c 128,-1,27
 433 17 433 17 386.5 2.5 c 128,-1,28
 340 -12 340 -12 279 -12 c 0,29,30
 223 -12 223 -12 177.5 1 c 128,-1,31
 132 14 132 14 100.5 36.5 c 128,-1,32
 69 59 69 59 52 90 c 128,-1,33
 35 121 35 121 35 157 c 0,0,1
387 146 m 0,34,35
 387 180 387 180 374.5 204 c 128,-1,36
 362 228 362 228 341.5 247.5 c 128,-1,37
 321 267 321 267 293.5 283.5 c 128,-1,38
 266 300 266 300 236 318 c 1,39,40
 201 291 201 291 188 254 c 128,-1,41
 175 217 175 217 175 182 c 0,42,43
 175 158 175 158 181 134 c 128,-1,44
 187 110 187 110 200.5 91.5 c 128,-1,45
 214 73 214 73 235 61 c 128,-1,46
 256 49 256 49 287 49 c 0,47,48
 312 49 312 49 330.5 57 c 128,-1,49
 349 65 349 65 361.5 78.5 c 128,-1,50
 374 92 374 92 380.5 109.5 c 128,-1,51
 387 127 387 127 387 146 c 0,34,35
200 554 m 0,52,53
 200 506 200 506 233.5 469.5 c 128,-1,54
 267 433 267 433 320 406 c 1,55,56
 348 432 348 432 359.5 463.5 c 128,-1,57
 371 495 371 495 371 536 c 0,58,59
 371 594 371 594 347.5 622.5 c 128,-1,60
 324 651 324 651 286 651 c 0,61,62
 241 651 241 651 220.5 623 c 128,-1,63
 200 595 200 595 200 554 c 0,52,53
EndSplineSet
EndChar

StartChar: nine
Encoding: 57 57 28
Width: 565
Flags: W
LayerCount: 2
Fore
SplineSet
38 482 m 256,0,1
 38 533 38 533 56 575 c 128,-1,2
 74 617 74 617 106.5 647.5 c 128,-1,3
 139 678 139 678 184 695 c 128,-1,4
 229 712 229 712 284 712 c 0,5,6
 342 712 342 712 388 692.5 c 128,-1,7
 434 673 434 673 466 638 c 128,-1,8
 498 603 498 603 514.5 552.5 c 128,-1,9
 531 502 531 502 531 441 c 0,10,11
 531 348 531 348 503 269.5 c 128,-1,12
 475 191 475 191 424 131.5 c 128,-1,13
 373 72 373 72 301.5 34.5 c 128,-1,14
 230 -3 230 -3 144 -12 c 1,15,-1
 121 31 l 1,16,17
 236 61 236 61 298 139 c 128,-1,18
 360 217 360 217 376 331 c 1,19,20
 357 306 357 306 326 290 c 128,-1,21
 295 274 295 274 246 274 c 0,22,23
 203 274 203 274 165.5 287 c 128,-1,24
 128 300 128 300 99.5 326.5 c 128,-1,25
 71 353 71 353 54.5 392 c 128,-1,26
 38 431 38 431 38 482 c 256,0,1
188 488 m 0,27,28
 188 459 188 459 194.5 433 c 128,-1,29
 201 407 201 407 214 387 c 128,-1,30
 227 367 227 367 246 355.5 c 128,-1,31
 265 344 265 344 291 344 c 0,32,33
 321 344 321 344 344 355.5 c 128,-1,34
 367 367 367 367 379 387 c 1,35,36
 381 400 381 400 382 419 c 128,-1,37
 383 438 383 438 383 456 c 0,38,39
 383 495 383 495 377.5 530.5 c 128,-1,40
 372 566 372 566 360 592.5 c 128,-1,41
 348 619 348 619 329 635 c 128,-1,42
 310 651 310 651 282 651 c 0,43,44
 232 651 232 651 210 610.5 c 128,-1,45
 188 570 188 570 188 488 c 0,27,28
EndSplineSet
EndChar

StartChar: less
Encoding: 60 60 31
Width: 565
Flags: W
LayerCount: 2
Fore
SplineSet
65 324 m 1,0,-1
 65 355 l 1,1,-1
 450 590 l 1,2,-1
 486 525 l 1,3,-1
 273 397 l 1,4,-1
 191 363 l 1,5,-1
 272 332 l 1,6,-1
 505 195 l 1,7,-1
 449 103 l 1,8,-1
 65 324 l 1,0,-1
EndSplineSet
EndChar

StartChar: equal
Encoding: 61 61 32
Width: 565
Flags: W
LayerCount: 2
Fore
SplineSet
57 469 m 1,0,-1
 507 469 l 1,1,-1
 507 389 l 1,2,-1
 57 389 l 1,3,-1
 57 469 l 1,0,-1
57 299 m 1,4,-1
 507 299 l 1,5,-1
 507 219 l 1,6,-1
 57 219 l 1,7,-1
 57 299 l 1,4,-1
EndSplineSet
EndChar

StartChar: greater
Encoding: 62 62 33
Width: 565
Flags: W
LayerCount: 2
Fore
SplineSet
513 369 m 1,0,-1
 513 338 l 1,1,-1
 128 103 l 1,2,-1
 92 168 l 1,3,-1
 305 296 l 1,4,-1
 387 330 l 1,5,-1
 306 361 l 1,6,-1
 73 497 l 1,7,-1
 129 590 l 1,8,-1
 513 369 l 1,0,-1
EndSplineSet
EndChar

StartChar: question
Encoding: 63 63 34
Width: 486
Flags: W
LayerCount: 2
Fore
SplineSet
135 501 m 1,0,-1
 101 501 l 1,1,2
 95 514 95 514 88 533.5 c 128,-1,3
 81 553 81 553 74.5 574.5 c 128,-1,4
 68 596 68 596 63 618.5 c 128,-1,5
 58 641 58 641 56 661 c 1,6,7
 94 684 94 684 142.5 698 c 128,-1,8
 191 712 191 712 266 712 c 0,9,10
 311 712 311 712 346.5 699.5 c 128,-1,11
 382 687 382 687 407.5 665.5 c 128,-1,12
 433 644 433 644 446.5 614 c 128,-1,13
 460 584 460 584 460 549 c 0,14,15
 460 504 460 504 443 472 c 128,-1,16
 426 440 426 440 401 415.5 c 128,-1,17
 376 391 376 391 346.5 370.5 c 128,-1,18
 317 350 317 350 291.5 326.5 c 128,-1,19
 266 303 266 303 249 274 c 128,-1,20
 232 245 232 245 232 203 c 1,21,-1
 199 203 l 1,22,23
 185 249 185 249 188.5 282.5 c 128,-1,24
 192 316 192 316 205 343 c 128,-1,25
 218 370 218 370 237 392 c 128,-1,26
 256 414 256 414 273.5 437 c 128,-1,27
 291 460 291 460 303.5 486 c 128,-1,28
 316 512 316 512 316 546 c 0,29,30
 316 565 316 565 311.5 583.5 c 128,-1,31
 307 602 307 602 296.5 616 c 128,-1,32
 286 630 286 630 269.5 638.5 c 128,-1,33
 253 647 253 647 229 647 c 0,34,35
 208 647 208 647 192 643 c 128,-1,36
 176 639 176 639 168 633 c 1,37,-1
 135 501 l 1,0,-1
142 71 m 256,38,39
 142 107 142 107 165 129 c 128,-1,40
 188 151 188 151 226 151 c 256,41,42
 264 151 264 151 288 129 c 128,-1,43
 312 107 312 107 312 71 c 256,44,45
 312 35 312 35 288 13.5 c 128,-1,46
 264 -8 264 -8 226 -8 c 256,47,48
 188 -8 188 -8 165 13.5 c 128,-1,49
 142 35 142 35 142 71 c 256,38,39
EndSplineSet
EndChar

StartChar: at
Encoding: 64 64 35
Width: 1064
Flags: W
LayerCount: 2
Fore
SplineSet
647 465 m 1,0,1
 671 476 671 476 704.5 481 c 128,-1,2
 738 486 738 486 772 485 c 1,3,-1
 723 207 l 2,4,5
 711 143 711 143 712.5 111.5 c 128,-1,6
 714 80 714 80 742 80 c 0,7,8
 765 80 765 80 794.5 95 c 128,-1,9
 824 110 824 110 850 140.5 c 128,-1,10
 876 171 876 171 894 217.5 c 128,-1,11
 912 264 912 264 912 326 c 0,12,13
 912 402 912 402 884.5 462 c 128,-1,14
 857 522 857 522 808.5 563 c 128,-1,15
 760 604 760 604 693.5 625.5 c 128,-1,16
 627 647 627 647 550 647 c 0,17,18
 463 647 463 647 390.5 616.5 c 128,-1,19
 318 586 318 586 266 532 c 128,-1,20
 214 478 214 478 185 403.5 c 128,-1,21
 156 329 156 329 156 242 c 0,22,23
 156 153 156 153 185.5 86.5 c 128,-1,24
 215 20 215 20 267 -25 c 128,-1,25
 319 -70 319 -70 390.5 -92.5 c 128,-1,26
 462 -115 462 -115 546 -115 c 0,27,28
 575 -115 575 -115 612 -108 c 128,-1,29
 649 -101 649 -101 679 -87 c 1,30,-1
 695 -144 l 1,31,32
 660 -164 660 -164 618 -172 c 128,-1,33
 576 -180 576 -180 525 -180 c 0,34,35
 436 -180 436 -180 355.5 -154 c 128,-1,36
 275 -128 275 -128 214 -76 c 128,-1,37
 153 -24 153 -24 117 54 c 128,-1,38
 81 132 81 132 81 236 c 0,39,40
 81 345 81 345 118.5 433 c 128,-1,41
 156 521 156 521 220.5 583 c 128,-1,42
 285 645 285 645 371 678.5 c 128,-1,43
 457 712 457 712 555 712 c 0,44,45
 650 712 650 712 729.5 685.5 c 128,-1,46
 809 659 809 659 866 609.5 c 128,-1,47
 923 560 923 560 955 488.5 c 128,-1,48
 987 417 987 417 987 326 c 0,49,50
 987 256 987 256 961.5 198.5 c 128,-1,51
 936 141 936 141 895 99.5 c 128,-1,52
 854 58 854 58 802 35.5 c 128,-1,53
 750 13 750 13 697 13 c 0,54,55
 667 13 667 13 645 20.5 c 128,-1,56
 623 28 623 28 609 46 c 128,-1,57
 595 64 595 64 590.5 93 c 128,-1,58
 586 122 586 122 592 165 c 1,59,-1
 588 165 l 1,60,61
 579 138 579 138 561.5 110.5 c 128,-1,62
 544 83 544 83 521.5 61.5 c 128,-1,63
 499 40 499 40 472 26.5 c 128,-1,64
 445 13 445 13 417 13 c 0,65,66
 349 13 349 13 314.5 57 c 128,-1,67
 280 101 280 101 280 169 c 0,68,69
 280 228 280 228 299.5 286 c 128,-1,70
 319 344 319 344 353.5 389.5 c 128,-1,71
 388 435 388 435 436 463.5 c 128,-1,72
 484 492 484 492 541 492 c 0,73,74
 576 492 576 492 599.5 485.5 c 128,-1,75
 623 479 623 479 647 465 c 1,0,1
627 415 m 1,76,77
 616 423 616 423 604 427 c 128,-1,78
 592 431 592 431 575 431 c 0,79,80
 541 431 541 431 512 405 c 128,-1,81
 483 379 483 379 462 339 c 128,-1,82
 441 299 441 299 429 252.5 c 128,-1,83
 417 206 417 206 417 166 c 0,84,85
 417 132 417 132 429 112.5 c 128,-1,86
 441 93 441 93 470 93 c 0,87,88
 487 93 487 93 504.5 107 c 128,-1,89
 522 121 522 121 538.5 143.5 c 128,-1,90
 555 166 555 166 570.5 194.5 c 128,-1,91
 586 223 586 223 599 251 c 1,92,-1
 627 415 l 1,76,77
EndSplineSet
Position2: "'case' Case-Sensitive Forms lookup 1 per glyph data 0" dx=0 dy=55 dh=0 dv=0
EndChar

StartChar: A
Encoding: 65 65 36
Width: 729
Flags: W
LayerCount: 2
Fore
SplineSet
247 0 m 1,0,-1
 0 0 l 1,1,-1
 0 38 l 1,2,3
 16 48 16 48 34.5 55.5 c 128,-1,4
 53 63 53 63 71 67 c 1,5,-1
 329 712 l 1,6,-1
 403 712 l 1,7,-1
 654 67 l 1,8,9
 674 63 674 63 694 55.5 c 128,-1,10
 714 48 714 48 729 38 c 1,11,-1
 729 0 l 1,12,-1
 416 0 l 1,13,-1
 416 38 l 1,14,15
 435 47 435 47 457 55 c 128,-1,16
 479 63 479 63 499 67 c 1,17,-1
 441 226 l 1,18,-1
 219 226 l 1,19,-1
 160 67 l 1,20,21
 206 61 206 61 247 38 c 1,22,-1
 247 0 l 1,0,-1
243 291 m 1,23,-1
 420 291 l 1,24,-1
 355 482 l 1,25,-1
 336 568 l 1,26,-1
 334 568 l 1,27,-1
 312 480 l 1,28,-1
 243 291 l 1,23,-1
EndSplineSet
Position2: "'cpsp' Capital Spacing lookup 0 subtable" dx=40 dy=0 dh=80 dv=0
EndChar

StartChar: B
Encoding: 66 66 37
Width: 649
Flags: W
LayerCount: 2
Fore
SplineSet
20 0 m 1,0,-1
 20 38 l 1,1,2
 39 49 39 49 60.5 57 c 128,-1,3
 82 65 82 65 102 67 c 1,4,-1
 102 633 l 1,5,6
 82 637 82 637 60 644.5 c 128,-1,7
 38 652 38 652 20 662 c 1,8,-1
 20 700 l 1,9,-1
 181 700 l 2,10,11
 219 700 219 700 253 703 c 128,-1,12
 287 706 287 706 331 706 c 0,13,14
 379 706 379 706 424 699 c 128,-1,15
 469 692 469 692 504 674 c 128,-1,16
 539 656 539 656 560 623.5 c 128,-1,17
 581 591 581 591 581 540 c 0,18,19
 581 508 581 508 569.5 480.5 c 128,-1,20
 558 453 558 453 537.5 432 c 128,-1,21
 517 411 517 411 489.5 397 c 128,-1,22
 462 383 462 383 430 377 c 1,23,-1
 430 373 l 1,24,25
 462 369 462 369 494.5 358 c 128,-1,26
 527 347 527 347 553 326 c 128,-1,27
 579 305 579 305 595.5 273.5 c 128,-1,28
 612 242 612 242 612 199 c 0,29,30
 612 145 612 145 588 106 c 128,-1,31
 564 67 564 67 523.5 42 c 128,-1,32
 483 17 483 17 431 5.5 c 128,-1,33
 379 -6 379 -6 323 -6 c 0,34,35
 302 -6 302 -6 277 -5 c 128,-1,36
 252 -4 252 -4 227 -3 c 128,-1,37
 202 -2 202 -2 178.5 -1 c 128,-1,38
 155 0 155 0 139 0 c 2,39,-1
 20 0 l 1,0,-1
322 59 m 0,40,41
 385 59 385 59 421 96.5 c 128,-1,42
 457 134 457 134 457 196 c 0,43,44
 457 234 457 234 445 258.5 c 128,-1,45
 433 283 433 283 412 297.5 c 128,-1,46
 391 312 391 312 362 317.5 c 128,-1,47
 333 323 333 323 299 323 c 2,48,-1
 246 323 l 1,49,-1
 246 66 l 1,50,51
 260 63 260 63 275.5 61 c 128,-1,52
 291 59 291 59 322 59 c 0,40,41
278 388 m 2,53,54
 295 388 295 388 312 389.5 c 128,-1,55
 329 391 329 391 344 393 c 1,56,57
 383 409 383 409 407 442.5 c 128,-1,58
 431 476 431 476 431 519 c 0,59,60
 431 582 431 582 398 611.5 c 128,-1,61
 365 641 365 641 313 641 c 0,62,63
 291 641 291 641 275 640 c 128,-1,64
 259 639 259 639 246 637 c 1,65,-1
 246 388 l 1,66,-1
 278 388 l 2,53,54
EndSplineSet
Position2: "'cpsp' Capital Spacing lookup 0 subtable" dx=40 dy=0 dh=80 dv=0
EndChar

StartChar: D
Encoding: 68 68 39
Width: 736
Flags: W
LayerCount: 2
Fore
SplineSet
20 0 m 1,0,-1
 20 38 l 1,1,2
 37 48 37 48 58 55.5 c 128,-1,3
 79 63 79 63 102 67 c 1,4,-1
 102 633 l 1,5,6
 79 638 79 638 57.5 645.5 c 128,-1,7
 36 653 36 653 20 662 c 1,8,-1
 20 700 l 1,9,-1
 136 700 l 2,10,11
 153 700 153 700 178 701 c 128,-1,12
 203 702 203 702 230 703.5 c 128,-1,13
 257 705 257 705 282.5 706.5 c 128,-1,14
 308 708 308 708 326 708 c 0,15,16
 413 708 413 708 481.5 685 c 128,-1,17
 550 662 550 662 597.5 618 c 128,-1,18
 645 574 645 574 670.5 509 c 128,-1,19
 696 444 696 444 696 359 c 0,20,21
 696 276 696 276 672 208 c 128,-1,22
 648 140 648 140 600 92 c 128,-1,23
 552 44 552 44 478.5 17.5 c 128,-1,24
 405 -9 405 -9 306 -9 c 0,25,26
 293 -9 293 -9 271 -7.5 c 128,-1,27
 249 -6 249 -6 224 -4.5 c 128,-1,28
 199 -3 199 -3 174 -1.5 c 128,-1,29
 149 0 149 0 130 0 c 2,30,-1
 20 0 l 1,0,-1
313 643 m 0,31,32
 295 643 295 643 277 642 c 128,-1,33
 259 641 259 641 246 639 c 1,34,-1
 246 60 l 1,35,36
 250 59 250 59 260 58.5 c 128,-1,37
 270 58 270 58 280.5 57.5 c 128,-1,38
 291 57 291 57 301 56.5 c 128,-1,39
 311 56 311 56 316 56 c 0,40,41
 374 56 374 56 414.5 80 c 128,-1,42
 455 104 455 104 481 145 c 128,-1,43
 507 186 507 186 519 241 c 128,-1,44
 531 296 531 296 531 358 c 0,45,46
 531 413 531 413 518.5 464 c 128,-1,47
 506 515 506 515 480 555 c 128,-1,48
 454 595 454 595 412.5 619 c 128,-1,49
 371 643 371 643 313 643 c 0,31,32
EndSplineSet
Position2: "'cpsp' Capital Spacing lookup 0 subtable" dx=40 dy=0 dh=80 dv=0
EndChar

StartChar: E
Encoding: 69 69 40
Width: 604
Flags: W
LayerCount: 2
Fore
SplineSet
546 700 m 1,0,1
 544 655 544 655 539 607 c 128,-1,2
 534 559 534 559 526 517 c 1,3,-1
 485 517 l 1,4,-1
 439 635 l 1,5,-1
 252 635 l 1,6,-1
 252 390 l 1,7,-1
 374 390 l 1,8,-1
 418 467 l 1,9,-1
 450 467 l 1,10,11
 455 418 455 418 455 358 c 128,-1,12
 455 298 455 298 450 246 c 1,13,-1
 418 246 l 1,14,-1
 374 325 l 1,15,-1
 252 325 l 1,16,-1
 252 65 l 1,17,-1
 447 65 l 1,18,-1
 500 192 l 1,19,-1
 541 192 l 1,20,21
 545 173 545 173 549 149 c 128,-1,22
 553 125 553 125 555.5 99.5 c 128,-1,23
 558 74 558 74 559.5 48 c 128,-1,24
 561 22 561 22 561 0 c 1,25,-1
 20 0 l 1,26,-1
 20 38 l 1,27,28
 37 47 37 47 58 55 c 128,-1,29
 79 63 79 63 102 67 c 1,30,-1
 102 633 l 1,31,32
 82 637 82 637 59.5 644.5 c 128,-1,33
 37 652 37 652 20 662 c 1,34,-1
 20 700 l 1,35,-1
 546 700 l 1,0,1
EndSplineSet
Position2: "'cpsp' Capital Spacing lookup 0 subtable" dx=40 dy=0 dh=80 dv=0
EndChar

StartChar: F
Encoding: 70 70 41
Width: 575
Flags: W
LayerCount: 2
Fore
SplineSet
242 67 m 1,0,1
 288 61 288 61 329 38 c 1,2,-1
 329 0 l 1,3,-1
 20 0 l 1,4,-1
 20 38 l 1,5,6
 36 47 36 47 54 54.5 c 128,-1,7
 72 62 72 62 92 67 c 1,8,-1
 92 633 l 1,9,10
 69 638 69 638 51.5 646 c 128,-1,11
 34 654 34 654 20 662 c 1,12,-1
 20 700 l 1,13,-1
 543 700 l 1,14,15
 543 680 543 680 541 656.5 c 128,-1,16
 539 633 539 633 536.5 608.5 c 128,-1,17
 534 584 534 584 530.5 560.5 c 128,-1,18
 527 537 527 537 523 517 c 1,19,-1
 482 517 l 1,20,-1
 436 635 l 1,21,-1
 242 635 l 1,22,-1
 242 372 l 1,23,-1
 385 372 l 1,24,-1
 424 441 l 1,25,-1
 455 441 l 1,26,27
 462 390 462 390 461 336 c 128,-1,28
 460 282 460 282 455 237 c 1,29,-1
 424 237 l 1,30,-1
 385 307 l 1,31,-1
 242 307 l 1,32,-1
 242 67 l 1,0,1
EndSplineSet
Position2: "'cpsp' Capital Spacing lookup 0 subtable" dx=40 dy=0 dh=80 dv=0
EndChar

StartChar: G
Encoding: 71 71 42
Width: 709
Flags: W
LayerCount: 2
Fore
SplineSet
636 44 m 1,0,1
 616 34 616 34 587 24 c 128,-1,2
 558 14 558 14 526 6 c 128,-1,3
 494 -2 494 -2 462 -7 c 128,-1,4
 430 -12 430 -12 405 -12 c 0,5,6
 319 -12 319 -12 251.5 10.5 c 128,-1,7
 184 33 184 33 136.5 78.5 c 128,-1,8
 89 124 89 124 64 192 c 128,-1,9
 39 260 39 260 39 350 c 0,10,11
 39 448 39 448 69.5 516.5 c 128,-1,12
 100 585 100 585 150.5 628.5 c 128,-1,13
 201 672 201 672 265 692 c 128,-1,14
 329 712 329 712 396 712 c 0,15,16
 462 712 462 712 520 703 c 128,-1,17
 578 694 578 694 612 677 c 1,18,19
 612 662 612 662 610.5 638.5 c 128,-1,20
 609 615 609 615 606 588 c 128,-1,21
 603 561 603 561 598.5 534 c 128,-1,22
 594 507 594 507 588 485 c 1,23,-1
 547 485 l 1,24,-1
 491 637 l 1,25,26
 480 642 480 642 458 644.5 c 128,-1,27
 436 647 436 647 414 647 c 0,28,29
 373 647 373 647 335 631 c 128,-1,30
 297 615 297 615 268 579.5 c 128,-1,31
 239 544 239 544 222 487.5 c 128,-1,32
 205 431 205 431 205 350 c 0,33,34
 205 284 205 284 220.5 229.5 c 128,-1,35
 236 175 236 175 264 136 c 128,-1,36
 292 97 292 97 331 75 c 128,-1,37
 370 53 370 53 417 53 c 0,38,39
 432 53 432 53 448 55.5 c 128,-1,40
 464 58 464 58 478 62 c 128,-1,41
 492 66 492 66 502.5 71 c 128,-1,42
 513 76 513 76 517 80 c 1,43,-1
 517 268 l 1,44,45
 491 270 491 270 468 278 c 128,-1,46
 445 286 445 286 425 297 c 1,47,-1
 425 335 l 1,48,-1
 698 335 l 1,49,-1
 698 297 l 1,50,51
 689 288 689 288 674 280.5 c 128,-1,52
 659 273 659 273 636 268 c 1,53,-1
 636 44 l 1,0,1
EndSplineSet
Position2: "'cpsp' Capital Spacing lookup 0 subtable" dx=40 dy=0 dh=80 dv=0
EndChar

StartChar: I
Encoding: 73 73 44
Width: 372
Flags: W
LayerCount: 2
Fore
SplineSet
342 0 m 1,0,-1
 30 0 l 1,1,-1
 30 38 l 1,2,3
 70 60 70 60 111 67 c 1,4,-1
 111 633 l 1,5,6
 91 636 91 636 69 644 c 128,-1,7
 47 652 47 652 30 662 c 1,8,-1
 30 700 l 1,9,-1
 342 700 l 1,10,-1
 342 662 l 1,11,12
 324 651 324 651 302.5 643.5 c 128,-1,13
 281 636 281 636 261 633 c 1,14,-1
 261 67 l 1,15,16
 281 63 281 63 302.5 56 c 128,-1,17
 324 49 324 49 342 38 c 1,18,-1
 342 0 l 1,0,-1
EndSplineSet
Position2: "'cpsp' Capital Spacing lookup 0 subtable" dx=40 dy=0 dh=80 dv=0
EndChar

StartChar: J
Encoding: 74 74 45
Width: 365
Flags: W
LayerCount: 2
Fore
SplineSet
27 700 m 1,0,-1
 335 700 l 1,1,-1
 335 662 l 1,2,3
 319 652 319 652 299 644 c 128,-1,4
 279 636 279 636 259 633 c 1,5,-1
 259 121 l 2,6,7
 259 39 259 39 234.5 -13.5 c 128,-1,8
 210 -66 210 -66 176.5 -96.5 c 128,-1,9
 143 -127 143 -127 108 -141 c 128,-1,10
 73 -155 73 -155 51 -160 c 1,11,-1
 32 -134 l 1,12,13
 47 -122 47 -122 61 -103.5 c 128,-1,14
 75 -85 75 -85 85.5 -56 c 128,-1,15
 96 -27 96 -27 102.5 14.5 c 128,-1,16
 109 56 109 56 109 115 c 2,17,-1
 109 633 l 1,18,19
 87 638 87 638 65.5 644.5 c 128,-1,20
 44 651 44 651 27 662 c 1,21,-1
 27 700 l 1,0,-1
EndSplineSet
Position2: "'cpsp' Capital Spacing lookup 0 subtable" dx=40 dy=0 dh=80 dv=0
EndChar

StartChar: K
Encoding: 75 75 46
Width: 710
Flags: W
LayerCount: 2
Fore
SplineSet
399 700 m 1,0,-1
 667 700 l 1,1,-1
 667 662 l 1,2,3
 650 651 650 651 628 643.5 c 128,-1,4
 606 636 606 636 588 633 c 1,5,-1
 398 392 l 1,6,7
 421 360 421 360 452 319.5 c 128,-1,8
 483 279 483 279 518 235.5 c 128,-1,9
 553 192 553 192 590 147.5 c 128,-1,10
 627 103 627 103 662 63 c 1,11,-1
 710 34 l 1,12,-1
 710 0 l 1,13,-1
 536 0 l 1,14,-1
 496 28 l 1,15,16
 472 58 472 58 445.5 94.5 c 128,-1,17
 419 131 419 131 393 170.5 c 128,-1,18
 367 210 367 210 342 250 c 128,-1,19
 317 290 317 290 295 328 c 1,20,-1
 252 328 l 1,21,-1
 252 67 l 1,22,23
 274 63 274 63 292 55 c 128,-1,24
 310 47 310 47 323 38 c 1,25,-1
 323 0 l 1,26,-1
 20 0 l 1,27,-1
 20 38 l 1,28,29
 40 48 40 48 61 55.5 c 128,-1,30
 82 63 82 63 102 67 c 1,31,-1
 102 633 l 1,32,33
 79 636 79 636 57.5 644 c 128,-1,34
 36 652 36 652 20 662 c 1,35,-1
 20 700 l 1,36,-1
 323 700 l 1,37,-1
 323 662 l 1,38,39
 310 654 310 654 291.5 646 c 128,-1,40
 273 638 273 638 252 633 c 1,41,-1
 252 379 l 1,42,-1
 311 393 l 1,43,-1
 472 633 l 1,44,45
 452 637 452 637 432.5 645.5 c 128,-1,46
 413 654 413 654 399 662 c 1,47,-1
 399 700 l 1,0,-1
EndSplineSet
Position2: "'cpsp' Capital Spacing lookup 0 subtable" dx=40 dy=0 dh=80 dv=0
EndChar

StartChar: L
Encoding: 76 76 47
Width: 583
Flags: W
LayerCount: 2
Fore
SplineSet
20 700 m 1,0,-1
 348 700 l 1,1,-1
 348 662 l 1,2,3
 327 651 327 651 301.5 643.5 c 128,-1,4
 276 636 276 636 252 633 c 1,5,-1
 252 65 l 1,6,-1
 445 65 l 1,7,-1
 512 244 l 1,8,-1
 553 244 l 1,9,10
 557 221 557 221 560.5 190 c 128,-1,11
 564 159 564 159 566 125 c 128,-1,12
 568 91 568 91 569 58 c 128,-1,13
 570 25 570 25 569 0 c 1,14,-1
 20 0 l 1,15,-1
 20 38 l 1,16,17
 43 50 43 50 63.5 57 c 128,-1,18
 84 64 84 64 102 67 c 1,19,-1
 102 633 l 1,20,21
 53 641 53 641 20 662 c 1,22,-1
 20 700 l 1,0,-1
EndSplineSet
Position2: "'cpsp' Capital Spacing lookup 0 subtable" dx=40 dy=0 dh=80 dv=0
EndChar

StartChar: M
Encoding: 77 77 48
Width: 930
Flags: W
LayerCount: 2
Fore
SplineSet
909 0 m 1,0,-1
 610 0 l 1,1,-1
 610 38 l 1,2,3
 630 48 630 48 649 55 c 128,-1,4
 668 62 668 62 690 67 c 1,5,-1
 690 485 l 1,6,-1
 695 602 l 1,7,-1
 687 602 l 1,8,-1
 654 495 l 1,9,-1
 461 0 l 1,10,-1
 415 0 l 1,11,-1
 223 491 l 1,12,-1
 187 608 l 1,13,-1
 178 608 l 1,14,-1
 179 481 l 1,15,-1
 179 71 l 1,16,17
 198 67 198 67 221 58 c 128,-1,18
 244 49 244 49 264 38 c 1,19,-1
 264 0 l 1,20,-1
 20 0 l 1,21,-1
 20 38 l 1,22,23
 36 46 36 46 59.5 57 c 128,-1,24
 83 68 83 68 104 72 c 1,25,-1
 104 633 l 1,26,27
 84 637 84 637 61.5 644 c 128,-1,28
 39 651 39 651 22 662 c 1,29,-1
 22 700 l 1,30,-1
 293 700 l 1,31,-1
 446 293 l 1,32,-1
 475 197 l 1,33,-1
 476 197 l 1,34,-1
 506 295 l 1,35,-1
 662 700 l 1,36,-1
 910 700 l 1,37,-1
 910 662 l 1,38,39
 893 652 893 652 873.5 644.5 c 128,-1,40
 854 637 854 637 834 633 c 1,41,-1
 834 66 l 1,42,43
 855 62 855 62 874.5 54 c 128,-1,44
 894 46 894 46 909 38 c 1,45,-1
 909 0 l 1,0,-1
EndSplineSet
Position2: "'cpsp' Capital Spacing lookup 0 subtable" dx=40 dy=0 dh=80 dv=0
EndChar

StartChar: N
Encoding: 78 78 49
Width: 758
Flags: W
LayerCount: 2
Fore
SplineSet
490 700 m 1,0,-1
 738 700 l 1,1,-1
 738 662 l 1,2,3
 719 647 719 647 696 635.5 c 128,-1,4
 673 624 673 624 653 618 c 1,5,-1
 653 -12 l 1,6,-1
 568 -12 l 1,7,-1
 215 498 l 1,8,-1
 175 575 l 1,9,-1
 172 575 l 1,10,-1
 181 495 l 1,11,-1
 181 78 l 1,12,13
 201 73 201 73 225.5 61.5 c 128,-1,14
 250 50 250 50 267 38 c 1,15,-1
 267 0 l 1,16,-1
 20 0 l 1,17,-1
 20 38 l 1,18,19
 38 50 38 50 59.5 60.5 c 128,-1,20
 81 71 81 71 104 78 c 1,21,-1
 104 624 l 1,22,23
 84 632 84 632 64 642 c 128,-1,24
 44 652 44 652 28 663 c 1,25,-1
 28 700 l 1,26,-1
 244 700 l 1,27,-1
 531 284 l 1,28,-1
 577 198 l 1,29,-1
 581 198 l 1,30,-1
 576 284 l 1,31,-1
 576 618 l 1,32,33
 552 626 552 626 529.5 637.5 c 128,-1,34
 507 649 507 649 490 662 c 1,35,-1
 490 700 l 1,0,-1
EndSplineSet
Position2: "'cpsp' Capital Spacing lookup 0 subtable" dx=40 dy=0 dh=80 dv=0
EndChar

StartChar: O
Encoding: 79 79 50
Width: 754
Flags: W
LayerCount: 2
Fore
SplineSet
39 350 m 256,0,1
 39 428 39 428 61 494.5 c 128,-1,2
 83 561 83 561 126 609.5 c 128,-1,3
 169 658 169 658 232 685 c 128,-1,4
 295 712 295 712 377 712 c 256,5,6
 459 712 459 712 522 685 c 128,-1,7
 585 658 585 658 627.5 609.5 c 128,-1,8
 670 561 670 561 692 494.5 c 128,-1,9
 714 428 714 428 714 350 c 256,10,11
 714 272 714 272 692 205.5 c 128,-1,12
 670 139 670 139 627.5 90.5 c 128,-1,13
 585 42 585 42 522 15 c 128,-1,14
 459 -12 459 -12 377 -12 c 256,15,16
 295 -12 295 -12 232 15 c 128,-1,17
 169 42 169 42 126 90.5 c 128,-1,18
 83 139 83 139 61 205.5 c 128,-1,19
 39 272 39 272 39 350 c 256,0,1
209 350 m 256,20,21
 209 286 209 286 219 231.5 c 128,-1,22
 229 177 229 177 250.5 137.5 c 128,-1,23
 272 98 272 98 305.5 75.5 c 128,-1,24
 339 53 339 53 386 53 c 0,25,26
 429 53 429 53 459 75.5 c 128,-1,27
 489 98 489 98 508 137.5 c 128,-1,28
 527 177 527 177 535.5 231.5 c 128,-1,29
 544 286 544 286 544 350 c 256,30,31
 544 414 544 414 534.5 468.5 c 128,-1,32
 525 523 525 523 504.5 562.5 c 128,-1,33
 484 602 484 602 450.5 624.5 c 128,-1,34
 417 647 417 647 369 647 c 0,35,36
 323 647 323 647 292 624.5 c 128,-1,37
 261 602 261 602 242.5 562.5 c 128,-1,38
 224 523 224 523 216.5 468.5 c 128,-1,39
 209 414 209 414 209 350 c 256,20,21
EndSplineSet
Position2: "'cpsp' Capital Spacing lookup 0 subtable" dx=40 dy=0 dh=80 dv=0
EndChar

StartChar: P
Encoding: 80 80 51
Width: 640
Flags: W
LayerCount: 2
Fore
SplineSet
252 67 m 1,0,1
 279 63 279 63 305.5 55.5 c 128,-1,2
 332 48 332 48 353 38 c 1,3,-1
 353 0 l 1,4,-1
 20 0 l 1,5,-1
 20 38 l 1,6,7
 39 49 39 49 60.5 56 c 128,-1,8
 82 63 82 63 102 67 c 1,9,-1
 102 633 l 1,10,11
 79 637 79 637 58 644.5 c 128,-1,12
 37 652 37 652 20 662 c 1,13,-1
 20 700 l 1,14,-1
 146 700 l 2,15,16
 186 700 186 700 237.5 704 c 128,-1,17
 289 708 289 708 332 708 c 0,18,19
 385 708 385 708 435.5 697.5 c 128,-1,20
 486 687 486 687 525.5 662 c 128,-1,21
 565 637 565 637 589 595.5 c 128,-1,22
 613 554 613 554 613 492 c 0,23,24
 613 433 613 433 589.5 390 c 128,-1,25
 566 347 566 347 527 319 c 128,-1,26
 488 291 488 291 437 277.5 c 128,-1,27
 386 264 386 264 332 264 c 0,28,29
 327 264 327 264 316 264 c 128,-1,30
 305 264 305 264 292.5 264.5 c 128,-1,31
 280 265 280 265 268.5 265.5 c 128,-1,32
 257 266 257 266 252 267 c 1,33,-1
 252 67 l 1,0,1
306 643 m 0,34,35
 286 643 286 643 274.5 641.5 c 128,-1,36
 263 640 263 640 252 637 c 1,37,-1
 252 333 l 1,38,39
 261 330 261 330 279 329.5 c 128,-1,40
 297 329 297 329 308 329 c 0,41,42
 335 329 335 329 360 338 c 128,-1,43
 385 347 385 347 404.5 366 c 128,-1,44
 424 385 424 385 436 415 c 128,-1,45
 448 445 448 445 448 487 c 0,46,47
 448 567 448 567 409 605 c 128,-1,48
 370 643 370 643 306 643 c 0,34,35
EndSplineSet
Position2: "'cpsp' Capital Spacing lookup 0 subtable" dx=40 dy=0 dh=80 dv=0
EndChar

StartChar: Q
Encoding: 81 81 52
Width: 754
Flags: W
LayerCount: 2
Fore
SplineSet
774 -112 m 1,0,1
 756 -131 756 -131 735.5 -148.5 c 128,-1,2
 715 -166 715 -166 692.5 -180 c 128,-1,3
 670 -194 670 -194 645 -202 c 128,-1,4
 620 -210 620 -210 593 -210 c 0,5,6
 547 -210 547 -210 500.5 -193.5 c 128,-1,7
 454 -177 454 -177 403.5 -155.5 c 128,-1,8
 353 -134 353 -134 297.5 -114 c 128,-1,9
 242 -94 242 -94 177 -86 c 1,10,-1
 202 -42 l 1,11,12
 250 -33 250 -33 296.5 -37.5 c 128,-1,13
 343 -42 343 -42 388.5 -52.5 c 128,-1,14
 434 -63 434 -63 479.5 -76 c 128,-1,15
 525 -89 525 -89 571 -97 c 128,-1,16
 617 -105 617 -105 665 -104.5 c 128,-1,17
 713 -104 713 -104 764 -87 c 1,18,-1
 774 -112 l 1,0,1
39 350 m 256,19,20
 39 428 39 428 61 494.5 c 128,-1,21
 83 561 83 561 126 609.5 c 128,-1,22
 169 658 169 658 232 685 c 128,-1,23
 295 712 295 712 377 712 c 256,24,25
 459 712 459 712 522 685 c 128,-1,26
 585 658 585 658 627.5 609.5 c 128,-1,27
 670 561 670 561 692 494.5 c 128,-1,28
 714 428 714 428 714 350 c 256,29,30
 714 272 714 272 692 205.5 c 128,-1,31
 670 139 670 139 627.5 90.5 c 128,-1,32
 585 42 585 42 522 15 c 128,-1,33
 459 -12 459 -12 377 -12 c 256,34,35
 295 -12 295 -12 232 15 c 128,-1,36
 169 42 169 42 126 90.5 c 128,-1,37
 83 139 83 139 61 205.5 c 128,-1,38
 39 272 39 272 39 350 c 256,19,20
209 350 m 256,39,40
 209 286 209 286 219 231.5 c 128,-1,41
 229 177 229 177 250.5 137.5 c 128,-1,42
 272 98 272 98 305.5 75.5 c 128,-1,43
 339 53 339 53 386 53 c 0,44,45
 429 53 429 53 459 75.5 c 128,-1,46
 489 98 489 98 508 137.5 c 128,-1,47
 527 177 527 177 535.5 231.5 c 128,-1,48
 544 286 544 286 544 350 c 256,49,50
 544 414 544 414 534.5 468.5 c 128,-1,51
 525 523 525 523 504.5 562.5 c 128,-1,52
 484 602 484 602 450.5 624.5 c 128,-1,53
 417 647 417 647 369 647 c 0,54,55
 323 647 323 647 292 624.5 c 128,-1,56
 261 602 261 602 242.5 562.5 c 128,-1,57
 224 523 224 523 216.5 468.5 c 128,-1,58
 209 414 209 414 209 350 c 256,39,40
EndSplineSet
Position2: "'cpsp' Capital Spacing lookup 0 subtable" dx=40 dy=0 dh=80 dv=0
EndChar

StartChar: R
Encoding: 82 82 53
Width: 697
Flags: W
LayerCount: 2
Fore
SplineSet
252 67 m 1,0,1
 275 62 275 62 293 54 c 128,-1,2
 311 46 311 46 328 38 c 1,3,-1
 328 0 l 1,4,-1
 20 0 l 1,5,-1
 20 38 l 1,6,7
 42 50 42 50 62 56.5 c 128,-1,8
 82 63 82 63 102 67 c 1,9,-1
 102 633 l 1,10,11
 52 644 52 644 20 662 c 1,12,-1
 20 700 l 1,13,-1
 126 700 l 2,14,15
 146 700 146 700 171.5 701 c 128,-1,16
 197 702 197 702 225 703.5 c 128,-1,17
 253 705 253 705 282 706.5 c 128,-1,18
 311 708 311 708 338 708 c 0,19,20
 393 708 393 708 439.5 695.5 c 128,-1,21
 486 683 486 683 519.5 658 c 128,-1,22
 553 633 553 633 571.5 595.5 c 128,-1,23
 590 558 590 558 590 508 c 0,24,25
 590 436 590 436 555 390 c 128,-1,26
 520 344 520 344 459 321 c 1,27,28
 499 258 499 258 544 192.5 c 128,-1,29
 589 127 589 127 639 66 c 1,30,-1
 687 34 l 1,31,-1
 687 0 l 1,32,-1
 520 0 l 1,33,-1
 477 33 l 1,34,35
 431 88 431 88 395.5 160.5 c 128,-1,36
 360 233 360 233 333 303 c 1,37,-1
 252 303 l 1,38,-1
 252 67 l 1,0,1
302 643 m 0,39,40
 271 643 271 643 252 637 c 1,41,-1
 252 358 l 1,42,-1
 311 358 l 2,43,44
 362 358 362 358 398 394.5 c 128,-1,45
 434 431 434 431 434 503 c 0,46,47
 434 540 434 540 424 566.5 c 128,-1,48
 414 593 414 593 396 610 c 128,-1,49
 378 627 378 627 354 635 c 128,-1,50
 330 643 330 643 302 643 c 0,39,40
EndSplineSet
Position2: "'cpsp' Capital Spacing lookup 0 subtable" dx=40 dy=0 dh=80 dv=0
EndChar

StartChar: S
Encoding: 83 83 54
Width: 558
Flags: W
LayerCount: 2
Fore
SplineSet
157 83 m 1,0,1
 168 72 168 72 188 62.5 c 128,-1,2
 208 53 208 53 241 53 c 0,3,4
 296 53 296 53 332.5 81.5 c 128,-1,5
 369 110 369 110 369 161 c 0,6,7
 369 198 369 198 345.5 223 c 128,-1,8
 322 248 322 248 286 269 c 128,-1,9
 250 290 250 290 209 310.5 c 128,-1,10
 168 331 168 331 132 359 c 128,-1,11
 96 387 96 387 72.5 425.5 c 128,-1,12
 49 464 49 464 49 521 c 0,13,14
 49 570 49 570 67 606 c 128,-1,15
 85 642 85 642 116.5 665.5 c 128,-1,16
 148 689 148 689 191 700.5 c 128,-1,17
 234 712 234 712 284 712 c 0,18,19
 345 712 345 712 397.5 703.5 c 128,-1,20
 450 695 450 695 492 677 c 1,21,22
 491 657 491 657 488.5 631 c 128,-1,23
 486 605 486 605 482 579.5 c 128,-1,24
 478 554 478 554 473.5 531.5 c 128,-1,25
 469 509 469 509 465 494 c 1,26,-1
 424 494 l 1,27,-1
 378 631 l 1,28,29
 366 637 366 637 342.5 642 c 128,-1,30
 319 647 319 647 294 647 c 0,31,32
 252 647 252 647 223 625 c 128,-1,33
 194 603 194 603 194 561 c 0,34,35
 194 523 194 523 218 496.5 c 128,-1,36
 242 470 242 470 278 448 c 128,-1,37
 314 426 314 426 356.5 404.5 c 128,-1,38
 399 383 399 383 435 355 c 128,-1,39
 471 327 471 327 495 289.5 c 128,-1,40
 519 252 519 252 519 197 c 0,41,42
 519 97 519 97 451.5 42.5 c 128,-1,43
 384 -12 384 -12 253 -12 c 0,44,45
 221 -12 221 -12 188.5 -8 c 128,-1,46
 156 -4 156 -4 127 3 c 128,-1,47
 98 10 98 10 75.5 18 c 128,-1,48
 53 26 53 26 42 35 c 1,49,50
 43 58 43 58 47 84.5 c 128,-1,51
 51 111 51 111 55.5 137.5 c 128,-1,52
 60 164 60 164 65 188 c 128,-1,53
 70 212 70 212 75 230 c 1,54,-1
 116 230 l 1,55,-1
 157 83 l 1,0,1
EndSplineSet
Position2: "'cpsp' Capital Spacing lookup 0 subtable" dx=40 dy=0 dh=80 dv=0
EndChar

StartChar: T
Encoding: 84 84 55
Width: 666
Flags: W
LayerCount: 2
Fore
SplineSet
505 0 m 1,0,-1
 161 0 l 1,1,-1
 161 38 l 1,2,3
 181 46 181 46 206.5 54.5 c 128,-1,4
 232 63 232 63 258 67 c 1,5,-1
 258 635 l 1,6,-1
 142 635 l 1,7,-1
 78 464 l 1,8,-1
 37 464 l 1,9,10
 33 484 33 484 29 515 c 128,-1,11
 25 546 25 546 22 579 c 128,-1,12
 19 612 19 612 17 644.5 c 128,-1,13
 15 677 15 677 15 700 c 1,14,-1
 651 700 l 1,15,16
 651 676 651 676 649 644 c 128,-1,17
 647 612 647 612 644 579 c 128,-1,18
 641 546 641 546 637 515.5 c 128,-1,19
 633 485 633 485 629 464 c 1,20,-1
 588 464 l 1,21,-1
 524 635 l 1,22,-1
 408 635 l 1,23,-1
 408 67 l 1,24,25
 434 62 434 62 459.5 55 c 128,-1,26
 485 48 485 48 505 38 c 1,27,-1
 505 0 l 1,0,-1
EndSplineSet
Position2: "'cpsp' Capital Spacing lookup 0 subtable" dx=40 dy=0 dh=80 dv=0
EndChar

StartChar: U
Encoding: 85 85 56
Width: 715
Flags: W
LayerCount: 2
Fore
SplineSet
7 700 m 1,0,-1
 315 700 l 1,1,-1
 315 662 l 1,2,3
 282 641 282 641 239 633 c 1,4,-1
 239 248 l 2,5,6
 239 199 239 199 250 166 c 128,-1,7
 261 133 261 133 282 112.5 c 128,-1,8
 303 92 303 92 332.5 83 c 128,-1,9
 362 74 362 74 399 74 c 0,10,11
 432 74 432 74 459.5 83.5 c 128,-1,12
 487 93 487 93 507.5 114 c 128,-1,13
 528 135 528 135 539 169 c 128,-1,14
 550 203 550 203 550 253 c 2,15,-1
 550 628 l 1,16,17
 527 633 527 633 502.5 642 c 128,-1,18
 478 651 478 651 462 662 c 1,19,-1
 462 700 l 1,20,-1
 710 700 l 1,21,-1
 710 662 l 1,22,23
 692 649 692 649 670 641 c 128,-1,24
 648 633 648 633 627 628 c 1,25,-1
 627 252 l 2,26,27
 627 124 627 124 559.5 57.5 c 128,-1,28
 492 -9 492 -9 369 -9 c 0,29,30
 235 -9 235 -9 162 51 c 128,-1,31
 89 111 89 111 89 243 c 2,32,-1
 89 633 l 1,33,34
 69 636 69 636 47 643.5 c 128,-1,35
 25 651 25 651 7 662 c 1,36,-1
 7 700 l 1,0,-1
EndSplineSet
Position2: "'cpsp' Capital Spacing lookup 0 subtable" dx=40 dy=0 dh=80 dv=0
EndChar

StartChar: V
Encoding: 86 86 57
Width: 734
Flags: W
LayerCount: 2
Fore
SplineSet
564 633 m 1,0,1
 540 638 540 638 518.5 646 c 128,-1,2
 497 654 497 654 480 662 c 1,3,-1
 480 700 l 1,4,-1
 734 700 l 1,5,-1
 734 662 l 1,6,7
 722 654 722 654 702.5 646 c 128,-1,8
 683 638 683 638 662 633 c 1,9,-1
 432 0 l 1,10,-1
 333 -12 l 1,11,-1
 75 633 l 1,12,13
 55 638 55 638 35 645.5 c 128,-1,14
 15 653 15 653 0 662 c 1,15,-1
 0 700 l 1,16,-1
 333 700 l 1,17,-1
 333 662 l 1,18,19
 316 654 316 654 295 646 c 128,-1,20
 274 638 274 638 251 633 c 1,21,-1
 391 239 l 1,22,-1
 414 145 l 1,23,-1
 416 145 l 1,24,-1
 438 241 l 1,25,-1
 564 633 l 1,0,1
EndSplineSet
Position2: "'cpsp' Capital Spacing lookup 0 subtable" dx=40 dy=0 dh=80 dv=0
EndChar

StartChar: W
Encoding: 87 87 58
Width: 1033
Flags: W
LayerCount: 2
Fore
SplineSet
865 633 m 1,0,1
 825 639 825 639 781 662 c 1,2,-1
 781 700 l 1,3,-1
 1033 700 l 1,4,-1
 1033 662 l 1,5,6
 1016 651 1016 651 997 644 c 128,-1,7
 978 637 978 637 960 633 c 1,8,-1
 783 0 l 1,9,-1
 679 -12 l 1,10,-1
 524 472 l 1,11,-1
 373 0 l 1,12,-1
 268 -12 l 1,13,-1
 73 633 l 1,14,15
 52 637 52 637 34 644.5 c 128,-1,16
 16 652 16 652 0 662 c 1,17,-1
 0 700 l 1,18,-1
 324 700 l 1,19,-1
 324 662 l 1,20,21
 307 653 307 653 285.5 645.5 c 128,-1,22
 264 638 264 638 241 633 c 1,23,-1
 334 280 l 1,24,-1
 355 150 l 1,25,-1
 357 150 l 1,26,-1
 392 285 l 1,27,-1
 525 700 l 1,28,-1
 584 700 l 1,29,-1
 726 290 l 1,30,-1
 760 160 l 1,31,-1
 762 160 l 1,32,-1
 785 292 l 1,33,-1
 865 633 l 1,0,1
EndSplineSet
Position2: "'cpsp' Capital Spacing lookup 0 subtable" dx=40 dy=0 dh=80 dv=0
EndChar

StartChar: X
Encoding: 88 88 59
Width: 728
Flags: W
LayerCount: 2
Fore
SplineSet
435 700 m 1,0,-1
 683 700 l 1,1,-1
 683 662 l 1,2,3
 668 654 668 654 651.5 646 c 128,-1,4
 635 638 635 638 615 633 c 1,5,-1
 437 372 l 1,6,-1
 644 67 l 1,7,8
 667 62 667 62 685.5 54.5 c 128,-1,9
 704 47 704 47 721 38 c 1,10,-1
 721 0 l 1,11,-1
 397 0 l 1,12,-1
 397 38 l 1,13,14
 413 47 413 47 430.5 54.5 c 128,-1,15
 448 62 448 62 468 67 c 1,16,-1
 326 287 l 1,17,-1
 194 66 l 1,18,19
 215 63 215 63 233 56 c 128,-1,20
 251 49 251 49 268 38 c 1,21,-1
 268 0 l 1,22,-1
 12 0 l 1,23,-1
 12 38 l 1,24,25
 45 58 45 58 80 67 c 1,26,-1
 281 352 l 1,27,-1
 93 633 l 1,28,29
 74 638 74 638 57 646 c 128,-1,30
 40 654 40 654 24 662 c 1,31,-1
 24 700 l 1,32,-1
 341 700 l 1,33,-1
 341 662 l 1,34,35
 329 655 329 655 311 647.5 c 128,-1,36
 293 640 293 640 269 633 c 1,37,-1
 391 432 l 1,38,-1
 511 633 l 1,39,40
 491 637 491 637 471 645.5 c 128,-1,41
 451 654 451 654 435 662 c 1,42,-1
 435 700 l 1,0,-1
EndSplineSet
Position2: "'cpsp' Capital Spacing lookup 0 subtable" dx=40 dy=0 dh=80 dv=0
EndChar

StartChar: Y
Encoding: 89 89 60
Width: 698
Flags: W
LayerCount: 2
Fore
SplineSet
453 700 m 1,0,-1
 698 700 l 1,1,-1
 698 662 l 1,2,3
 683 653 683 653 664.5 644.5 c 128,-1,4
 646 636 646 636 627 633 c 1,5,-1
 433 293 l 1,6,-1
 433 67 l 1,7,8
 453 65 453 65 472.5 56.5 c 128,-1,9
 492 48 492 48 509 38 c 1,10,-1
 509 0 l 1,11,-1
 201 0 l 1,12,-1
 201 38 l 1,13,14
 218 47 218 47 239 55 c 128,-1,15
 260 63 260 63 283 67 c 1,16,-1
 283 292 l 1,17,-1
 81 633 l 1,18,19
 58 637 58 637 37.5 645 c 128,-1,20
 17 653 17 653 0 662 c 1,21,-1
 0 700 l 1,22,-1
 328 700 l 1,23,-1
 328 662 l 1,24,25
 314 654 314 654 296 646 c 128,-1,26
 278 638 278 638 254 633 c 1,27,-1
 397 365 l 1,28,-1
 533 633 l 1,29,30
 510 638 510 638 489 646 c 128,-1,31
 468 654 468 654 453 662 c 1,32,-1
 453 700 l 1,0,-1
EndSplineSet
Position2: "'cpsp' Capital Spacing lookup 0 subtable" dx=40 dy=0 dh=80 dv=0
EndChar

StartChar: Z
Encoding: 90 90 61
Width: 634
Flags: W
LayerCount: 2
Fore
SplineSet
537 211 m 1,0,-1
 579 211 l 1,1,2
 583 190 583 190 586.5 163.5 c 128,-1,3
 590 137 590 137 593 108.5 c 128,-1,4
 596 80 596 80 597.5 52 c 128,-1,5
 599 24 599 24 599 0 c 1,6,-1
 35 0 l 1,7,-1
 35 65 l 1,8,-1
 423 635 l 1,9,-1
 175 635 l 1,10,-1
 116 492 l 1,11,-1
 74 492 l 1,12,13
 69 514 69 514 65 542 c 128,-1,14
 61 570 61 570 58 598.5 c 128,-1,15
 55 627 55 627 54 653.5 c 128,-1,16
 53 680 53 680 53 700 c 1,17,-1
 587 700 l 1,18,-1
 587 635 l 1,19,-1
 201 65 l 1,20,-1
 475 65 l 1,21,-1
 537 211 l 1,0,-1
EndSplineSet
Position2: "'cpsp' Capital Spacing lookup 0 subtable" dx=40 dy=0 dh=80 dv=0
EndChar

StartChar: bracketleft
Encoding: 91 91 62
Width: 324
Flags: W
LayerCount: 2
Fore
SplineSet
72 700 m 1,0,-1
 306 700 l 1,1,-1
 306 645 l 1,2,-1
 202 645 l 1,3,-1
 202 -175 l 1,4,-1
 306 -175 l 1,5,-1
 306 -230 l 1,6,-1
 72 -230 l 1,7,-1
 72 700 l 1,0,-1
EndSplineSet
Position2: "'case' Case-Sensitive Forms lookup 1 per glyph data 3" dx=0 dy=100 dh=0 dv=0
EndChar

StartChar: backslash
Encoding: 92 92 63
Width: 382
Flags: W
LayerCount: 2
Fore
SplineSet
416 -104 m 1,0,-1
 359 -134 l 1,1,-1
 -56 686 l 1,2,-1
 2 715 l 1,3,-1
 416 -104 l 1,0,-1
EndSplineSet
EndChar

StartChar: bracketright
Encoding: 93 93 64
Width: 324
Flags: W
LayerCount: 2
Fore
SplineSet
252 -230 m 1,0,-1
 18 -230 l 1,1,-1
 18 -175 l 1,2,-1
 122 -175 l 1,3,-1
 122 645 l 1,4,-1
 18 645 l 1,5,-1
 18 700 l 1,6,-1
 252 700 l 1,7,-1
 252 -230 l 1,0,-1
EndSplineSet
Position2: "'case' Case-Sensitive Forms lookup 1 per glyph data 3" dx=0 dy=100 dh=0 dv=0
EndChar

StartChar: asciicircum
Encoding: 94 94 65
Width: 498
Flags: W
LayerCount: 2
Fore
SplineSet
229 711 m 1,0,-1
 275 711 l 1,1,-1
 445 434 l 1,2,-1
 325 434 l 1,3,-1
 246 569 l 1,4,-1
 228 622 l 1,5,-1
 203 568 l 1,6,-1
 113 434 l 1,7,-1
 43 434 l 1,8,-1
 229 711 l 1,0,-1
EndSplineSet
EndChar

StartChar: underscore
Encoding: 95 95 66
Width: 410
Flags: W
LayerCount: 2
Fore
SplineSet
0 -116 m 1,0,-1
 410 -116 l 1,1,-1
 410 -196 l 1,2,-1
 0 -196 l 1,3,-1
 0 -116 l 1,0,-1
EndSplineSet
EndChar

StartChar: grave
Encoding: 96 96 67
Width: 351
Flags: W
LayerCount: 2
Fore
SplineSet
291 589 m 1,0,-1
 246 567 l 1,1,-1
 60 712 l 1,2,-1
 60 741 l 1,3,4
 66 747 66 747 86 752.5 c 128,-1,5
 106 758 106 758 128.5 761 c 128,-1,6
 151 764 151 764 171 764.5 c 128,-1,7
 191 765 191 765 198 763 c 1,8,-1
 291 589 l 1,0,-1
EndSplineSet
EndChar

StartChar: a
Encoding: 97 97 68
Width: 557
Flags: W
LayerCount: 2
Fore
SplineSet
470 145 m 0,0,1
 470 123 470 123 470.5 107 c 128,-1,2
 471 91 471 91 473 73 c 1,3,-1
 542 63 l 1,4,-1
 542 28 l 1,5,6
 530 22 530 22 509.5 16 c 128,-1,7
 489 10 489 10 466.5 4.5 c 128,-1,8
 444 -1 444 -1 422 -4.5 c 128,-1,9
 400 -8 400 -8 383 -10 c 1,10,-1
 349 -10 l 1,11,12
 339 13 339 13 337 36 c 128,-1,13
 335 59 335 59 334 92 c 1,14,-1
 329 92 l 1,15,16
 324 72 324 72 312 53.5 c 128,-1,17
 300 35 300 35 281.5 20.5 c 128,-1,18
 263 6 263 6 238 -3 c 128,-1,19
 213 -12 213 -12 182 -12 c 0,20,21
 149 -12 149 -12 121 -2 c 128,-1,22
 93 8 93 8 72 26 c 128,-1,23
 51 44 51 44 39 69.5 c 128,-1,24
 27 95 27 95 27 127 c 0,25,26
 27 172 27 172 44 201 c 128,-1,27
 61 230 61 230 97.5 248.5 c 128,-1,28
 134 267 134 267 191.5 276 c 128,-1,29
 249 285 249 285 331 289 c 1,30,31
 339 375 339 375 324 415 c 128,-1,32
 309 455 309 455 259 455 c 0,33,34
 228 455 228 455 202 445 c 1,35,-1
 155 325 l 1,36,-1
 111 325 l 1,37,38
 103 337 103 337 95.5 352.5 c 128,-1,39
 88 368 88 368 81.5 385.5 c 128,-1,40
 75 403 75 403 70.5 421 c 128,-1,41
 66 439 66 439 64 456 c 1,42,43
 102 482 102 482 162 497 c 128,-1,44
 222 512 222 512 289 512 c 0,45,46
 346 512 346 512 382 499.5 c 128,-1,47
 418 487 418 487 438.5 465.5 c 128,-1,48
 459 444 459 444 467 415 c 128,-1,49
 475 386 475 386 475 353 c 0,50,51
 475 293 475 293 472.5 244.5 c 128,-1,52
 470 196 470 196 470 145 c 0,0,1
245 68 m 0,53,54
 266 68 266 68 281 76 c 128,-1,55
 296 84 296 84 306.5 95 c 128,-1,56
 317 106 317 106 322.5 119 c 128,-1,57
 328 132 328 132 331 142 c 1,58,-1
 331 242 l 1,59,60
 284 241 284 241 254 236 c 128,-1,61
 224 231 224 231 207 219.5 c 128,-1,62
 190 208 190 208 183.5 190.5 c 128,-1,63
 177 173 177 173 177 148 c 0,64,65
 177 110 177 110 195 89 c 128,-1,66
 213 68 213 68 245 68 c 0,53,54
EndSplineSet
Substitution2: "Single Substitution lookup 17 subtable" ordfeminine
EndChar

StartChar: b
Encoding: 98 98 69
Width: 588
Flags: W
LayerCount: 2
Fore
SplineSet
67 669 m 1,0,-1
 -9 677 l 1,1,-1
 -9 716 l 1,2,3
 6 722 6 722 30.5 728 c 128,-1,4
 55 734 55 734 81.5 738.5 c 128,-1,5
 108 743 108 743 133.5 746.5 c 128,-1,6
 159 750 159 750 177 752 c 1,7,-1
 211 752 l 1,8,-1
 211 406 l 1,9,-1
 213 406 l 1,10,11
 233 456 233 456 274 484 c 128,-1,12
 315 512 315 512 371 512 c 0,13,14
 459 512 459 512 508 451 c 128,-1,15
 557 390 557 390 557 266 c 0,16,17
 557 129 557 129 484.5 60 c 128,-1,18
 412 -9 412 -9 272 -9 c 0,19,20
 247 -9 247 -9 216 -5.5 c 128,-1,21
 185 -2 185 -2 156 3 c 128,-1,22
 127 8 127 8 102.5 15 c 128,-1,23
 78 22 78 22 67 29 c 1,24,-1
 67 669 l 1,0,-1
306 432 m 0,25,26
 268 432 268 432 245 404.5 c 128,-1,27
 222 377 222 377 211 335 c 1,28,-1
 211 70 l 1,29,30
 225 60 225 60 245.5 54 c 128,-1,31
 266 48 266 48 292 48 c 0,32,33
 349 48 349 48 375.5 99 c 128,-1,34
 402 150 402 150 402 259 c 0,35,36
 402 338 402 338 380.5 385 c 128,-1,37
 359 432 359 432 306 432 c 0,25,26
EndSplineSet
EndChar

StartChar: c
Encoding: 99 99 70
Width: 484
Flags: W
LayerCount: 2
Fore
SplineSet
456 81 m 1,0,1
 449 61 449 61 433 44.5 c 128,-1,2
 417 28 417 28 394.5 15 c 128,-1,3
 372 2 372 2 343.5 -5 c 128,-1,4
 315 -12 315 -12 284 -12 c 0,5,6
 218 -12 218 -12 170.5 6.5 c 128,-1,7
 123 25 123 25 92 59.5 c 128,-1,8
 61 94 61 94 46 142.5 c 128,-1,9
 31 191 31 191 31 250 c 0,10,11
 31 377 31 377 100.5 444.5 c 128,-1,12
 170 512 170 512 298 512 c 0,13,14
 347 512 347 512 388 501.5 c 128,-1,15
 429 491 429 491 456 477 c 1,16,17
 454 460 454 460 450.5 439.5 c 128,-1,18
 447 419 447 419 442.5 398.5 c 128,-1,19
 438 378 438 378 432 358.5 c 128,-1,20
 426 339 426 339 420 326 c 1,21,-1
 371 326 l 1,22,-1
 329 445 l 1,23,24
 322 450 322 450 314 452.5 c 128,-1,25
 306 455 306 455 290 455 c 0,26,27
 264 455 264 455 245 445.5 c 128,-1,28
 226 436 226 436 212.5 413 c 128,-1,29
 199 390 199 390 192.5 352 c 128,-1,30
 186 314 186 314 186 258 c 0,31,32
 186 217 186 217 195 182.5 c 128,-1,33
 204 148 204 148 222.5 122.5 c 128,-1,34
 241 97 241 97 269 82.5 c 128,-1,35
 297 68 297 68 335 68 c 0,36,37
 370 68 370 68 396 78 c 128,-1,38
 422 88 422 88 440 102 c 1,39,-1
 456 81 l 1,0,1
EndSplineSet
EndChar

StartChar: d
Encoding: 100 100 71
Width: 599
Flags: W
LayerCount: 2
Fore
SplineSet
372 99 m 1,0,1
 367 77 367 77 354 57 c 128,-1,2
 341 37 341 37 323 21.5 c 128,-1,3
 305 6 305 6 282 -3 c 128,-1,4
 259 -12 259 -12 233 -12 c 0,5,6
 134 -12 134 -12 82.5 50.5 c 128,-1,7
 31 113 31 113 31 242 c 0,8,9
 31 308 31 308 49 357.5 c 128,-1,10
 67 407 67 407 99.5 441 c 128,-1,11
 132 475 132 475 178 492 c 128,-1,12
 224 509 224 509 280 509 c 0,13,14
 298 509 298 509 310.5 508 c 128,-1,15
 323 507 323 507 333.5 505.5 c 128,-1,16
 344 504 344 504 353.5 500.5 c 128,-1,17
 363 497 363 497 375 493 c 1,18,-1
 375 669 l 1,19,-1
 299 677 l 1,20,-1
 299 716 l 1,21,22
 313 722 313 722 337.5 727 c 128,-1,23
 362 732 362 732 389 736.5 c 128,-1,24
 416 741 416 741 442 745 c 128,-1,25
 468 749 468 749 485 752 c 1,26,-1
 519 752 l 1,27,-1
 519 71 l 1,28,-1
 585 63 l 1,29,-1
 585 28 l 1,30,31
 571 21 571 21 549 15 c 128,-1,32
 527 9 527 9 503 4 c 128,-1,33
 479 -1 479 -1 456.5 -4.5 c 128,-1,34
 434 -8 434 -8 419 -10 c 1,35,-1
 385 -10 l 1,36,-1
 376 99 l 1,37,-1
 372 99 l 1,0,1
281 68 m 0,38,39
 316 68 316 68 340 90 c 128,-1,40
 364 112 364 112 375 165 c 1,41,-1
 375 434 l 1,42,43
 362 442 362 442 342.5 447 c 128,-1,44
 323 452 323 452 294 452 c 0,45,46
 236 452 236 452 211 399.5 c 128,-1,47
 186 347 186 347 186 247 c 0,48,49
 186 166 186 166 208 117 c 128,-1,50
 230 68 230 68 281 68 c 0,38,39
EndSplineSet
EndChar

StartChar: e
Encoding: 101 101 72
Width: 537
Flags: W
LayerCount: 2
Fore
SplineSet
486 84 m 1,0,1
 478 67 478 67 460.5 49.5 c 128,-1,2
 443 32 443 32 417.5 18.5 c 128,-1,3
 392 5 392 5 358.5 -3.5 c 128,-1,4
 325 -12 325 -12 286 -12 c 0,5,6
 224 -12 224 -12 176 6.5 c 128,-1,7
 128 25 128 25 96 59.5 c 128,-1,8
 64 94 64 94 47.5 142 c 128,-1,9
 31 190 31 190 31 250 c 0,10,11
 31 378 31 378 98 445 c 128,-1,12
 165 512 165 512 284 512 c 0,13,14
 335 512 335 512 379.5 498 c 128,-1,15
 424 484 424 484 453.5 452 c 128,-1,16
 483 420 483 420 494.5 368 c 128,-1,17
 506 316 506 316 493 241 c 1,18,-1
 186 241 l 1,19,20
 187 162 187 162 226.5 115 c 128,-1,21
 266 68 266 68 343 68 c 0,22,23
 376 68 376 68 411.5 78 c 128,-1,24
 447 88 447 88 467 104 c 1,25,-1
 486 84 l 1,0,1
280 455 m 0,26,27
 260 455 260 455 244.5 448 c 128,-1,28
 229 441 229 441 217.5 422.5 c 128,-1,29
 206 404 206 404 199 372.5 c 128,-1,30
 192 341 192 341 189 293 c 1,31,-1
 350 293 l 1,32,33
 357 371 357 371 341 413 c 128,-1,34
 325 455 325 455 280 455 c 0,26,27
EndSplineSet
EndChar

StartChar: f
Encoding: 102 102 73
Width: 372
Flags: W
LayerCount: 2
Fore
SplineSet
321 752 m 0,0,1
 362 752 362 752 394.5 744.5 c 128,-1,2
 427 737 427 737 444 730 c 1,3,4
 441 697 441 697 431 662 c 128,-1,5
 421 627 421 627 413 604 c 1,6,-1
 379 604 l 1,7,-1
 335 699 l 1,8,9
 309 699 309 699 291.5 693.5 c 128,-1,10
 274 688 274 688 263.5 672 c 128,-1,11
 253 656 253 656 248 626.5 c 128,-1,12
 243 597 243 597 243 550 c 2,13,-1
 243 500 l 1,14,-1
 349 500 l 1,15,-1
 349 437 l 1,16,-1
 243 437 l 1,17,-1
 243 63 l 1,18,19
 295 57 295 57 339 39 c 1,20,-1
 339 0 l 1,21,-1
 33 0 l 1,22,-1
 33 39 l 1,23,24
 64 57 64 57 99 63 c 1,25,-1
 99 437 l 1,26,-1
 23 437 l 1,27,-1
 23 476 l 1,28,29
 58 498 58 498 99 509 c 1,30,-1
 99 544 l 2,31,32
 99 606 99 606 116.5 646.5 c 128,-1,33
 134 687 134 687 164 710.5 c 128,-1,34
 194 734 194 734 234.5 743 c 128,-1,35
 275 752 275 752 321 752 c 0,0,1
EndSplineSet
EndChar

StartChar: g
Encoding: 103 103 74
Width: 564
Flags: W
LayerCount: 2
Fore
SplineSet
264 512 m 0,0,1
 329 512 329 512 372 498.5 c 128,-1,2
 415 485 415 485 437 465 c 1,3,4
 484 516 484 516 545 536 c 1,5,6
 552 531 552 531 559 521.5 c 128,-1,7
 566 512 566 512 571 501 c 128,-1,8
 576 490 576 490 579 479 c 128,-1,9
 582 468 582 468 582 461 c 1,10,-1
 569 437 l 1,11,-1
 464 437 l 1,12,13
 475 423 475 423 484.5 400.5 c 128,-1,14
 494 378 494 378 494 347 c 0,15,16
 494 314 494 314 480 285 c 128,-1,17
 466 256 466 256 437.5 233.5 c 128,-1,18
 409 211 409 211 365.5 198 c 128,-1,19
 322 185 322 185 264 185 c 0,20,21
 247 185 247 185 233.5 185.5 c 128,-1,22
 220 186 220 186 210 188 c 1,23,24
 206 182 206 182 201.5 173.5 c 128,-1,25
 197 165 197 165 197 157 c 0,26,27
 197 140 197 140 221 130 c 128,-1,28
 245 120 245 120 282 112 c 128,-1,29
 319 104 319 104 361.5 94 c 128,-1,30
 404 84 404 84 441 67.5 c 128,-1,31
 478 51 478 51 503 24.5 c 128,-1,32
 528 -2 528 -2 529 -44 c 0,33,34
 530 -84 530 -84 509 -115 c 128,-1,35
 488 -146 488 -146 451.5 -167.5 c 128,-1,36
 415 -189 415 -189 365.5 -200.5 c 128,-1,37
 316 -212 316 -212 260 -212 c 0,38,39
 194 -212 194 -212 147.5 -201.5 c 128,-1,40
 101 -191 101 -191 72 -173 c 128,-1,41
 43 -155 43 -155 29.5 -132 c 128,-1,42
 16 -109 16 -109 16 -84 c 0,43,44
 16 -56 16 -56 27 -36 c 128,-1,45
 38 -16 38 -16 58 -1 c 128,-1,46
 78 14 78 14 104.5 24 c 128,-1,47
 131 34 131 34 163 42 c 1,48,49
 148 46 148 46 134 52 c 128,-1,50
 120 58 120 58 109 66.5 c 128,-1,51
 98 75 98 75 91 86.5 c 128,-1,52
 84 98 84 98 84 113 c 0,53,54
 84 126 84 126 92 138.5 c 128,-1,55
 100 151 100 151 113 161.5 c 128,-1,56
 126 172 126 172 141 180.5 c 128,-1,57
 156 189 156 189 171 195 c 1,58,59
 108 209 108 209 71 249.5 c 128,-1,60
 34 290 34 290 34 353 c 0,61,62
 34 428 34 428 96 470 c 128,-1,63
 158 512 158 512 264 512 c 0,0,1
390 -76 m 0,64,65
 390 -49 390 -49 373.5 -32.5 c 128,-1,66
 357 -16 357 -16 331 -5.5 c 128,-1,67
 305 5 305 5 272.5 12.5 c 128,-1,68
 240 20 240 20 208 30 c 1,69,70
 182 10 182 10 171 -10 c 128,-1,71
 160 -30 160 -30 160 -58 c 0,72,73
 160 -104 160 -104 191.5 -129.5 c 128,-1,74
 223 -155 223 -155 280 -155 c 0,75,76
 336 -155 336 -155 363 -131.5 c 128,-1,77
 390 -108 390 -108 390 -76 c 0,64,65
178 348 m 0,78,79
 178 296 178 296 195.5 269 c 128,-1,80
 213 242 213 242 264 242 c 0,81,82
 313 242 313 242 331.5 269.5 c 128,-1,83
 350 297 350 297 350 348 c 0,84,85
 350 402 350 402 331 428.5 c 128,-1,86
 312 455 312 455 264 455 c 0,87,88
 214 455 214 455 196 429 c 128,-1,89
 178 403 178 403 178 348 c 0,78,79
EndSplineSet
EndChar

StartChar: h
Encoding: 104 104 75
Width: 640
Flags: W
LayerCount: 2
Fore
SplineSet
628 0 m 1,0,-1
 363 0 l 1,1,-1
 363 39 l 1,2,3
 375 46 375 46 388 52 c 128,-1,4
 401 58 401 58 418 63 c 1,5,-1
 418 265 l 2,6,7
 418 351 418 351 401.5 391.5 c 128,-1,8
 385 432 385 432 337 432 c 0,9,10
 297 432 297 432 269 404.5 c 128,-1,11
 241 377 241 377 229 341 c 1,12,-1
 229 63 l 1,13,14
 245 59 245 59 257.5 54 c 128,-1,15
 270 49 270 49 284 39 c 1,16,-1
 284 0 l 1,17,-1
 19 0 l 1,18,-1
 19 39 l 1,19,20
 50 55 50 55 85 63 c 1,21,-1
 85 669 l 1,22,-1
 9 677 l 1,23,-1
 9 716 l 1,24,25
 24 722 24 722 47.5 728 c 128,-1,26
 71 734 71 734 97 738.5 c 128,-1,27
 123 743 123 743 149 746.5 c 128,-1,28
 175 750 175 750 195 752 c 1,29,-1
 229 752 l 1,30,-1
 229 399 l 1,31,-1
 230 399 l 1,32,33
 240 422 240 422 257 442.5 c 128,-1,34
 274 463 274 463 295.5 478.5 c 128,-1,35
 317 494 317 494 342 503 c 128,-1,36
 367 512 367 512 395 512 c 0,37,38
 435 512 435 512 466.5 502.5 c 128,-1,39
 498 493 498 493 519 469 c 128,-1,40
 540 445 540 445 551 404.5 c 128,-1,41
 562 364 562 364 562 302 c 2,42,-1
 562 63 l 1,43,44
 579 59 579 59 596 54 c 128,-1,45
 613 49 613 49 628 39 c 1,46,-1
 628 0 l 1,0,-1
EndSplineSet
EndChar

StartChar: k
Encoding: 107 107 78
Width: 583
Flags: W
LayerCount: 2
Fore
SplineSet
322 500 m 1,0,-1
 556 500 l 1,1,-1
 556 461 l 1,2,3
 537 453 537 453 520.5 447 c 128,-1,4
 504 441 504 441 484 437 c 1,5,6
 469 417 469 417 451.5 397.5 c 128,-1,7
 434 378 434 378 416.5 360 c 128,-1,8
 399 342 399 342 383 325.5 c 128,-1,9
 367 309 367 309 354 296 c 1,10,11
 369 276 369 276 389 248 c 128,-1,12
 409 220 409 220 432 188.5 c 128,-1,13
 455 157 455 157 480.5 124.5 c 128,-1,14
 506 92 506 92 532 63 c 1,15,-1
 583 39 l 1,16,-1
 583 0 l 1,17,-1
 414 0 l 1,18,-1
 387 24 l 1,19,20
 364 55 364 55 346.5 82 c 128,-1,21
 329 109 329 109 315 134 c 128,-1,22
 301 159 301 159 288 182.5 c 128,-1,23
 275 206 275 206 262 229 c 1,24,-1
 229 239 l 1,25,-1
 229 63 l 1,26,27
 246 60 246 60 260 54 c 128,-1,28
 274 48 274 48 290 39 c 1,29,-1
 290 0 l 1,30,-1
 19 0 l 1,31,-1
 19 39 l 1,32,33
 52 55 52 55 85 63 c 1,34,-1
 85 669 l 1,35,-1
 9 677 l 1,36,-1
 9 716 l 1,37,38
 23 722 23 722 47 728 c 128,-1,39
 71 734 71 734 98 738.5 c 128,-1,40
 125 743 125 743 151 746.5 c 128,-1,41
 177 750 177 750 195 752 c 1,42,-1
 229 752 l 1,43,-1
 229 283 l 1,44,-1
 255 283 l 1,45,46
 288 318 288 318 316.5 360 c 128,-1,47
 345 402 345 402 367 437 c 1,48,49
 354 441 354 441 343.5 447 c 128,-1,50
 333 453 333 453 322 461 c 1,51,-1
 322 500 l 1,0,-1
EndSplineSet
EndChar

StartChar: l
Encoding: 108 108 79
Width: 332
Flags: W
LayerCount: 2
Fore
SplineSet
307 0 m 1,0,-1
 31 0 l 1,1,-1
 31 39 l 1,2,3
 64 55 64 55 97 63 c 1,4,-1
 97 669 l 1,5,-1
 21 677 l 1,6,-1
 21 716 l 1,7,8
 34 722 34 722 57 728 c 128,-1,9
 80 734 80 734 106.5 738.5 c 128,-1,10
 133 743 133 743 159.5 746.5 c 128,-1,11
 186 750 186 750 207 752 c 1,12,-1
 241 752 l 1,13,-1
 241 63 l 1,14,15
 274 55 274 55 307 39 c 1,16,-1
 307 0 l 1,0,-1
EndSplineSet
EndChar

StartChar: m
Encoding: 109 109 80
Width: 924
Flags: W
LayerCount: 2
Fore
SplineSet
594 0 m 1,0,-1
 344 0 l 1,1,-1
 344 39 l 1,2,3
 354 45 354 45 366.5 51.5 c 128,-1,4
 379 58 379 58 394 63 c 1,5,-1
 394 262 l 2,6,7
 394 308 394 308 391.5 340 c 128,-1,8
 389 372 389 372 381 392.5 c 128,-1,9
 373 413 373 413 359 422.5 c 128,-1,10
 345 432 345 432 323 432 c 0,11,12
 291 432 291 432 267.5 407.5 c 128,-1,13
 244 383 244 383 233 343 c 1,14,-1
 233 63 l 1,15,16
 260 55 260 55 283 39 c 1,17,-1
 283 0 l 1,18,-1
 23 0 l 1,19,-1
 23 39 l 1,20,21
 37 46 37 46 54 52 c 128,-1,22
 71 58 71 58 89 63 c 1,23,-1
 89 429 l 1,24,-1
 23 437 l 1,25,-1
 23 476 l 1,26,27
 39 483 39 483 62.5 489 c 128,-1,28
 86 495 86 495 111 499.5 c 128,-1,29
 136 504 136 504 159.5 507 c 128,-1,30
 183 510 183 510 199 512 c 1,31,-1
 233 512 l 1,32,-1
 233 399 l 1,33,-1
 234 399 l 1,34,35
 250 446 250 446 290.5 479 c 128,-1,36
 331 512 331 512 388 512 c 0,37,38
 412 512 412 512 435 507 c 128,-1,39
 458 502 458 502 477.5 488.5 c 128,-1,40
 497 475 497 475 511 451 c 128,-1,41
 525 427 525 427 531 389 c 1,42,43
 549 444 549 444 591 478 c 128,-1,44
 633 512 633 512 693 512 c 0,45,46
 730 512 730 512 758.5 502.5 c 128,-1,47
 787 493 787 493 806.5 469 c 128,-1,48
 826 445 826 445 836 404 c 128,-1,49
 846 363 846 363 846 300 c 2,50,-1
 846 63 l 1,51,52
 880 57 880 57 912 39 c 1,53,-1
 912 0 l 1,54,-1
 652 0 l 1,55,-1
 652 39 l 1,56,57
 675 54 675 54 702 63 c 1,58,-1
 702 280 l 2,59,60
 702 358 702 358 687.5 395 c 128,-1,61
 673 432 673 432 625 432 c 0,62,63
 589 432 589 432 568.5 405 c 128,-1,64
 548 378 548 378 538 333 c 1,65,-1
 538 63 l 1,66,67
 555 58 555 58 568.5 52 c 128,-1,68
 582 46 582 46 594 39 c 1,69,-1
 594 0 l 1,0,-1
EndSplineSet
EndChar

StartChar: n
Encoding: 110 110 81
Width: 644
Flags: W
LayerCount: 2
Fore
SplineSet
632 0 m 1,0,-1
 367 0 l 1,1,-1
 367 39 l 1,2,3
 380 46 380 46 392.5 51.5 c 128,-1,4
 405 57 405 57 422 63 c 1,5,-1
 422 298 l 2,6,7
 422 361 422 361 404 396.5 c 128,-1,8
 386 432 386 432 340 432 c 0,9,10
 302 432 302 432 274.5 407.5 c 128,-1,11
 247 383 247 383 233 341 c 1,12,-1
 233 63 l 1,13,14
 249 59 249 59 261.5 53.5 c 128,-1,15
 274 48 274 48 288 39 c 1,16,-1
 288 0 l 1,17,-1
 23 0 l 1,18,-1
 23 39 l 1,19,20
 48 52 48 52 89 63 c 1,21,-1
 89 429 l 1,22,-1
 23 437 l 1,23,-1
 23 476 l 1,24,25
 36 482 36 482 57 487.5 c 128,-1,26
 78 493 78 493 102.5 498 c 128,-1,27
 127 503 127 503 152.5 506.5 c 128,-1,28
 178 510 178 510 199 512 c 1,29,-1
 233 512 l 1,30,-1
 233 409 l 1,31,-1
 234 409 l 1,32,33
 255 451 255 451 297 481.5 c 128,-1,34
 339 512 339 512 399 512 c 0,35,36
 438 512 438 512 469 502.5 c 128,-1,37
 500 493 500 493 521.5 469 c 128,-1,38
 543 445 543 445 554.5 404.5 c 128,-1,39
 566 364 566 364 566 302 c 2,40,-1
 566 63 l 1,41,42
 606 56 606 56 632 39 c 1,43,-1
 632 0 l 1,0,-1
EndSplineSet
EndChar

StartChar: o
Encoding: 111 111 82
Width: 594
Flags: W
LayerCount: 2
Fore
SplineSet
31 250 m 0,0,1
 31 311 31 311 49.5 359.5 c 128,-1,2
 68 408 68 408 102.5 442 c 128,-1,3
 137 476 137 476 186 494 c 128,-1,4
 235 512 235 512 297 512 c 0,5,6
 367 512 367 512 417.5 492.5 c 128,-1,7
 468 473 468 473 500.5 438.5 c 128,-1,8
 533 404 533 404 548 355.5 c 128,-1,9
 563 307 563 307 563 250 c 0,10,11
 563 189 563 189 545 140.5 c 128,-1,12
 527 92 527 92 492.5 58 c 128,-1,13
 458 24 458 24 408.5 6 c 128,-1,14
 359 -12 359 -12 297 -12 c 0,15,16
 229 -12 229 -12 179 7.5 c 128,-1,17
 129 27 129 27 96 61.5 c 128,-1,18
 63 96 63 96 47 144.5 c 128,-1,19
 31 193 31 193 31 250 c 0,0,1
186 250 m 0,20,21
 186 205 186 205 191.5 167.5 c 128,-1,22
 197 130 197 130 211 104 c 128,-1,23
 225 78 225 78 249 63.5 c 128,-1,24
 273 49 273 49 311 49 c 0,25,26
 333 49 333 49 351 59.5 c 128,-1,27
 369 70 369 70 382 93.5 c 128,-1,28
 395 117 395 117 401.5 155.5 c 128,-1,29
 408 194 408 194 408 250 c 0,30,31
 408 296 408 296 402.5 333 c 128,-1,32
 397 370 397 370 383.5 396 c 128,-1,33
 370 422 370 422 347 436.5 c 128,-1,34
 324 451 324 451 289 451 c 0,35,36
 263 451 263 451 244 440.5 c 128,-1,37
 225 430 225 430 212 406.5 c 128,-1,38
 199 383 199 383 192.5 344.5 c 128,-1,39
 186 306 186 306 186 250 c 0,20,21
EndSplineSet
Substitution2: "Single Substitution lookup 17 subtable" ordmasculine
EndChar

StartChar: p
Encoding: 112 112 83
Width: 609
Flags: W
LayerCount: 2
Fore
SplineSet
297 -200 m 1,0,-1
 21 -200 l 1,1,-1
 21 -161 l 1,2,3
 55 -145 55 -145 87 -137 c 1,4,-1
 87 429 l 1,5,-1
 21 437 l 1,6,-1
 21 476 l 1,7,8
 37 483 37 483 60.5 489 c 128,-1,9
 84 495 84 495 109 499.5 c 128,-1,10
 134 504 134 504 157.5 507 c 128,-1,11
 181 510 181 510 197 512 c 1,12,-1
 231 512 l 1,13,-1
 231 400 l 1,14,-1
 232 400 l 1,15,16
 249 448 249 448 285.5 480 c 128,-1,17
 322 512 322 512 387 512 c 0,18,19
 431 512 431 512 466.5 497.5 c 128,-1,20
 502 483 502 483 526.5 452.5 c 128,-1,21
 551 422 551 422 564.5 374.5 c 128,-1,22
 578 327 578 327 578 261 c 0,23,24
 578 198 578 198 560.5 147 c 128,-1,25
 543 96 543 96 510.5 61 c 128,-1,26
 478 26 478 26 431.5 7 c 128,-1,27
 385 -12 385 -12 326 -12 c 0,28,29
 292 -12 292 -12 272.5 -7.5 c 128,-1,30
 253 -3 253 -3 231 8 c 1,31,-1
 231 -137 l 1,32,33
 247 -139 247 -139 263 -144.5 c 128,-1,34
 279 -150 279 -150 297 -161 c 1,35,-1
 297 -200 l 1,0,-1
329 432 m 0,36,37
 295 432 295 432 268.5 408 c 128,-1,38
 242 384 242 384 231 334 c 1,39,-1
 231 68 l 1,40,41
 247 56 247 56 265 50.5 c 128,-1,42
 283 45 283 45 312 45 c 0,43,44
 369 45 369 45 396 100 c 128,-1,45
 423 155 423 155 423 261 c 0,46,47
 423 343 423 343 402.5 387.5 c 128,-1,48
 382 432 382 432 329 432 c 0,36,37
EndSplineSet
EndChar

StartChar: q
Encoding: 113 113 84
Width: 589
Flags: W
LayerCount: 2
Fore
SplineSet
367 89 m 1,0,1
 360 69 360 69 347 51 c 128,-1,2
 334 33 334 33 316 19 c 128,-1,3
 298 5 298 5 274.5 -3.5 c 128,-1,4
 251 -12 251 -12 222 -12 c 0,5,6
 131 -12 131 -12 81 50 c 128,-1,7
 31 112 31 112 31 237 c 0,8,9
 31 374 31 374 104.5 441.5 c 128,-1,10
 178 509 178 509 313 509 c 0,11,12
 341 509 341 509 372 506 c 128,-1,13
 403 503 403 503 431 498.5 c 128,-1,14
 459 494 459 494 481.5 488.5 c 128,-1,15
 504 483 504 483 515 478 c 1,16,-1
 515 -137 l 1,17,18
 548 -143 548 -143 581 -161 c 1,19,-1
 581 -200 l 1,20,-1
 305 -200 l 1,21,-1
 305 -161 l 1,22,23
 336 -145 336 -145 371 -137 c 1,24,-1
 371 89 l 1,25,-1
 367 89 l 1,0,1
272 68 m 0,26,27
 347 68 347 68 371 164 c 1,28,-1
 371 438 l 1,29,30
 354 443 354 443 335 447.5 c 128,-1,31
 316 452 316 452 293 452 c 0,32,33
 235 452 235 452 210.5 406 c 128,-1,34
 186 360 186 360 186 249 c 0,35,36
 186 162 186 162 204 115 c 128,-1,37
 222 68 222 68 272 68 c 0,26,27
EndSplineSet
EndChar

StartChar: r
Encoding: 114 114 85
Width: 431
Flags: W
LayerCount: 2
Fore
SplineSet
290 385 m 1,0,1
 278 379 278 379 262 365 c 128,-1,2
 246 351 246 351 233 319 c 1,3,-1
 233 63 l 1,4,5
 253 61 253 61 273 55.5 c 128,-1,6
 293 50 293 50 313 39 c 1,7,-1
 313 0 l 1,8,-1
 23 0 l 1,9,-1
 23 39 l 1,10,11
 41 49 41 49 57 54 c 128,-1,12
 73 59 73 59 89 63 c 1,13,-1
 89 429 l 1,14,-1
 23 437 l 1,15,-1
 23 476 l 1,16,17
 39 483 39 483 62.5 489 c 128,-1,18
 86 495 86 495 111 499.5 c 128,-1,19
 136 504 136 504 159.5 507 c 128,-1,20
 183 510 183 510 199 512 c 1,21,-1
 233 512 l 1,22,-1
 233 379 l 1,23,-1
 237 379 l 1,24,25
 245 401 245 401 260.5 425 c 128,-1,26
 276 449 276 449 297 469 c 128,-1,27
 318 489 318 489 343 501 c 128,-1,28
 368 513 368 513 395 512 c 1,29,30
 406 498 406 498 414 472.5 c 128,-1,31
 422 447 422 447 427 424 c 1,32,-1
 427 385 l 1,33,-1
 290 385 l 1,0,1
EndSplineSet
EndChar

StartChar: s
Encoding: 115 115 86
Width: 452
Flags: W
LayerCount: 2
Fore
SplineSet
288 109 m 0,0,1
 288 135 288 135 269.5 154 c 128,-1,2
 251 173 251 173 223.5 189 c 128,-1,3
 196 205 196 205 163.5 221 c 128,-1,4
 131 237 131 237 103.5 258.5 c 128,-1,5
 76 280 76 280 57.5 309 c 128,-1,6
 39 338 39 338 39 380 c 0,7,8
 39 410 39 410 53 434.5 c 128,-1,9
 67 459 67 459 91 476 c 128,-1,10
 115 493 115 493 148.5 502.5 c 128,-1,11
 182 512 182 512 221 512 c 0,12,13
 275 512 275 512 321.5 503.5 c 128,-1,14
 368 495 368 495 403 480 c 1,15,16
 399 448 399 448 387 411.5 c 128,-1,17
 375 375 375 375 364 345 c 1,18,-1
 330 345 l 1,19,-1
 288 447 l 1,20,21
 276 452 276 452 263 453.5 c 128,-1,22
 250 455 250 455 234 455 c 0,23,24
 204 455 204 455 188.5 437.5 c 128,-1,25
 173 420 173 420 173 398 c 0,26,27
 173 373 173 373 191.5 354.5 c 128,-1,28
 210 336 210 336 237.5 320 c 128,-1,29
 265 304 265 304 297.5 288 c 128,-1,30
 330 272 330 272 357.5 251.5 c 128,-1,31
 385 231 385 231 403.5 203 c 128,-1,32
 422 175 422 175 422 136 c 0,33,34
 422 67 422 67 366 27.5 c 128,-1,35
 310 -12 310 -12 216 -12 c 0,36,37
 168 -12 168 -12 117 -2 c 128,-1,38
 66 8 66 8 29 26 c 1,39,40
 31 62 31 62 46 99 c 128,-1,41
 61 136 61 136 78 165 c 1,42,-1
 112 165 l 1,43,-1
 161 56 l 1,44,45
 172 48 172 48 185.5 46.5 c 128,-1,46
 199 45 199 45 211 45 c 0,47,48
 240 45 240 45 264 62 c 128,-1,49
 288 79 288 79 288 109 c 0,0,1
EndSplineSet
Substitution2: "'hist' Historical Forms lookup 16 subtable" longs
Substitution2: "'aalt' Access All Alternates lookup 0 subtable" longs
EndChar

StartChar: t
Encoding: 116 116 87
Width: 399
Flags: W
LayerCount: 2
Fore
SplineSet
8 476 m 1,0,1
 46 500 46 500 88 510 c 1,2,-1
 88 591 l 1,3,4
 96 597 96 597 127.5 608.5 c 128,-1,5
 159 620 159 620 198 627 c 1,6,-1
 232 627 l 1,7,-1
 232 500 l 1,8,-1
 364 500 l 1,9,-1
 364 437 l 1,10,-1
 232 437 l 1,11,-1
 232 178 l 2,12,13
 232 116 232 116 247.5 92 c 128,-1,14
 263 68 263 68 299 68 c 0,15,16
 317 68 317 68 339.5 70.5 c 128,-1,17
 362 73 362 73 381 80 c 1,18,-1
 388 47 l 1,19,20
 379 38 379 38 361.5 28 c 128,-1,21
 344 18 344 18 321.5 9 c 128,-1,22
 299 0 299 0 272.5 -6 c 128,-1,23
 246 -12 246 -12 217 -12 c 0,24,25
 152 -12 152 -12 120 22 c 128,-1,26
 88 56 88 56 88 132 c 2,27,-1
 88 437 l 1,28,-1
 8 437 l 1,29,-1
 8 476 l 1,0,1
EndSplineSet
EndChar

StartChar: u
Encoding: 117 117 88
Width: 622
Flags: W
LayerCount: 2
Fore
SplineSet
71 198 m 0,0,1
 71 261 71 261 74 315 c 128,-1,2
 77 369 77 369 77 429 c 1,3,-1
 11 437 l 1,4,-1
 11 476 l 1,5,6
 27 482 27 482 50.5 488 c 128,-1,7
 74 494 74 494 99 498.5 c 128,-1,8
 124 503 124 503 147.5 506.5 c 128,-1,9
 171 510 171 510 187 512 c 1,10,-1
 221 512 l 1,11,12
 221 437 221 437 218 364.5 c 128,-1,13
 215 292 215 292 215 222 c 0,14,15
 215 140 215 140 231.5 104 c 128,-1,16
 248 68 248 68 293 68 c 0,17,18
 324 68 324 68 350.5 91.5 c 128,-1,19
 377 115 377 115 394 167 c 1,20,-1
 394 429 l 1,21,-1
 329 437 l 1,22,-1
 329 476 l 1,23,24
 344 482 344 482 366.5 488 c 128,-1,25
 389 494 389 494 413.5 498.5 c 128,-1,26
 438 503 438 503 462 506.5 c 128,-1,27
 486 510 486 510 504 512 c 1,28,-1
 538 512 l 1,29,-1
 538 71 l 1,30,-1
 604 63 l 1,31,-1
 604 28 l 1,32,33
 590 22 590 22 569 16 c 128,-1,34
 548 10 548 10 525 4.5 c 128,-1,35
 502 -1 502 -1 479.5 -4.5 c 128,-1,36
 457 -8 457 -8 439 -10 c 1,37,-1
 405 -10 l 1,38,-1
 398 109 l 1,39,-1
 394 109 l 1,40,41
 389 88 389 88 376 66.5 c 128,-1,42
 363 45 363 45 342.5 27.5 c 128,-1,43
 322 10 322 10 294 -1 c 128,-1,44
 266 -12 266 -12 232 -12 c 0,45,46
 194 -12 194 -12 164.5 -2.5 c 128,-1,47
 135 7 135 7 114 31 c 128,-1,48
 93 55 93 55 82 95.5 c 128,-1,49
 71 136 71 136 71 198 c 0,0,1
EndSplineSet
EndChar

StartChar: v
Encoding: 118 118 89
Width: 539
Flags: W
LayerCount: 2
Fore
SplineSet
243 -12 m 1,0,-1
 43 437 l 1,1,2
 14 447 14 447 -10 461 c 1,3,-1
 -10 500 l 1,4,-1
 253 500 l 1,5,-1
 253 462 l 1,6,7
 240 455 240 455 226.5 448.5 c 128,-1,8
 213 442 213 442 196 437 c 1,9,-1
 289 181 l 1,10,-1
 308 114 l 1,11,-1
 310 114 l 1,12,-1
 326 182 l 1,13,-1
 411 437 l 1,14,15
 395 441 395 441 381.5 447 c 128,-1,16
 368 453 368 453 356 461 c 1,17,-1
 356 500 l 1,18,-1
 549 500 l 1,19,-1
 549 461 l 1,20,21
 539 454 539 454 524.5 448 c 128,-1,22
 510 442 510 442 492 437 c 1,23,-1
 317 0 l 1,24,-1
 243 -12 l 1,0,-1
EndSplineSet
EndChar

StartChar: w
Encoding: 119 119 90
Width: 784
Flags: W
LayerCount: 2
Fore
SplineSet
200 -12 m 1,0,-1
 43 437 l 1,1,2
 29 442 29 442 15.5 447.5 c 128,-1,3
 2 453 2 453 -10 461 c 1,4,-1
 -10 500 l 1,5,-1
 243 500 l 1,6,-1
 243 462 l 1,7,8
 229 454 229 454 215 447.5 c 128,-1,9
 201 441 201 441 186 437 c 1,10,-1
 255 181 l 1,11,-1
 268 104 l 1,12,-1
 270 104 l 1,13,-1
 288 184 l 1,14,-1
 394 494 l 1,15,-1
 443 500 l 1,16,-1
 557 183 l 1,17,-1
 578 104 l 1,18,-1
 580 104 l 1,19,-1
 596 182 l 1,20,-1
 656 437 l 1,21,22
 645 439 645 439 630.5 445 c 128,-1,23
 616 451 616 451 601 461 c 1,24,-1
 601 500 l 1,25,-1
 794 500 l 1,26,-1
 794 461 l 1,27,28
 773 447 773 447 737 437 c 1,29,-1
 598 0 l 1,30,-1
 504 -12 l 1,31,-1
 418 235 l 1,32,-1
 399 318 l 1,33,-1
 396 318 l 1,34,-1
 373 235 l 1,35,-1
 293 0 l 1,36,-1
 200 -12 l 1,0,-1
EndSplineSet
EndChar

StartChar: x
Encoding: 120 120 91
Width: 560
Flags: W
LayerCount: 2
Fore
SplineSet
343 268 m 1,0,-1
 501 63 l 1,1,2
 527 55 527 55 550 39 c 1,3,-1
 550 0 l 1,4,-1
 295 0 l 1,5,-1
 295 38 l 1,6,7
 306 46 306 46 317.5 52.5 c 128,-1,8
 329 59 329 59 341 63 c 1,9,-1
 246 199 l 1,10,-1
 154 63 l 1,11,12
 168 58 168 58 178.5 52 c 128,-1,13
 189 46 189 46 199 39 c 1,14,-1
 199 0 l 1,15,-1
 10 0 l 1,16,-1
 10 39 l 1,17,18
 24 47 24 47 35.5 53 c 128,-1,19
 47 59 47 59 62 63 c 1,20,-1
 210 247 l 1,21,-1
 61 437 l 1,22,23
 47 442 47 442 36 447.5 c 128,-1,24
 25 453 25 453 16 461 c 1,25,-1
 16 500 l 1,26,-1
 267 500 l 1,27,-1
 267 462 l 1,28,29
 255 454 255 454 245.5 447.5 c 128,-1,30
 236 441 236 441 222 437 c 1,31,-1
 309 313 l 1,32,-1
 392 437 l 1,33,34
 375 442 375 442 365 448 c 128,-1,35
 355 454 355 454 347 461 c 1,36,-1
 347 500 l 1,37,-1
 532 500 l 1,38,-1
 532 461 l 1,39,40
 522 454 522 454 510 448 c 128,-1,41
 498 442 498 442 480 437 c 1,42,-1
 343 268 l 1,0,-1
EndSplineSet
EndChar

StartChar: y
Encoding: 121 121 92
Width: 528
Flags: W
LayerCount: 2
Fore
SplineSet
38 437 m 1,0,1
 23 441 23 441 10.5 447 c 128,-1,2
 -2 453 -2 453 -15 461 c 1,3,-1
 -15 500 l 1,4,-1
 248 500 l 1,5,-1
 248 462 l 1,6,7
 227 448 227 448 191 437 c 1,8,-1
 292 186 l 1,9,-1
 309 122 l 1,10,-1
 311 122 l 1,11,-1
 327 187 l 1,12,-1
 405 437 l 1,13,14
 375 443 375 443 350 461 c 1,15,-1
 350 500 l 1,16,-1
 543 500 l 1,17,-1
 543 461 l 1,18,19
 522 447 522 447 486 437 c 1,20,-1
 323 0 l 2,21,22
 299 -64 299 -64 275 -104.5 c 128,-1,23
 251 -145 251 -145 227 -169 c 128,-1,24
 203 -193 203 -193 179 -202.5 c 128,-1,25
 155 -212 155 -212 131 -215 c 1,26,27
 121 -206 121 -206 113 -192.5 c 128,-1,28
 105 -179 105 -179 99 -163.5 c 128,-1,29
 93 -148 93 -148 89 -132 c 128,-1,30
 85 -116 85 -116 84 -102 c 1,31,-1
 97 -78 l 1,32,-1
 219 -78 l 1,33,34
 228 -64 228 -64 234.5 -48 c 128,-1,35
 241 -32 241 -32 250 0 c 1,36,-1
 38 437 l 1,0,1
EndSplineSet
EndChar

StartChar: z
Encoding: 122 122 93
Width: 516
Flags: W
LayerCount: 2
Fore
SplineSet
453 185 m 1,0,1
 464 144 464 144 472 94 c 128,-1,2
 480 44 480 44 478 0 c 1,3,-1
 32 0 l 1,4,-1
 32 39 l 1,5,-1
 317 443 l 1,6,-1
 151 443 l 1,7,-1
 107 325 l 1,8,-1
 73 325 l 1,9,10
 62 368 62 368 55 416 c 128,-1,11
 48 464 48 464 48 500 c 1,12,-1
 478 500 l 1,13,-1
 478 461 l 1,14,-1
 192 57 l 1,15,-1
 365 57 l 1,16,-1
 419 185 l 1,17,-1
 453 185 l 1,0,1
EndSplineSet
EndChar

StartChar: braceleft
Encoding: 123 123 94
Width: 354
Flags: W
LayerCount: 2
Fore
SplineSet
123 102 m 2,0,1
 123 153 123 153 102 182 c 128,-1,2
 81 211 81 211 43 211 c 1,3,-1
 43 259 l 1,4,5
 81 259 81 259 102 289.5 c 128,-1,6
 123 320 123 320 123 364 c 2,7,-1
 123 594 l 2,8,9
 123 642 123 642 147 671 c 128,-1,10
 171 700 171 700 219 700 c 2,11,-1
 340 700 l 1,12,-1
 340 645 l 1,13,-1
 305 645 l 2,14,15
 278 645 278 645 265.5 631 c 128,-1,16
 253 617 253 617 253 585 c 2,17,-1
 253 365 l 2,18,19
 253 332 253 332 242.5 309 c 128,-1,20
 232 286 232 286 215.5 271.5 c 128,-1,21
 199 257 199 257 180 249.5 c 128,-1,22
 161 242 161 242 143 240 c 1,23,-1
 143 234 l 1,24,25
 160 232 160 232 179.5 224 c 128,-1,26
 199 216 199 216 215.5 200 c 128,-1,27
 232 184 232 184 242.5 160.5 c 128,-1,28
 253 137 253 137 253 105 c 2,29,-1
 253 -115 l 2,30,31
 253 -146 253 -146 265 -160.5 c 128,-1,32
 277 -175 277 -175 306 -175 c 2,33,-1
 340 -175 l 1,34,-1
 340 -230 l 1,35,-1
 219 -230 l 2,36,37
 174 -230 174 -230 148.5 -203.5 c 128,-1,38
 123 -177 123 -177 123 -125 c 2,39,-1
 123 102 l 2,0,1
EndSplineSet
Position2: "'case' Case-Sensitive Forms lookup 1 per glyph data 3" dx=0 dy=100 dh=0 dv=0
EndChar

StartChar: bar
Encoding: 124 124 95
Width: 235
Flags: W
LayerCount: 2
Fore
SplineSet
83 700 m 1,0,-1
 153 700 l 1,1,-1
 153 -130 l 1,2,-1
 83 -130 l 1,3,-1
 83 700 l 1,0,-1
EndSplineSet
EndChar

StartChar: braceright
Encoding: 125 125 96
Width: 354
Flags: W
LayerCount: 2
Fore
SplineSet
244 369 m 2,0,1
 244 318 244 318 265 289 c 128,-1,2
 286 260 286 260 324 260 c 1,3,-1
 324 212 l 1,4,5
 286 212 286 212 265 181.5 c 128,-1,6
 244 151 244 151 244 107 c 2,7,-1
 244 -124 l 2,8,9
 244 -172 244 -172 220 -201 c 128,-1,10
 196 -230 196 -230 148 -230 c 2,11,-1
 27 -230 l 1,12,-1
 27 -175 l 1,13,-1
 62 -175 l 2,14,15
 89 -175 89 -175 101.5 -161 c 128,-1,16
 114 -147 114 -147 114 -115 c 2,17,-1
 114 106 l 2,18,19
 114 139 114 139 123 162 c 128,-1,20
 132 185 132 185 146.5 199.5 c 128,-1,21
 161 214 161 214 178.5 221.5 c 128,-1,22
 196 229 196 229 214 231 c 1,23,-1
 214 237 l 1,24,25
 197 239 197 239 179 247 c 128,-1,26
 161 255 161 255 146.5 271 c 128,-1,27
 132 287 132 287 123 310.5 c 128,-1,28
 114 334 114 334 114 366 c 2,29,-1
 114 585 l 2,30,31
 114 616 114 616 102 630.5 c 128,-1,32
 90 645 90 645 61 645 c 2,33,-1
 27 645 l 1,34,-1
 27 700 l 1,35,-1
 149 700 l 2,36,37
 194 700 194 700 219 673.5 c 128,-1,38
 244 647 244 647 244 595 c 2,39,-1
 244 369 l 2,0,1
EndSplineSet
Position2: "'case' Case-Sensitive Forms lookup 1 per glyph data 3" dx=0 dy=100 dh=0 dv=0
EndChar

StartChar: asciitilde
Encoding: 126 126 97
Width: 530
Flags: W
LayerCount: 2
Fore
SplineSet
46 312 m 1,0,1
 73 370 73 370 113 400.5 c 128,-1,2
 153 431 153 431 190 431 c 0,3,4
 215 431 215 431 239 420.5 c 128,-1,5
 263 410 263 410 286 397 c 128,-1,6
 309 384 309 384 332.5 373.5 c 128,-1,7
 356 363 356 363 381 363 c 0,8,9
 399 363 399 363 418.5 370.5 c 128,-1,10
 438 378 438 378 458 397 c 1,11,-1
 481 367 l 1,12,13
 458 319 458 319 425 295.5 c 128,-1,14
 392 272 392 272 358 272 c 0,15,16
 332 272 332 272 307.5 282.5 c 128,-1,17
 283 293 283 293 259 306 c 128,-1,18
 235 319 235 319 211 329.5 c 128,-1,19
 187 340 187 340 163 340 c 0,20,21
 141 340 141 340 118.5 328 c 128,-1,22
 96 316 96 316 73 285 c 1,23,-1
 46 312 l 1,0,1
EndSplineSet
EndChar

StartChar: exclamdown
Encoding: 161 161 99
Width: 344
Flags: W
LayerCount: 2
Fore
SplineSet
172 286 m 1,0,-1
 222 92 l 1,1,-1
 222 -186 l 1,2,3
 211 -192 211 -192 191.5 -194.5 c 128,-1,4
 172 -197 172 -197 150 -197 c 128,-1,5
 128 -197 128 -197 108 -194.5 c 128,-1,6
 88 -192 88 -192 78 -186 c 1,7,-1
 78 92 l 1,8,-1
 128 286 l 1,9,-1
 172 286 l 1,0,-1
233 433 m 0,10,11
 233 396 233 396 210 374.5 c 128,-1,12
 187 353 187 353 149 353 c 256,13,14
 111 353 111 353 87 374.5 c 128,-1,15
 63 396 63 396 63 433 c 0,16,17
 63 469 63 469 87 490.5 c 128,-1,18
 111 512 111 512 149 512 c 256,19,20
 187 512 187 512 210 490.5 c 128,-1,21
 233 469 233 469 233 433 c 0,10,11
EndSplineSet
Position2: "'case' Case-Sensitive Forms lookup 1 per glyph data 3" dx=0 dy=100 dh=0 dv=0
EndChar

StartChar: cent
Encoding: 162 162 100
Width: 565
Flags: W
LayerCount: 2
Fore
SplineSet
521 81 m 1,0,1
 508 46 508 46 469 21 c 128,-1,2
 430 -4 430 -4 376 -9 c 1,3,-1
 376 -170 l 1,4,-1
 299 -170 l 1,5,-1
 299 -9 l 1,6,7
 178 4 178 4 117 72.5 c 128,-1,8
 56 141 56 141 56 250 c 0,9,10
 56 362 56 362 118.5 427.5 c 128,-1,11
 181 493 181 493 299 508 c 1,12,-1
 299 660 l 1,13,-1
 376 660 l 1,14,-1
 376 511 l 1,15,16
 421 509 421 509 458 499.5 c 128,-1,17
 495 490 495 490 521 477 c 1,18,19
 519 460 519 460 515.5 439.5 c 128,-1,20
 512 419 512 419 507.5 398.5 c 128,-1,21
 503 378 503 378 497 358.5 c 128,-1,22
 491 339 491 339 485 326 c 1,23,-1
 451 326 l 1,24,-1
 415 445 l 1,25,26
 410 447 410 447 404.5 449.5 c 128,-1,27
 399 452 399 452 385 453 c 2,28,-1
 369 454 l 1,29,-1
 369 70 l 1,30,31
 377 68 377 68 384.5 68 c 128,-1,32
 392 68 392 68 400 68 c 0,33,34
 435 68 435 68 461 78 c 128,-1,35
 487 88 487 88 505 102 c 1,36,-1
 521 81 l 1,0,1
211 258 m 0,37,38
 211 199 211 199 233.5 153.5 c 128,-1,39
 256 108 256 108 306 85 c 1,40,-1
 306 446 l 1,41,42
 265 431 265 431 238 387 c 128,-1,43
 211 343 211 343 211 258 c 0,37,38
EndSplineSet
EndChar

StartChar: sterling
Encoding: 163 163 101
Width: 565
Flags: W
LayerCount: 2
Fore
SplineSet
40 375 m 1,0,-1
 117 375 l 1,1,2
 97 406 97 406 81 443.5 c 128,-1,3
 65 481 65 481 65 534 c 0,4,5
 65 576 65 576 82 609 c 128,-1,6
 99 642 99 642 129 665 c 128,-1,7
 159 688 159 688 200.5 700 c 128,-1,8
 242 712 242 712 292 712 c 0,9,10
 322 712 322 712 354 708.5 c 128,-1,11
 386 705 386 705 414.5 700 c 128,-1,12
 443 695 443 695 467 688 c 128,-1,13
 491 681 491 681 505 674 c 1,14,15
 504 658 504 658 500.5 634 c 128,-1,16
 497 610 497 610 492.5 584.5 c 128,-1,17
 488 559 488 559 482 535 c 128,-1,18
 476 511 476 511 471 494 c 1,19,-1
 437 494 l 1,20,-1
 397 631 l 1,21,22
 361 647 361 647 308 647 c 0,23,24
 270 647 270 647 246 628.5 c 128,-1,25
 222 610 222 610 216 574 c 0,26,27
 212 555 212 555 215 532 c 0,28,29
 218 510 218 510 224 490 c 128,-1,30
 230 470 230 470 238.5 451 c 128,-1,31
 247 432 247 432 255.5 413 c 128,-1,32
 264 394 264 394 272 375 c 1,33,-1
 397 375 l 1,34,-1
 397 314 l 1,35,-1
 289 314 l 1,36,37
 293 283 293 283 285.5 259 c 128,-1,38
 278 235 278 235 266 212 c 1,39,40
 262 192 262 192 251.5 173 c 128,-1,41
 241 154 241 154 223 140 c 2,42,-1
 190 116 l 1,43,-1
 190 112 l 1,44,-1
 241 118 l 1,45,-1
 418 118 l 1,46,-1
 467 230 l 1,47,-1
 501 230 l 1,48,49
 504 207 504 207 507.5 175 c 128,-1,50
 511 143 511 143 514 110 c 128,-1,51
 517 77 517 77 519 47.5 c 128,-1,52
 521 18 521 18 521 0 c 1,53,-1
 43 0 l 1,54,-1
 43 54 l 1,55,56
 101 79 101 79 132 113.5 c 128,-1,57
 163 148 163 148 168 200 c 0,58,59
 170 211 170 211 170 221.5 c 128,-1,60
 170 232 170 232 170 243 c 1,61,62
 168 263 168 263 163.5 280.5 c 128,-1,63
 159 298 159 298 153 314 c 1,64,-1
 40 314 l 1,65,-1
 40 375 l 1,0,-1
EndSplineSet
EndChar

StartChar: currency
Encoding: 164 164 102
Width: 565
Flags: W
LayerCount: 2
Fore
SplineSet
36 178 m 1,0,-1
 111 252 l 1,1,-1
 151 266 l 1,2,3
 138 283 138 283 132.5 301.5 c 128,-1,4
 127 320 127 320 127 346 c 0,5,6
 127 392 127 392 151 425 c 1,7,-1
 111 440 l 1,8,-1
 37 514 l 1,9,-1
 115 592 l 1,10,-1
 188 518 l 1,11,-1
 204 478 l 1,12,13
 220 489 220 489 238 495 c 128,-1,14
 256 501 256 501 282 501 c 0,15,16
 334 500 334 500 362 479 c 1,17,-1
 378 518 l 1,18,-1
 450 590 l 1,19,-1
 528 513 l 1,20,-1
 454 440 l 1,21,-1
 416 426 l 1,22,23
 426 409 426 409 431 390 c 128,-1,24
 436 371 436 371 437 345 c 1,25,26
 437 300 437 300 416 266 c 1,27,-1
 454 252 l 1,28,-1
 527 178 l 1,29,-1
 449 100 l 1,30,-1
 376 173 l 1,31,-1
 362 212 l 1,32,33
 347 203 347 203 326.5 197 c 128,-1,34
 306 191 306 191 283 191 c 0,35,36
 257 192 257 192 237.5 197.5 c 128,-1,37
 218 203 218 203 202 212 c 1,38,-1
 188 174 l 1,39,-1
 114 100 l 1,40,-1
 36 178 l 1,0,-1
282 264 m 256,41,42
 318 264 318 264 342.5 287 c 128,-1,43
 367 310 367 310 367 346 c 256,44,45
 367 382 367 382 342.5 405.5 c 128,-1,46
 318 429 318 429 282 429 c 0,47,48
 246 430 246 430 221.5 406 c 128,-1,49
 197 382 197 382 197 346 c 256,50,51
 197 310 197 310 221.5 287 c 128,-1,52
 246 264 246 264 282 264 c 256,41,42
EndSplineSet
EndChar

StartChar: yen
Encoding: 165 165 103
Width: 565
Flags: W
LayerCount: 2
Fore
SplineSet
379 700 m 1,0,-1
 619 700 l 1,1,-1
 619 662 l 1,2,3
 605 653 605 653 583.5 644.5 c 128,-1,4
 562 636 562 636 543 633 c 1,5,-1
 392 342 l 1,6,-1
 509 342 l 1,7,-1
 509 277 l 1,8,-1
 367 277 l 1,9,-1
 367 220 l 1,10,-1
 509 220 l 1,11,-1
 509 155 l 1,12,-1
 367 155 l 1,13,-1
 367 67 l 1,14,15
 386 65 386 65 406 56.5 c 128,-1,16
 426 48 426 48 443 38 c 1,17,-1
 443 0 l 1,18,-1
 135 0 l 1,19,-1
 135 38 l 1,20,21
 152 47 152 47 173 55 c 128,-1,22
 194 63 194 63 217 67 c 1,23,-1
 217 155 l 1,24,-1
 74 155 l 1,25,-1
 74 220 l 1,26,-1
 217 220 l 1,27,-1
 217 277 l 1,28,-1
 74 277 l 1,29,-1
 74 342 l 1,30,-1
 189 342 l 1,31,-1
 26 633 l 1,32,33
 3 637 3 637 -17.5 645 c 128,-1,34
 -38 653 -38 653 -55 662 c 1,35,-1
 -55 700 l 1,36,-1
 273 700 l 1,37,-1
 273 662 l 1,38,39
 260 654 260 654 241.5 646 c 128,-1,40
 223 638 223 638 199 633 c 1,41,-1
 331 351 l 1,42,-1
 459 633 l 1,43,44
 436 638 436 638 415.5 646 c 128,-1,45
 395 654 395 654 379 662 c 1,46,-1
 379 700 l 1,0,-1
EndSplineSet
EndChar

StartChar: brokenbar
Encoding: 166 166 104
Width: 235
Flags: W
LayerCount: 2
Fore
SplineSet
83 190 m 1,0,-1
 153 190 l 1,1,-1
 153 -130 l 1,2,-1
 83 -130 l 1,3,-1
 83 190 l 1,0,-1
153 380 m 1,4,-1
 83 380 l 1,5,-1
 83 700 l 1,6,-1
 153 700 l 1,7,-1
 153 380 l 1,4,-1
EndSplineSet
EndChar

StartChar: section
Encoding: 167 167 105
Width: 566
Flags: W
LayerCount: 2
Fore
SplineSet
338 39 m 0,0,1
 338 66 338 66 317 84 c 128,-1,2
 296 102 296 102 264.5 115.5 c 128,-1,3
 233 129 233 129 196 143 c 128,-1,4
 159 157 159 157 127.5 176.5 c 128,-1,5
 96 196 96 196 75 224.5 c 128,-1,6
 54 253 54 253 54 298 c 0,7,8
 54 348 54 348 92.5 383 c 128,-1,9
 131 418 131 418 189 441 c 1,10,11
 168 452 168 452 150 465 c 128,-1,12
 132 478 132 478 118.5 494.5 c 128,-1,13
 105 511 105 511 97 532 c 128,-1,14
 89 553 89 553 89 580 c 0,15,16
 89 640 89 640 140.5 676 c 128,-1,17
 192 712 192 712 276 712 c 0,18,19
 330 712 330 712 373.5 704 c 128,-1,20
 417 696 417 696 453 685 c 1,21,22
 449 653 449 653 442 626.5 c 128,-1,23
 435 600 435 600 424 570 c 1,24,-1
 390 570 l 1,25,-1
 338 647 l 1,26,27
 326 652 326 652 315.5 653.5 c 128,-1,28
 305 655 305 655 289 655 c 0,29,30
 255 655 255 655 239 637.5 c 128,-1,31
 223 620 223 620 223 598 c 0,32,33
 223 571 223 571 244.5 552.5 c 128,-1,34
 266 534 266 534 298 518.5 c 128,-1,35
 330 503 330 503 367.5 487.5 c 128,-1,36
 405 472 405 472 437 451.5 c 128,-1,37
 469 431 469 431 490.5 402.5 c 128,-1,38
 512 374 512 374 512 333 c 0,39,40
 512 307 512 307 500.5 285 c 128,-1,41
 489 263 489 263 471 244.5 c 128,-1,42
 453 226 453 226 430 211.5 c 128,-1,43
 407 197 407 197 385 186 c 1,44,45
 421 166 421 166 446.5 139 c 128,-1,46
 472 112 472 112 472 68 c 0,47,48
 472 -2 472 -2 417 -42 c 128,-1,49
 362 -82 362 -82 261 -82 c 0,50,51
 213 -82 213 -82 164.5 -72 c 128,-1,52
 116 -62 116 -62 79 -44 c 1,53,54
 81 -8 81 -8 91 16.5 c 128,-1,55
 101 41 101 41 118 70 c 1,56,-1
 152 70 l 1,57,-1
 211 -14 l 1,58,59
 222 -22 222 -22 233 -23.5 c 128,-1,60
 244 -25 244 -25 256 -25 c 0,61,62
 288 -25 288 -25 313 -8 c 128,-1,63
 338 9 338 9 338 39 c 0,0,1
378 301 m 256,64,65
 378 323 378 323 366.5 340 c 128,-1,66
 355 357 355 357 336.5 370 c 128,-1,67
 318 383 318 383 293.5 393.5 c 128,-1,68
 269 404 269 404 243 415 c 1,69,70
 221 399 221 399 204.5 376 c 128,-1,71
 188 353 188 353 188 328 c 0,72,73
 188 306 188 306 200 289.5 c 128,-1,74
 212 273 212 273 231.5 260 c 128,-1,75
 251 247 251 247 276 236.5 c 128,-1,76
 301 226 301 226 327 215 c 1,77,78
 347 232 347 232 362.5 255.5 c 128,-1,79
 378 279 378 279 378 301 c 256,64,65
EndSplineSet
EndChar

StartChar: dieresis
Encoding: 168 168 106
Width: 505
Flags: W
LayerCount: 2
Fore
SplineSet
60 659 m 0,0,1
 60 691 60 691 80 710 c 128,-1,2
 100 729 100 729 133 729 c 0,3,4
 165 729 165 729 185.5 710 c 128,-1,5
 206 691 206 691 206 659 c 0,6,7
 206 629 206 629 185.5 610 c 128,-1,8
 165 591 165 591 133 591 c 0,9,10
 100 591 100 591 80 610 c 128,-1,11
 60 629 60 629 60 659 c 0,0,1
299 659 m 0,12,13
 299 691 299 691 319 710 c 128,-1,14
 339 729 339 729 371 729 c 0,15,16
 404 729 404 729 424.5 710 c 128,-1,17
 445 691 445 691 445 659 c 0,18,19
 445 629 445 629 424.5 610 c 128,-1,20
 404 591 404 591 371 591 c 0,21,22
 339 591 339 591 319 610 c 128,-1,23
 299 629 299 629 299 659 c 0,12,13
EndSplineSet
EndChar

StartChar: copyright
Encoding: 169 169 107
Width: 819
Flags: W
LayerCount: 2
Fore
SplineSet
55 290 m 256,0,1
 55 373 55 373 84.5 438.5 c 128,-1,2
 114 504 114 504 163.5 549 c 128,-1,3
 213 594 213 594 276.5 618 c 128,-1,4
 340 642 340 642 409 642 c 256,5,6
 478 642 478 642 541.5 618 c 128,-1,7
 605 594 605 594 654.5 549 c 128,-1,8
 704 504 704 504 733.5 438.5 c 128,-1,9
 763 373 763 373 763 290 c 256,10,11
 763 207 763 207 733.5 141.5 c 128,-1,12
 704 76 704 76 654.5 31 c 128,-1,13
 605 -14 605 -14 541.5 -38 c 128,-1,14
 478 -62 478 -62 409 -62 c 0,15,16
 337 -62 337 -62 272.5 -38 c 128,-1,17
 208 -14 208 -14 159.5 31 c 128,-1,18
 111 76 111 76 83 141.5 c 128,-1,19
 55 207 55 207 55 290 c 256,0,1
122 290 m 256,20,21
 122 223 122 223 145 169 c 128,-1,22
 168 115 168 115 207 77.5 c 128,-1,23
 246 40 246 40 298 19.5 c 128,-1,24
 350 -1 350 -1 409 -1 c 0,25,26
 470 -1 470 -1 522.5 19.5 c 128,-1,27
 575 40 575 40 613.5 77.5 c 128,-1,28
 652 115 652 115 674 169 c 128,-1,29
 696 223 696 223 696 290 c 0,30,31
 696 359 696 359 672 413 c 128,-1,32
 648 467 648 467 608.5 504.5 c 128,-1,33
 569 542 569 542 517 561.5 c 128,-1,34
 465 581 465 581 409 581 c 0,35,36
 346 581 346 581 293.5 560.5 c 128,-1,37
 241 540 241 540 203 502.5 c 128,-1,38
 165 465 165 465 143.5 411 c 128,-1,39
 122 357 122 357 122 290 c 256,20,21
515 220 m 1,40,-1
 549 220 l 1,41,42
 551 212 551 212 553.5 199.5 c 128,-1,43
 556 187 556 187 557.5 172 c 128,-1,44
 559 157 559 157 559.5 142 c 128,-1,45
 560 127 560 127 559 115 c 1,46,47
 542 101 542 101 506.5 91.5 c 128,-1,48
 471 82 471 82 430 82 c 0,49,50
 381 82 381 82 340.5 95.5 c 128,-1,51
 300 109 300 109 270.5 135.5 c 128,-1,52
 241 162 241 162 224.5 201 c 128,-1,53
 208 240 208 240 208 291 c 0,54,55
 208 343 208 343 226.5 382 c 128,-1,56
 245 421 245 421 274.5 447 c 128,-1,57
 304 473 304 473 341.5 486.5 c 128,-1,58
 379 500 379 500 417 500 c 0,59,60
 465 500 465 500 500 491.5 c 128,-1,61
 535 483 535 483 556 470 c 1,62,63
 557 461 557 461 556 446 c 128,-1,64
 555 431 555 431 553 414.5 c 128,-1,65
 551 398 551 398 548.5 382 c 128,-1,66
 546 366 546 366 543 356 c 1,67,-1
 509 356 l 1,68,-1
 479 439 l 1,69,70
 472 444 472 444 460 444.5 c 128,-1,71
 448 445 448 445 436 445 c 0,72,73
 391 445 391 445 367 407 c 128,-1,74
 343 369 343 369 343 291 c 0,75,76
 343 258 343 258 348.5 229.5 c 128,-1,77
 354 201 354 201 366 180.5 c 128,-1,78
 378 160 378 160 397 148.5 c 128,-1,79
 416 137 416 137 443 137 c 0,80,81
 459 137 459 137 471 139.5 c 128,-1,82
 483 142 483 142 487 146 c 1,83,-1
 515 220 l 1,40,-1
EndSplineSet
EndChar

StartChar: ordfeminine
Encoding: 170 170 108
Width: 460
Flags: W
LayerCount: 2
Fore
SplineSet
99 596 m 1,0,1
 89 607 89 607 80 629 c 128,-1,2
 71 651 71 651 70 672 c 1,3,4
 95 685 95 685 138 696.5 c 128,-1,5
 181 708 181 708 257 708 c 0,6,7
 296 708 296 708 321 701.5 c 128,-1,8
 346 695 346 695 361 682 c 128,-1,9
 376 669 376 669 382 650 c 128,-1,10
 388 631 388 631 388 607 c 0,11,12
 388 569 388 569 386.5 526 c 128,-1,13
 385 483 385 483 385 451 c 1,14,-1
 435 441 l 1,15,-1
 435 406 l 1,16,17
 426 401 426 401 410.5 396.5 c 128,-1,18
 395 392 395 392 377.5 388 c 128,-1,19
 360 384 360 384 343.5 381.5 c 128,-1,20
 327 379 327 379 316 378 c 1,21,-1
 290 378 l 1,22,23
 283 395 283 395 280.5 409.5 c 128,-1,24
 278 424 278 424 277 441 c 1,25,-1
 273 441 l 1,26,27
 268 432 268 432 259 420.5 c 128,-1,28
 250 409 250 409 235.5 399 c 128,-1,29
 221 389 221 389 201 382.5 c 128,-1,30
 181 376 181 376 154 376 c 0,31,32
 104 376 104 376 74.5 401.5 c 128,-1,33
 45 427 45 427 45 471 c 0,34,35
 45 502 45 502 61.5 521.5 c 128,-1,36
 78 541 78 541 105.5 552 c 128,-1,37
 133 563 133 563 169 567.5 c 128,-1,38
 205 572 205 572 245 572 c 0,39,40
 252 572 252 572 258.5 571.5 c 128,-1,41
 265 571 265 571 272 571 c 1,42,43
 273 577 273 577 273 587.5 c 128,-1,44
 273 598 273 598 273 603 c 0,45,46
 273 626 273 626 261 641.5 c 128,-1,47
 249 657 249 657 215 657 c 0,48,49
 204 657 204 657 190.5 655 c 128,-1,50
 177 653 177 653 163 648 c 1,51,-1
 135 596 l 1,52,-1
 99 596 l 1,0,1
205 431 m 0,53,54
 233 431 233 431 249 448.5 c 128,-1,55
 265 466 265 466 272 482 c 1,56,-1
 272 533 l 1,57,58
 263 534 263 534 254.5 534.5 c 128,-1,59
 246 535 246 535 238 535 c 0,60,61
 206 535 206 535 184 523 c 128,-1,62
 162 511 162 511 162 480 c 0,63,64
 162 461 162 461 173 446 c 128,-1,65
 184 431 184 431 205 431 c 0,53,54
EndSplineSet
EndChar

StartChar: guillemotleft
Encoding: 171 171 109
Width: 505
Flags: W
LayerCount: 2
Fore
SplineSet
236 259 m 1,0,-1
 414 481 l 1,1,-1
 457 445 l 1,2,-1
 351 266 l 1,3,-1
 463 77 l 1,4,-1
 421 41 l 1,5,-1
 236 259 l 1,0,-1
20 259 m 1,6,-1
 260 482 l 1,7,-1
 299 446 l 1,8,-1
 155 265 l 1,9,-1
 305 76 l 1,10,-1
 266 39 l 1,11,-1
 20 259 l 1,6,-1
EndSplineSet
Position2: "'case' Case-Sensitive Forms lookup 1 per glyph data 3" dx=0 dy=100 dh=0 dv=0
EndChar

StartChar: logicalnot
Encoding: 172 172 110
Width: 565
Flags: W
LayerCount: 2
Fore
SplineSet
65 401 m 1,0,-1
 499 401 l 1,1,-1
 499 185 l 1,2,-1
 419 185 l 1,3,-1
 419 311 l 1,4,-1
 65 311 l 1,5,-1
 65 401 l 1,0,-1
EndSplineSet
EndChar

StartChar: registered
Encoding: 174 174 112
Width: 703
Flags: W
LayerCount: 2
Fore
SplineSet
69 451 m 256,0,1
 69 517 69 517 92 569 c 128,-1,2
 115 621 115 621 154 657 c 128,-1,3
 193 693 193 693 244 712 c 128,-1,4
 295 731 295 731 351 731 c 0,5,6
 408 731 408 731 459.5 712 c 128,-1,7
 511 693 511 693 549.5 657 c 128,-1,8
 588 621 588 621 610.5 569 c 128,-1,9
 633 517 633 517 633 451 c 256,10,11
 633 385 633 385 610 333 c 128,-1,12
 587 281 587 281 548 245 c 128,-1,13
 509 209 509 209 458 190 c 128,-1,14
 407 171 407 171 351 171 c 0,15,16
 294 171 294 171 242.5 190 c 128,-1,17
 191 209 191 209 152.5 245 c 128,-1,18
 114 281 114 281 91.5 333 c 128,-1,19
 69 385 69 385 69 451 c 256,0,1
131 451 m 256,20,21
 131 399 131 399 148.5 357.5 c 128,-1,22
 166 316 166 316 196 286.5 c 128,-1,23
 226 257 226 257 266 241.5 c 128,-1,24
 306 226 306 226 351 226 c 0,25,26
 398 226 398 226 438.5 241.5 c 128,-1,27
 479 257 479 257 508.5 286 c 128,-1,28
 538 315 538 315 554.5 356.5 c 128,-1,29
 571 398 571 398 571 451 c 0,30,31
 571 503 571 503 553.5 544.5 c 128,-1,32
 536 586 536 586 506 615 c 128,-1,33
 476 644 476 644 436 660 c 128,-1,34
 396 676 396 676 351 676 c 0,35,36
 303 676 303 676 263 660 c 128,-1,37
 223 644 223 644 193.5 615 c 128,-1,38
 164 586 164 586 147.5 544.5 c 128,-1,39
 131 503 131 503 131 451 c 256,20,21
320 351 m 1,40,41
 333 350 333 350 340 347.5 c 128,-1,42
 347 345 347 345 354 342 c 1,43,-1
 354 309 l 1,44,-1
 216 309 l 1,45,-1
 216 342 l 1,46,47
 233 348 233 348 251 351 c 1,48,-1
 251 566 l 1,49,50
 240 567 240 567 232 569.5 c 128,-1,51
 224 572 224 572 216 577 c 1,52,-1
 216 608 l 1,53,-1
 268 608 l 2,54,55
 286 608 286 608 311 610 c 128,-1,56
 336 612 336 612 352 612 c 0,57,58
 406 612 406 612 440 592.5 c 128,-1,59
 474 573 474 573 474 528 c 0,60,61
 474 497 474 497 455 477.5 c 128,-1,62
 436 458 436 458 408 449 c 1,63,64
 417 434 417 434 424.5 422 c 128,-1,65
 432 410 432 410 440 398.5 c 128,-1,66
 448 387 448 387 458.5 375.5 c 128,-1,67
 469 364 469 364 483 351 c 1,68,-1
 506 339 l 1,69,-1
 506 309 l 1,70,-1
 442 309 l 1,71,-1
 414 320 l 1,72,73
 389 350 389 350 376.5 380 c 128,-1,74
 364 410 364 410 353 439 c 1,75,-1
 320 439 l 1,76,-1
 320 351 l 1,40,41
347 571 m 0,77,78
 336 571 336 571 331 570.5 c 128,-1,79
 326 570 326 570 320 568 c 1,80,-1
 320 477 l 1,81,-1
 349 477 l 2,82,83
 373 477 373 477 386 489 c 128,-1,84
 399 501 399 501 398 528 c 0,85,86
 397 551 397 551 383.5 561 c 128,-1,87
 370 571 370 571 347 571 c 0,77,78
EndSplineSet
EndChar

StartChar: macron
Encoding: 175 175 113
Width: 414
Flags: W
LayerCount: 2
Fore
SplineSet
60 619 m 1,0,-1
 60 689 l 1,1,-1
 354 689 l 1,2,-1
 354 619 l 1,3,-1
 60 619 l 1,0,-1
EndSplineSet
EndChar

StartChar: degree
Encoding: 176 176 114
Width: 413
Flags: W
LayerCount: 2
Fore
SplineSet
69 571 m 0,0,1
 69 602 69 602 80.5 628 c 128,-1,2
 92 654 92 654 111.5 672.5 c 128,-1,3
 131 691 131 691 157.5 701.5 c 128,-1,4
 184 712 184 712 213 712 c 256,5,6
 242 712 242 712 268.5 703 c 128,-1,7
 295 694 295 694 314.5 676.5 c 128,-1,8
 334 659 334 659 345.5 632.5 c 128,-1,9
 357 606 357 606 357 571 c 0,10,11
 357 538 357 538 345.5 512 c 128,-1,12
 334 486 334 486 314.5 467.5 c 128,-1,13
 295 449 295 449 268.5 439.5 c 128,-1,14
 242 430 242 430 213 430 c 256,15,16
 184 430 184 430 157.5 439.5 c 128,-1,17
 131 449 131 449 111.5 467.5 c 128,-1,18
 92 486 92 486 80.5 512 c 128,-1,19
 69 538 69 538 69 571 c 0,0,1
138 571 m 256,20,21
 138 533 138 533 161 512 c 128,-1,22
 184 491 184 491 213 491 c 0,23,24
 245 491 245 491 266.5 510.5 c 128,-1,25
 288 530 288 530 288 571 c 0,26,27
 288 610 288 610 266.5 630.5 c 128,-1,28
 245 651 245 651 213 651 c 0,29,30
 180 651 180 651 159 630 c 128,-1,31
 138 609 138 609 138 571 c 256,20,21
EndSplineSet
EndChar

StartChar: plusminus
Encoding: 177 177 115
Width: 565
Flags: W
LayerCount: 2
Fore
SplineSet
57 504 m 1,0,-1
 242 504 l 1,1,-1
 242 700 l 1,2,-1
 322 700 l 1,3,-1
 322 504 l 1,4,-1
 507 504 l 1,5,-1
 507 424 l 1,6,-1
 322 424 l 1,7,-1
 322 292 l 1,8,-1
 242 292 l 1,9,-1
 242 424 l 1,10,-1
 57 424 l 1,11,-1
 57 504 l 1,0,-1
57 244 m 1,12,-1
 507 244 l 1,13,-1
 507 164 l 1,14,-1
 57 164 l 1,15,-1
 57 244 l 1,12,-1
EndSplineSet
EndChar

StartChar: twosuperior
Encoding: 178 178 116
Width: 440
Flags: W
LayerCount: 2
Fore
SplineSet
114 621 m 1,0,-1
 87 621 l 1,1,2
 81 633 81 633 73 653.5 c 128,-1,3
 65 674 65 674 58.5 695.5 c 128,-1,4
 52 717 52 717 47 736 c 128,-1,5
 42 755 42 755 41 765 c 1,6,7
 73 783 73 783 119.5 798 c 128,-1,8
 166 813 166 813 221 813 c 0,9,10
 304 813 304 813 341.5 780.5 c 128,-1,11
 379 748 379 748 379 697 c 0,12,13
 379 664 379 664 363 632 c 128,-1,14
 347 600 347 600 318.5 571 c 128,-1,15
 290 542 290 542 250 515.5 c 128,-1,16
 210 489 210 489 162 466 c 1,17,-1
 162 460 l 1,18,-1
 193 467 l 1,19,-1
 312 467 l 1,20,-1
 356 534 l 1,21,-1
 387 534 l 1,22,23
 390 517 390 517 393 495 c 128,-1,24
 396 473 396 473 398 452 c 128,-1,25
 400 431 400 431 400.5 413.5 c 128,-1,26
 401 396 401 396 401 386 c 1,27,-1
 44 386 l 1,28,-1
 44 437 l 1,29,30
 85 460 85 460 123.5 488.5 c 128,-1,31
 162 517 162 517 192 548 c 128,-1,32
 222 579 222 579 240.5 611.5 c 128,-1,33
 259 644 259 644 259 675 c 0,34,35
 259 705 259 705 244.5 721.5 c 128,-1,36
 230 738 230 738 195 738 c 0,37,38
 165 738 165 738 143 726 c 1,39,-1
 114 621 l 1,0,-1
EndSplineSet
EndChar

StartChar: threesuperior
Encoding: 179 179 117
Width: 440
Flags: W
LayerCount: 2
Fore
SplineSet
207 437 m 0,0,1
 245 437 245 437 262.5 459.5 c 128,-1,2
 280 482 280 482 280 508 c 0,3,4
 280 539 280 539 261 556.5 c 128,-1,5
 242 574 242 574 199 574 c 2,6,-1
 161 574 l 1,7,-1
 161 609 l 1,8,-1
 238 695 l 1,9,-1
 282 737 l 1,10,-1
 282 739 l 1,11,-1
 220 735 l 1,12,-1
 149 735 l 1,13,-1
 109 652 l 1,14,-1
 78 652 l 1,15,16
 72 665 72 665 67 686 c 128,-1,17
 62 707 62 707 58.5 729.5 c 128,-1,18
 55 752 55 752 52.5 772.5 c 128,-1,19
 50 793 50 793 50 804 c 1,20,-1
 384 804 l 1,21,-1
 384 759 l 1,22,-1
 282 658 l 1,23,-1
 245 627 l 1,24,-1
 245 626 l 1,25,-1
 276 630 l 1,26,27
 300 630 300 630 322 622.5 c 128,-1,28
 344 615 344 615 361.5 600.5 c 128,-1,29
 379 586 379 586 389.5 564 c 128,-1,30
 400 542 400 542 400 513 c 0,31,32
 400 448 400 448 350.5 412.5 c 128,-1,33
 301 377 301 377 200 377 c 0,34,35
 180 377 180 377 157 380.5 c 128,-1,36
 134 384 134 384 112 390.5 c 128,-1,37
 90 397 90 397 71 405.5 c 128,-1,38
 52 414 52 414 39 423 c 1,39,-1
 73 529 l 1,40,-1
 100 529 l 1,41,42
 105 524 105 524 111 514 c 128,-1,43
 117 504 117 504 124 492.5 c 128,-1,44
 131 481 131 481 137.5 469 c 128,-1,45
 144 457 144 457 149 447 c 1,46,47
 158 444 158 444 172.5 440.5 c 128,-1,48
 187 437 187 437 207 437 c 0,0,1
EndSplineSet
EndChar

StartChar: acute
Encoding: 180 180 118
Width: 351
Flags: W
LayerCount: 2
Fore
SplineSet
168 763 m 1,0,1
 176 765 176 765 194.5 764.5 c 128,-1,2
 213 764 213 764 233 761 c 128,-1,3
 253 758 253 758 269.5 752.5 c 128,-1,4
 286 747 286 747 291 741 c 1,5,-1
 291 717 l 1,6,-1
 100 562 l 1,7,-1
 60 584 l 1,8,-1
 168 763 l 1,0,1
EndSplineSet
EndChar

StartChar: mu
Encoding: 181 181 119
AltUni2: 0003bc.ffffffff.0
Width: 622
Flags: W
LayerCount: 2
Fore
SplineSet
150 13 m 1,0,-1
 199 -161 l 1,1,-1
 199 -200 l 1,2,3
 163 -208 163 -208 131.5 -208 c 128,-1,4
 100 -208 100 -208 71 -200 c 1,5,-1
 71 429 l 1,6,-1
 11 437 l 1,7,-1
 11 476 l 1,8,9
 27 482 27 482 50.5 488 c 128,-1,10
 74 494 74 494 99 498.5 c 128,-1,11
 124 503 124 503 147.5 506.5 c 128,-1,12
 171 510 171 510 187 512 c 1,13,-1
 221 512 l 1,14,15
 221 437 221 437 218 364.5 c 128,-1,16
 215 292 215 292 215 222 c 0,17,18
 215 140 215 140 231.5 104 c 128,-1,19
 248 68 248 68 293 68 c 0,20,21
 324 68 324 68 351 91.5 c 128,-1,22
 378 115 378 115 395 167 c 1,23,-1
 395 429 l 1,24,-1
 329 437 l 1,25,-1
 329 476 l 1,26,27
 344 482 344 482 366.5 488 c 128,-1,28
 389 494 389 494 414 498.5 c 128,-1,29
 439 503 439 503 463 506.5 c 128,-1,30
 487 510 487 510 505 512 c 1,31,-1
 539 512 l 1,32,-1
 539 71 l 1,33,-1
 605 63 l 1,34,-1
 605 28 l 1,35,36
 591 22 591 22 570 16 c 128,-1,37
 549 10 549 10 525.5 4.5 c 128,-1,38
 502 -1 502 -1 479.5 -4.5 c 128,-1,39
 457 -8 457 -8 439 -10 c 1,40,-1
 405 -10 l 1,41,-1
 398 109 l 1,42,-1
 394 109 l 1,43,44
 389 88 389 88 376.5 66.5 c 128,-1,45
 364 45 364 45 344 27.5 c 128,-1,46
 324 10 324 10 298 -1 c 128,-1,47
 272 -12 272 -12 242 -12 c 0,48,49
 214 -12 214 -12 191.5 -5 c 128,-1,50
 169 2 169 2 155 13 c 1,51,-1
 150 13 l 1,0,-1
EndSplineSet
EndChar

StartChar: paragraph
Encoding: 182 182 120
Width: 547
Flags: W
LayerCount: 2
Fore
SplineSet
411 94 m 2,0,1
 411 27 411 27 401 -16.5 c 128,-1,2
 391 -60 391 -60 371.5 -86.5 c 128,-1,3
 352 -113 352 -113 323.5 -126.5 c 128,-1,4
 295 -140 295 -140 258 -148 c 1,5,6
 238 -177 238 -177 208.5 -191.5 c 128,-1,7
 179 -206 179 -206 148 -212 c 1,8,-1
 132 -179 l 1,9,10
 154 -170 154 -170 173.5 -156.5 c 128,-1,11
 193 -143 193 -143 207 -120.5 c 128,-1,12
 221 -98 221 -98 229.5 -63 c 128,-1,13
 238 -28 238 -28 238 24 c 2,14,-1
 238 310 l 1,15,16
 206 310 206 310 174.5 320 c 128,-1,17
 143 330 143 330 117.5 352.5 c 128,-1,18
 92 375 92 375 76 411.5 c 128,-1,19
 60 448 60 448 60 500 c 0,20,21
 60 542 60 542 72.5 578.5 c 128,-1,22
 85 615 85 615 109.5 642 c 128,-1,23
 134 669 134 669 172 684.5 c 128,-1,24
 210 700 210 700 261 700 c 2,25,-1
 487 700 l 1,26,-1
 487 657 l 1,27,28
 470 649 470 649 452 643 c 128,-1,29
 434 637 434 637 411 633 c 1,30,-1
 411 94 l 2,0,1
278 -111 m 1,31,32
 319 -98 319 -98 333 -46.5 c 128,-1,33
 347 5 347 5 347 94 c 2,34,-1
 347 638 l 1,35,-1
 303 638 l 1,36,-1
 303 24 l 2,37,38
 303 -16 303 -16 297.5 -50.5 c 128,-1,39
 292 -85 292 -85 278 -111 c 1,31,32
EndSplineSet
EndChar

StartChar: cedilla
Encoding: 184 184 122
Width: 318
Flags: W
LayerCount: 2
Fore
SplineSet
134 -68 m 1,0,1
 194 -71 194 -71 225.5 -89.5 c 128,-1,2
 257 -108 257 -108 258 -144 c 0,3,4
 258 -173 258 -173 241 -194 c 128,-1,5
 224 -215 224 -215 196 -229 c 128,-1,6
 168 -243 168 -243 133 -250 c 128,-1,7
 98 -257 98 -257 63 -257 c 1,8,-1
 63 -218 l 1,9,10
 133 -207 133 -207 133 -161 c 1,11,12
 132 -138 132 -138 113.5 -128 c 128,-1,13
 95 -118 95 -118 60 -114 c 1,14,-1
 101 1 l 1,15,-1
 160 1 l 1,16,-1
 134 -68 l 1,0,1
EndSplineSet
EndChar

StartChar: onesuperior
Encoding: 185 185 123
Width: 440
Flags: W
LayerCount: 2
Fore
SplineSet
385 386 m 1,0,-1
 72 386 l 1,1,-1
 72 416 l 1,2,3
 99 430 99 430 123.5 440 c 128,-1,4
 148 450 148 450 173 455 c 1,5,-1
 173 670 l 1,6,-1
 177 715 l 1,7,8
 153 708 153 708 120.5 707.5 c 128,-1,9
 88 707 88 707 65 709 c 1,10,-1
 65 751 l 1,11,12
 111 757 111 757 160 775 c 128,-1,13
 209 793 209 793 245 813 c 1,14,-1
 285 813 l 1,15,-1
 285 455 l 1,16,17
 340 442 340 442 385 416 c 1,18,-1
 385 386 l 1,0,-1
EndSplineSet
EndChar

StartChar: ordmasculine
Encoding: 186 186 124
Width: 458
Flags: W
LayerCount: 2
Fore
SplineSet
37 542 m 0,0,1
 37 581 37 581 51 612 c 128,-1,2
 65 643 65 643 90.5 665.5 c 128,-1,3
 116 688 116 688 151 700 c 128,-1,4
 186 712 186 712 229 712 c 256,5,6
 272 712 272 712 307.5 701.5 c 128,-1,7
 343 691 343 691 368 670 c 128,-1,8
 393 649 393 649 407 617 c 128,-1,9
 421 585 421 585 421 542 c 0,10,11
 421 503 421 503 407 471.5 c 128,-1,12
 393 440 393 440 368 418 c 128,-1,13
 343 396 343 396 307.5 384 c 128,-1,14
 272 372 272 372 229 372 c 256,15,16
 186 372 186 372 151 382.5 c 128,-1,17
 116 393 116 393 90.5 414 c 128,-1,18
 65 435 65 435 51 467 c 128,-1,19
 37 499 37 499 37 542 c 0,0,1
157 542 m 0,20,21
 157 423 157 423 229 423 c 0,22,23
 264 423 264 423 282.5 449.5 c 128,-1,24
 301 476 301 476 301 542 c 256,25,26
 301 608 301 608 282.5 634.5 c 128,-1,27
 264 661 264 661 229 661 c 0,28,29
 192 661 192 661 174.5 634.5 c 128,-1,30
 157 608 157 608 157 542 c 0,20,21
EndSplineSet
EndChar

StartChar: guillemotright
Encoding: 187 187 125
Width: 505
Flags: W
LayerCount: 2
Fore
SplineSet
87 41 m 1,0,-1
 45 77 l 1,1,-1
 154 259 l 1,2,-1
 45 445 l 1,3,-1
 87 481 l 1,4,-1
 269 261 l 1,5,-1
 87 41 l 1,0,-1
242 40 m 1,6,-1
 203 77 l 1,7,-1
 350 259 l 1,8,-1
 203 446 l 1,9,-1
 242 482 l 1,10,-1
 485 261 l 1,11,-1
 242 40 l 1,6,-1
EndSplineSet
Position2: "'case' Case-Sensitive Forms lookup 1 per glyph data 3" dx=0 dy=100 dh=0 dv=0
EndChar

StartChar: questiondown
Encoding: 191 191 129
Width: 486
Flags: W
LayerCount: 2
Fore
SplineSet
351 3 m 1,0,-1
 385 3 l 1,1,2
 390 -10 390 -10 397 -29.5 c 128,-1,3
 404 -49 404 -49 411 -70.5 c 128,-1,4
 418 -92 418 -92 423 -115 c 128,-1,5
 428 -138 428 -138 430 -157 c 1,6,7
 392 -180 392 -180 343.5 -194 c 128,-1,8
 295 -208 295 -208 220 -208 c 0,9,10
 175 -208 175 -208 139.5 -195.5 c 128,-1,11
 104 -183 104 -183 78.5 -161.5 c 128,-1,12
 53 -140 53 -140 39.5 -110 c 128,-1,13
 26 -80 26 -80 26 -45 c 0,14,15
 26 0 26 0 43 32 c 128,-1,16
 60 64 60 64 85 88.5 c 128,-1,17
 110 113 110 113 139.5 133.5 c 128,-1,18
 169 154 169 154 194.5 177.5 c 128,-1,19
 220 201 220 201 237 230 c 128,-1,20
 254 259 254 259 254 301 c 1,21,-1
 287 301 l 1,22,23
 301 255 301 255 297.5 221 c 128,-1,24
 294 187 294 187 281 160.5 c 128,-1,25
 268 134 268 134 249.5 111.5 c 128,-1,26
 231 89 231 89 213.5 66.5 c 128,-1,27
 196 44 196 44 183.5 18 c 128,-1,28
 171 -8 171 -8 171 -42 c 0,29,30
 171 -62 171 -62 175.5 -80 c 128,-1,31
 180 -98 180 -98 190 -112 c 128,-1,32
 200 -126 200 -126 216.5 -134.5 c 128,-1,33
 233 -143 233 -143 257 -143 c 0,34,35
 301 -143 301 -143 318 -129 c 1,36,-1
 351 3 l 1,0,-1
344 433 m 0,37,38
 344 396 344 396 320.5 374.5 c 128,-1,39
 297 353 297 353 259 353 c 256,40,41
 221 353 221 353 197 374.5 c 128,-1,42
 173 396 173 396 173 433 c 0,43,44
 173 469 173 469 197 490.5 c 128,-1,45
 221 512 221 512 259 512 c 256,46,47
 297 512 297 512 320.5 490.5 c 128,-1,48
 344 469 344 469 344 433 c 0,37,38
EndSplineSet
Position2: "'case' Case-Sensitive Forms lookup 1 per glyph data 3" dx=0 dy=100 dh=0 dv=0
EndChar

StartChar: Aring
Encoding: 197 197 135
Width: 729
Flags: W
LayerCount: 2
Fore
SplineSet
243 291 m 1,0,-1
 420 291 l 1,1,-1
 355 482 l 1,2,-1
 336 568 l 1,3,-1
 334 568 l 1,4,-1
 312 480 l 1,5,-1
 243 291 l 1,0,-1
321 788 m 0,6,7
 321 771 321 771 336 762.5 c 128,-1,8
 351 754 351 754 366 754 c 0,9,10
 389 754 389 754 402 762.5 c 128,-1,11
 415 771 415 771 415 787 c 0,12,13
 415 810 415 810 401.5 819 c 128,-1,14
 388 828 388 828 369 828 c 0,15,16
 348 828 348 828 334.5 819 c 128,-1,17
 321 810 321 810 321 788 c 0,6,7
238 788 m 0,18,19
 238 829 238 829 274 853.5 c 128,-1,20
 310 878 310 878 371 878 c 0,21,22
 397 878 397 878 420 872.5 c 128,-1,23
 443 867 443 867 460.5 856 c 128,-1,24
 478 845 478 845 488 829 c 128,-1,25
 498 813 498 813 498 791 c 0,26,27
 498 752 498 752 462 728 c 0,28,29
 438 712 438 712 405 706 c 1,30,-1
 654 67 l 1,31,32
 674 63 674 63 694 55.5 c 128,-1,33
 714 48 714 48 729 38 c 1,34,-1
 729 0 l 1,35,-1
 416 0 l 1,36,-1
 416 38 l 1,37,38
 435 47 435 47 457 55 c 128,-1,39
 479 63 479 63 499 67 c 1,40,-1
 441 226 l 1,41,-1
 219 226 l 1,42,-1
 160 67 l 1,43,44
 206 61 206 61 247 38 c 1,45,-1
 247 0 l 1,46,-1
 0 0 l 1,47,-1
 0 38 l 1,48,49
 16 48 16 48 34.5 55.5 c 128,-1,50
 53 63 53 63 71 67 c 1,51,-1
 327 707 l 1,52,53
 293 712 293 712 272 727 c 0,54,55
 238 750 238 750 238 788 c 0,18,19
EndSplineSet
Position2: "'cpsp' Capital Spacing lookup 0 subtable" dx=40 dy=0 dh=80 dv=0
EndChar

StartChar: Ccedilla
Encoding: 199 199 137
Width: 652
Flags: W
LayerCount: 2
Fore
SplineSet
540 210 m 1,0,-1
 581 210 l 1,1,2
 585 194 585 194 588.5 171.5 c 128,-1,3
 592 149 592 149 594.5 123.5 c 128,-1,4
 597 98 597 98 598 73 c 128,-1,5
 599 48 599 48 599 28 c 1,6,7
 581 16 581 16 557.5 8.5 c 128,-1,8
 534 1 534 1 508 -3.5 c 128,-1,9
 482 -8 482 -8 454.5 -10 c 128,-1,10
 427 -12 427 -12 400 -12 c 1,11,-1
 380 -58 l 1,12,13
 440 -60 440 -60 477.5 -81.5 c 128,-1,14
 515 -103 515 -103 515 -147 c 0,15,16
 515 -180 515 -180 492.5 -204 c 128,-1,17
 470 -228 470 -228 437.5 -243.5 c 128,-1,18
 405 -259 405 -259 368 -266 c 128,-1,19
 331 -273 331 -273 303 -273 c 1,20,-1
 303 -227 l 1,21,22
 338 -222 338 -222 360.5 -207 c 128,-1,23
 383 -192 383 -192 382 -164 c 0,24,25
 381 -141 381 -141 364.5 -128 c 128,-1,26
 348 -115 348 -115 306 -113 c 1,27,-1
 338 -8 l 1,28,29
 269 -1 269 -1 214 23.5 c 128,-1,30
 159 48 159 48 120 92 c 128,-1,31
 81 136 81 136 60 200.5 c 128,-1,32
 39 265 39 265 39 351 c 0,33,34
 39 446 39 446 67.5 514.5 c 128,-1,35
 96 583 96 583 144 627 c 128,-1,36
 192 671 192 671 255.5 691.5 c 128,-1,37
 319 712 319 712 389 712 c 0,38,39
 455 712 455 712 508.5 702.5 c 128,-1,40
 562 693 562 693 596 677 c 1,41,42
 596 661 596 661 594.5 636 c 128,-1,43
 593 611 593 611 589.5 583.5 c 128,-1,44
 586 556 586 556 581.5 529.5 c 128,-1,45
 577 503 577 503 573 485 c 1,46,-1
 531 485 l 1,47,-1
 476 636 l 1,48,49
 467 641 467 641 447 644 c 128,-1,50
 427 647 427 647 406 647 c 0,51,52
 365 647 365 647 329 630.5 c 128,-1,53
 293 614 293 614 265 578 c 128,-1,54
 237 542 237 542 221 485.5 c 128,-1,55
 205 429 205 429 205 350 c 0,56,57
 205 207 205 207 262 130 c 128,-1,58
 319 53 319 53 417 53 c 0,59,60
 445 53 445 53 464.5 57.5 c 128,-1,61
 484 62 484 62 491 70 c 1,62,-1
 540 210 l 1,0,-1
EndSplineSet
Position2: "'cpsp' Capital Spacing lookup 0 subtable" dx=40 dy=0 dh=80 dv=0
EndChar

StartChar: Eth
Encoding: 208 208 146
Width: 741
Flags: W
LayerCount: 2
Fore
SplineSet
22 389 m 1,0,-1
 107 389 l 1,1,-1
 107 633 l 1,2,3
 84 638 84 638 62.5 645.5 c 128,-1,4
 41 653 41 653 25 662 c 1,5,-1
 25 700 l 1,6,-1
 141 700 l 2,7,8
 158 700 158 700 183 701 c 128,-1,9
 208 702 208 702 235 703.5 c 128,-1,10
 262 705 262 705 287.5 706.5 c 128,-1,11
 313 708 313 708 331 708 c 0,12,13
 418 708 418 708 486.5 685 c 128,-1,14
 555 662 555 662 602.5 618 c 128,-1,15
 650 574 650 574 675.5 509 c 128,-1,16
 701 444 701 444 701 359 c 0,17,18
 701 276 701 276 677 208 c 128,-1,19
 653 140 653 140 605 92 c 128,-1,20
 557 44 557 44 483.5 17.5 c 128,-1,21
 410 -9 410 -9 311 -9 c 0,22,23
 298 -9 298 -9 276 -7.5 c 128,-1,24
 254 -6 254 -6 229 -4.5 c 128,-1,25
 204 -3 204 -3 179 -1.5 c 128,-1,26
 154 0 154 0 135 0 c 2,27,-1
 25 0 l 1,28,-1
 25 38 l 1,29,30
 42 48 42 48 63 55.5 c 128,-1,31
 84 63 84 63 107 67 c 1,32,-1
 107 329 l 1,33,-1
 22 329 l 1,34,-1
 22 389 l 1,0,-1
318 643 m 0,35,36
 300 643 300 643 282 642 c 128,-1,37
 264 641 264 641 251 639 c 1,38,-1
 251 389 l 1,39,-1
 404 389 l 1,40,-1
 404 329 l 1,41,-1
 251 329 l 1,42,-1
 251 60 l 1,43,44
 255 59 255 59 265 58.5 c 128,-1,45
 275 58 275 58 285.5 57.5 c 128,-1,46
 296 57 296 57 306 56.5 c 128,-1,47
 316 56 316 56 321 56 c 0,48,49
 379 56 379 56 419.5 80 c 128,-1,50
 460 104 460 104 486 145 c 128,-1,51
 512 186 512 186 524 241 c 128,-1,52
 536 296 536 296 536 358 c 0,53,54
 536 413 536 413 523.5 464 c 128,-1,55
 511 515 511 515 485 555 c 128,-1,56
 459 595 459 595 417.5 619 c 128,-1,57
 376 643 376 643 318 643 c 0,35,36
EndSplineSet
Position2: "'cpsp' Capital Spacing lookup 0 subtable" dx=40 dy=0 dh=80 dv=0
EndChar

StartChar: multiply
Encoding: 215 215 153
Width: 565
Flags: W
LayerCount: 2
Fore
SplineSet
94 213 m 1,0,-1
 224 344 l 1,1,-1
 96 473 l 1,2,-1
 152 529 l 1,3,-1
 281 401 l 1,4,-1
 412 531 l 1,5,-1
 468 475 l 1,6,-1
 338 344 l 1,7,-1
 471 211 l 1,8,-1
 414 154 l 1,9,-1
 281 287 l 1,10,-1
 150 157 l 1,11,-1
 94 213 l 1,0,-1
EndSplineSet
EndChar

StartChar: Oslash
Encoding: 216 216 154
Width: 754
Flags: W
LayerCount: 2
Fore
SplineSet
39 350 m 0,0,1
 39 428 39 428 61 494.5 c 128,-1,2
 83 561 83 561 126 609.5 c 128,-1,3
 169 658 169 658 232 685 c 128,-1,4
 295 712 295 712 377 712 c 0,5,6
 425 712 425 712 466 702 c 128,-1,7
 507 692 507 692 542 674 c 1,8,-1
 569 718 l 1,9,-1
 632 679 l 1,10,-1
 603 633 l 1,11,12
 658 584 658 584 686 511.5 c 128,-1,13
 714 439 714 439 714 350 c 0,14,15
 714 272 714 272 692 205.5 c 128,-1,16
 670 139 670 139 627.5 90.5 c 128,-1,17
 585 42 585 42 522 15 c 128,-1,18
 459 -12 459 -12 377 -12 c 0,19,20
 329 -12 329 -12 289 -2.5 c 128,-1,21
 249 7 249 7 214 24 c 1,22,-1
 188 -18 l 1,23,-1
 127 21 l 1,24,-1
 153 63 l 1,25,26
 96 112 96 112 67.5 185.5 c 128,-1,27
 39 259 39 259 39 350 c 0,0,1
209 350 m 0,28,29
 209 305 209 305 216 265.5 c 128,-1,30
 223 226 223 226 237 194 c 1,31,-1
 486 588 l 1,32,33
 466 616 466 616 437 631.5 c 128,-1,34
 408 647 408 647 369 647 c 0,35,36
 323 647 323 647 292 624.5 c 128,-1,37
 261 602 261 602 242.5 562.5 c 128,-1,38
 224 523 224 523 216.5 468.5 c 128,-1,39
 209 414 209 414 209 350 c 0,28,29
544 350 m 0,40,41
 544 393 544 393 538 431 c 128,-1,42
 532 469 532 469 518 501 c 1,43,-1
 270 110 l 1,44,45
 312 53 312 53 386 53 c 0,46,47
 429 53 429 53 459 75.5 c 128,-1,48
 489 98 489 98 508 137.5 c 128,-1,49
 527 177 527 177 535.5 231.5 c 128,-1,50
 544 286 544 286 544 350 c 0,40,41
EndSplineSet
Position2: "'cpsp' Capital Spacing lookup 0 subtable" dx=40 dy=0 dh=80 dv=0
EndChar

StartChar: Thorn
Encoding: 222 222 160
Width: 636
Flags: W
LayerCount: 2
Fore
SplineSet
252 63 m 1,0,1
 279 60 279 60 305.5 51.5 c 128,-1,2
 332 43 332 43 353 33 c 1,3,-1
 353 0 l 1,4,-1
 20 0 l 1,5,-1
 20 33 l 1,6,7
 39 44 39 44 60.5 51 c 128,-1,8
 82 58 82 58 102 62 c 1,9,-1
 102 638 l 1,10,11
 82 641 82 641 60 649 c 128,-1,12
 38 657 38 657 21 667 c 1,13,-1
 21 700 l 1,14,-1
 333 700 l 1,15,-1
 333 667 l 1,16,17
 315 656 315 656 293.5 648.5 c 128,-1,18
 272 641 272 641 252 638 c 1,19,-1
 252 593 l 1,20,21
 272 595 272 595 296 596.5 c 128,-1,22
 320 598 320 598 339 598 c 0,23,24
 392 598 392 598 440.5 587.5 c 128,-1,25
 489 577 489 577 526.5 553 c 128,-1,26
 564 529 564 529 586 489.5 c 128,-1,27
 608 450 608 450 608 391 c 0,28,29
 608 335 608 335 585.5 294 c 128,-1,30
 563 253 563 253 524.5 226 c 128,-1,31
 486 199 486 199 436 185.5 c 128,-1,32
 386 172 386 172 332 172 c 0,33,34
 327 172 327 172 316 172 c 128,-1,35
 305 172 305 172 292.5 172.5 c 128,-1,36
 280 173 280 173 268.5 173.5 c 128,-1,37
 257 174 257 174 252 175 c 1,38,-1
 252 63 l 1,0,1
306 533 m 0,39,40
 286 533 286 533 274.5 531.5 c 128,-1,41
 263 530 263 530 252 527 c 1,42,-1
 252 241 l 1,43,44
 261 238 261 238 279 237.5 c 128,-1,45
 297 237 297 237 308 237 c 0,46,47
 335 237 335 237 359 245.5 c 128,-1,48
 383 254 383 254 402 272 c 128,-1,49
 421 290 421 290 432 318 c 128,-1,50
 443 346 443 346 443 386 c 0,51,52
 443 461 443 461 406.5 497 c 128,-1,53
 370 533 370 533 306 533 c 0,39,40
EndSplineSet
Position2: "'cpsp' Capital Spacing lookup 0 subtable" dx=40 dy=0 dh=80 dv=0
EndChar

StartChar: germandbls
Encoding: 223 223 161
Width: 701
Flags: W
LayerCount: 2
Fore
SplineSet
458 584 m 1,0,1
 458 635 458 635 430 665 c 128,-1,2
 402 695 402 695 359 695 c 0,3,4
 337 695 337 695 316 690 c 128,-1,5
 295 685 295 685 279 668.5 c 128,-1,6
 263 652 263 652 253 620.5 c 128,-1,7
 243 589 243 589 243 537 c 2,8,-1
 243 0 l 1,9,-1
 33 0 l 1,10,-1
 33 39 l 1,11,12
 64 57 64 57 99 63 c 1,13,-1
 99 437 l 1,14,-1
 23 437 l 1,15,-1
 23 476 l 1,16,17
 58 498 58 498 99 509 c 1,18,-1
 99 544 l 2,19,20
 99 606 99 606 124.5 646.5 c 128,-1,21
 150 687 150 687 188.5 710.5 c 128,-1,22
 227 734 227 734 272.5 743 c 128,-1,23
 318 752 318 752 359 752 c 0,24,25
 474 752 474 752 532 703.5 c 128,-1,26
 590 655 590 655 592 575 c 1,27,28
 562 570 562 570 534 561.5 c 128,-1,29
 506 553 506 553 484.5 538.5 c 128,-1,30
 463 524 463 524 450 503 c 128,-1,31
 437 482 437 482 437 452 c 0,32,33
 437 421 437 421 454.5 397.5 c 128,-1,34
 472 374 472 374 499 353 c 128,-1,35
 526 332 526 332 556.5 311.5 c 128,-1,36
 587 291 587 291 614 266 c 128,-1,37
 641 241 641 241 658.5 210 c 128,-1,38
 676 179 676 179 676 138 c 0,39,40
 676 68 676 68 623.5 28 c 128,-1,41
 571 -12 571 -12 470 -12 c 0,42,43
 422 -12 422 -12 373.5 -2 c 128,-1,44
 325 8 325 8 288 26 c 1,45,46
 290 56 290 56 298 79.5 c 128,-1,47
 306 103 306 103 317 120 c 1,48,-1
 351 120 l 1,49,-1
 420 54 l 1,50,51
 431 48 431 48 442 46.5 c 128,-1,52
 453 45 453 45 465 45 c 0,53,54
 497 45 497 45 519.5 62 c 128,-1,55
 542 79 542 79 542 109 c 0,56,57
 542 138 542 138 524.5 159.5 c 128,-1,58
 507 181 507 181 480 201 c 128,-1,59
 453 221 453 221 422.5 241 c 128,-1,60
 392 261 392 261 365 286 c 128,-1,61
 338 311 338 311 320.5 343 c 128,-1,62
 303 375 303 375 303 420 c 0,63,64
 303 480 303 480 346 521.5 c 128,-1,65
 389 563 389 563 458 584 c 1,0,1
EndSplineSet
EndChar

StartChar: ccedilla
Encoding: 231 231 169
Width: 484
Flags: W
LayerCount: 2
Fore
SplineSet
456 81 m 1,0,1
 449 61 449 61 432.5 44.5 c 128,-1,2
 416 28 416 28 393 15 c 128,-1,3
 370 2 370 2 341.5 -5 c 128,-1,4
 313 -12 313 -12 282 -12 c 1,5,-1
 261 -68 l 1,6,7
 321 -71 321 -71 352.5 -89.5 c 128,-1,8
 384 -108 384 -108 385 -144 c 0,9,10
 385 -173 385 -173 368 -194 c 128,-1,11
 351 -215 351 -215 323 -229 c 128,-1,12
 295 -243 295 -243 260 -250 c 128,-1,13
 225 -257 225 -257 190 -257 c 1,14,-1
 190 -218 l 1,15,16
 260 -207 260 -207 260 -161 c 1,17,18
 259 -138 259 -138 240.5 -128 c 128,-1,19
 222 -118 222 -118 187 -114 c 1,20,-1
 225 -7 l 1,21,22
 124 8 124 8 77.5 76.5 c 128,-1,23
 31 145 31 145 31 250 c 0,24,25
 31 377 31 377 100.5 444.5 c 128,-1,26
 170 512 170 512 298 512 c 0,27,28
 347 512 347 512 388 501.5 c 128,-1,29
 429 491 429 491 456 477 c 1,30,31
 454 460 454 460 450.5 439.5 c 128,-1,32
 447 419 447 419 442.5 398.5 c 128,-1,33
 438 378 438 378 432 358.5 c 128,-1,34
 426 339 426 339 420 326 c 1,35,-1
 371 326 l 1,36,-1
 329 445 l 1,37,38
 322 450 322 450 314 452.5 c 128,-1,39
 306 455 306 455 290 455 c 0,40,41
 264 455 264 455 245 445.5 c 128,-1,42
 226 436 226 436 212.5 413 c 128,-1,43
 199 390 199 390 192.5 352 c 128,-1,44
 186 314 186 314 186 258 c 0,45,46
 186 217 186 217 195 182.5 c 128,-1,47
 204 148 204 148 222.5 122.5 c 128,-1,48
 241 97 241 97 269 82.5 c 128,-1,49
 297 68 297 68 335 68 c 0,50,51
 370 68 370 68 396 78 c 128,-1,52
 422 88 422 88 440 102 c 1,53,-1
 456 81 l 1,0,1
EndSplineSet
EndChar

StartChar: eth
Encoding: 240 240 178
Width: 577
Flags: W
LayerCount: 2
Fore
SplineSet
175 610 m 1,0,-1
 271 649 l 1,1,2
 246 673 246 673 217 692.5 c 128,-1,3
 188 712 188 712 156 724 c 1,4,-1
 156 750 l 1,5,-1
 253 750 l 1,6,7
 308 733 308 733 364 688 c 1,8,-1
 462 728 l 1,9,-1
 489 672 l 1,10,-1
 415 641 l 1,11,12
 443 610 443 610 467 572 c 128,-1,13
 491 534 491 534 509 489.5 c 128,-1,14
 527 445 527 445 537.5 394.5 c 128,-1,15
 548 344 548 344 548 289 c 0,16,17
 548 224 548 224 531.5 168.5 c 128,-1,18
 515 113 515 113 482 73 c 128,-1,19
 449 33 449 33 399.5 10.5 c 128,-1,20
 350 -12 350 -12 285 -12 c 0,21,22
 224 -12 224 -12 175.5 6.5 c 128,-1,23
 127 25 127 25 93.5 59 c 128,-1,24
 60 93 60 93 42 139.5 c 128,-1,25
 24 186 24 186 24 242 c 0,26,27
 24 309 24 309 43.5 360 c 128,-1,28
 63 411 63 411 95.5 444.5 c 128,-1,29
 128 478 128 478 169 495 c 128,-1,30
 210 512 210 512 253 512 c 0,31,32
 304 512 304 512 333.5 495 c 128,-1,33
 363 478 363 478 385 454 c 1,34,35
 374 490 374 490 356.5 527.5 c 128,-1,36
 339 565 339 565 314 600 c 1,37,-1
 203 554 l 1,38,-1
 175 610 l 1,0,-1
179 242 m 0,39,40
 179 201 179 201 185.5 166 c 128,-1,41
 192 131 192 131 206 105 c 128,-1,42
 220 79 220 79 241 64 c 128,-1,43
 262 49 262 49 292 49 c 0,44,45
 347 49 347 49 370 106.5 c 128,-1,46
 393 164 393 164 393 274 c 0,47,48
 393 327 393 327 390 357 c 128,-1,49
 387 387 387 387 382 400 c 1,50,51
 353 437 353 437 289 437 c 0,52,53
 264 437 264 437 244 427 c 128,-1,54
 224 417 224 417 209.5 394 c 128,-1,55
 195 371 195 371 187 333.5 c 128,-1,56
 179 296 179 296 179 242 c 0,39,40
EndSplineSet
EndChar

StartChar: divide
Encoding: 247 247 185
Width: 565
Flags: W
LayerCount: 2
Fore
SplineSet
57 386 m 1,0,-1
 507 386 l 1,1,-1
 507 306 l 1,2,-1
 57 306 l 1,3,-1
 57 386 l 1,0,-1
197 536 m 256,4,5
 197 572 197 572 220 594 c 128,-1,6
 243 616 243 616 281 616 c 256,7,8
 319 616 319 616 343 594 c 128,-1,9
 367 572 367 572 367 536 c 256,10,11
 367 500 367 500 343 478.5 c 128,-1,12
 319 457 319 457 281 457 c 256,13,14
 243 457 243 457 220 478.5 c 128,-1,15
 197 500 197 500 197 536 c 256,4,5
197 155 m 256,16,17
 197 191 197 191 220 213 c 128,-1,18
 243 235 243 235 281 235 c 256,19,20
 319 235 319 235 343 213 c 128,-1,21
 367 191 367 191 367 155 c 256,22,23
 367 119 367 119 343 97.5 c 128,-1,24
 319 76 319 76 281 76 c 256,25,26
 243 76 243 76 220 97.5 c 128,-1,27
 197 119 197 119 197 155 c 256,16,17
EndSplineSet
EndChar

StartChar: oslash
Encoding: 248 248 186
Width: 594
Flags: W
LayerCount: 2
Fore
SplineSet
114 44 m 1,0,1
 71 79 71 79 51 131.5 c 128,-1,2
 31 184 31 184 31 250 c 0,3,4
 31 311 31 311 49.5 359.5 c 128,-1,5
 68 408 68 408 102.5 442 c 128,-1,6
 137 476 137 476 186 494 c 128,-1,7
 235 512 235 512 297 512 c 0,8,9
 336 512 336 512 368.5 505.5 c 128,-1,10
 401 499 401 499 428 487 c 1,11,-1
 472 550 l 1,12,-1
 526 512 l 1,13,-1
 484 453 l 1,14,15
 525 418 525 418 544 366 c 128,-1,16
 563 314 563 314 563 250 c 0,17,18
 563 189 563 189 545 140.5 c 128,-1,19
 527 92 527 92 492.5 58 c 128,-1,20
 458 24 458 24 408.5 6 c 128,-1,21
 359 -12 359 -12 297 -12 c 0,22,23
 225 -12 225 -12 171 11 c 1,24,-1
 123 -58 l 1,25,-1
 70 -19 l 1,26,-1
 114 44 l 1,0,1
186 250 m 0,27,28
 186 224 186 224 189 201.5 c 128,-1,29
 192 179 192 179 200 161 c 1,30,-1
 374 412 l 1,31,32
 360 432 360 432 339.5 443.5 c 128,-1,33
 319 455 319 455 289 455 c 0,34,35
 236 455 236 455 211 408.5 c 128,-1,36
 186 362 186 362 186 250 c 0,27,28
408 250 m 0,37,38
 408 297 408 297 395 332 c 1,39,-1
 223 83 l 1,40,41
 253 45 253 45 314 45 c 0,42,43
 361 45 361 45 384.5 91.5 c 128,-1,44
 408 138 408 138 408 250 c 0,37,38
EndSplineSet
EndChar

StartChar: thorn
Encoding: 254 254 192
Width: 609
Flags: W
LayerCount: 2
Fore
SplineSet
86 669 m 1,0,-1
 10 677 l 1,1,-1
 10 716 l 1,2,3
 23 722 23 722 46 728 c 128,-1,4
 69 734 69 734 95.5 738.5 c 128,-1,5
 122 743 122 743 148.5 746.5 c 128,-1,6
 175 750 175 750 196 752 c 1,7,-1
 230 752 l 1,8,-1
 230 400 l 1,9,-1
 231 400 l 1,10,11
 248 448 248 448 284.5 480 c 128,-1,12
 321 512 321 512 386 512 c 0,13,14
 430 512 430 512 465.5 497.5 c 128,-1,15
 501 483 501 483 525.5 452.5 c 128,-1,16
 550 422 550 422 563.5 374.5 c 128,-1,17
 577 327 577 327 577 261 c 0,18,19
 577 198 577 198 559.5 147 c 128,-1,20
 542 96 542 96 509.5 61 c 128,-1,21
 477 26 477 26 430.5 7 c 128,-1,22
 384 -12 384 -12 325 -12 c 0,23,24
 291 -12 291 -12 271.5 -7.5 c 128,-1,25
 252 -3 252 -3 230 8 c 1,26,-1
 230 -137 l 1,27,28
 246 -139 246 -139 262 -144.5 c 128,-1,29
 278 -150 278 -150 296 -161 c 1,30,-1
 296 -200 l 1,31,-1
 20 -200 l 1,32,-1
 20 -161 l 1,33,34
 54 -145 54 -145 86 -137 c 1,35,-1
 86 669 l 1,0,-1
328 432 m 0,36,37
 294 432 294 432 267.5 408 c 128,-1,38
 241 384 241 384 230 334 c 1,39,-1
 230 68 l 1,40,41
 246 56 246 56 264 50.5 c 128,-1,42
 282 45 282 45 311 45 c 0,43,44
 368 45 368 45 395 100 c 128,-1,45
 422 155 422 155 422 261 c 0,46,47
 422 343 422 343 401.5 387.5 c 128,-1,48
 381 432 381 432 328 432 c 0,36,37
EndSplineSet
EndChar

StartChar: Aogonek
Encoding: 260 260 198
Width: 729
Flags: W
LayerCount: 2
Fore
SplineSet
247 0 m 1,0,-1
 0 0 l 1,1,-1
 0 38 l 1,2,3
 16 48 16 48 34.5 55.5 c 128,-1,4
 53 63 53 63 71 67 c 1,5,-1
 329 712 l 1,6,-1
 403 712 l 1,7,-1
 654 67 l 1,8,9
 674 63 674 63 694 55.5 c 128,-1,10
 714 48 714 48 729 38 c 1,11,-1
 729 0 l 1,12,-1
 692 0 l 1,13,14
 653 -28 653 -28 631.5 -65.5 c 128,-1,15
 610 -103 610 -103 610 -135 c 0,16,17
 610 -161 610 -161 625.5 -175 c 128,-1,18
 641 -189 641 -189 664 -189 c 0,19,20
 676 -189 676 -189 687 -188 c 128,-1,21
 698 -187 698 -187 710 -184 c 1,22,-1
 710 -227 l 1,23,24
 696 -238 696 -238 668.5 -246.5 c 128,-1,25
 641 -255 641 -255 609 -255 c 0,26,27
 548 -255 548 -255 515.5 -226.5 c 128,-1,28
 483 -198 483 -198 483 -157 c 0,29,30
 483 -130 483 -130 493.5 -107.5 c 128,-1,31
 504 -85 504 -85 522.5 -66 c 128,-1,32
 541 -47 541 -47 567 -31 c 128,-1,33
 593 -15 593 -15 624 0 c 1,34,-1
 416 0 l 1,35,-1
 416 38 l 1,36,37
 435 47 435 47 457 55 c 128,-1,38
 479 63 479 63 499 67 c 1,39,-1
 441 226 l 1,40,-1
 219 226 l 1,41,-1
 160 67 l 1,42,43
 206 61 206 61 247 38 c 1,44,-1
 247 0 l 1,0,-1
243 291 m 1,45,-1
 420 291 l 1,46,-1
 355 482 l 1,47,-1
 336 568 l 1,48,-1
 334 568 l 1,49,-1
 312 480 l 1,50,-1
 243 291 l 1,45,-1
EndSplineSet
Position2: "'cpsp' Capital Spacing lookup 0 subtable" dx=40 dy=0 dh=80 dv=0
EndChar

StartChar: aogonek
Encoding: 261 261 199
Width: 557
Flags: W
LayerCount: 2
Fore
SplineSet
470 145 m 0,0,1
 470 123 470 123 470.5 107 c 128,-1,2
 471 91 471 91 473 73 c 1,3,-1
 542 63 l 1,4,-1
 542 28 l 1,5,6
 531 21 531 21 512 16 c 1,7,8
 469 -8 469 -8 444 -45 c 128,-1,9
 419 -82 419 -82 419 -119 c 0,10,11
 419 -138 419 -138 431.5 -153.5 c 128,-1,12
 444 -169 444 -169 467 -169 c 256,13,14
 490 -169 490 -169 517 -160 c 1,15,-1
 517 -206 l 1,16,17
 510 -210 510 -210 498.5 -213.5 c 128,-1,18
 487 -217 487 -217 474.5 -220 c 128,-1,19
 462 -223 462 -223 449.5 -224.5 c 128,-1,20
 437 -226 437 -226 428 -226 c 0,21,22
 359 -226 359 -226 327 -199 c 128,-1,23
 295 -172 295 -172 295 -134 c 0,24,25
 295 -93 295 -93 321 -62.5 c 128,-1,26
 347 -32 347 -32 397 -8 c 1,27,-1
 375 -10 l 1,28,-1
 349 -10 l 1,29,30
 339 13 339 13 337 36 c 128,-1,31
 335 59 335 59 334 92 c 1,32,-1
 329 92 l 1,33,34
 324 72 324 72 312 53.5 c 128,-1,35
 300 35 300 35 281.5 20.5 c 128,-1,36
 263 6 263 6 238 -3 c 128,-1,37
 213 -12 213 -12 182 -12 c 0,38,39
 149 -12 149 -12 121 -2 c 128,-1,40
 93 8 93 8 72 26 c 128,-1,41
 51 44 51 44 39 69.5 c 128,-1,42
 27 95 27 95 27 127 c 0,43,44
 27 172 27 172 44 201 c 128,-1,45
 61 230 61 230 97.5 248.5 c 128,-1,46
 134 267 134 267 191.5 276 c 128,-1,47
 249 285 249 285 331 289 c 1,48,49
 339 375 339 375 324 415 c 128,-1,50
 309 455 309 455 259 455 c 0,51,52
 228 455 228 455 202 445 c 1,53,-1
 155 325 l 1,54,-1
 111 325 l 1,55,56
 103 337 103 337 95.5 352.5 c 128,-1,57
 88 368 88 368 81.5 385.5 c 128,-1,58
 75 403 75 403 70.5 421 c 128,-1,59
 66 439 66 439 64 456 c 1,60,61
 102 482 102 482 162 497 c 128,-1,62
 222 512 222 512 289 512 c 0,63,64
 346 512 346 512 382 499.5 c 128,-1,65
 418 487 418 487 438.5 465.5 c 128,-1,66
 459 444 459 444 467 415 c 128,-1,67
 475 386 475 386 475 353 c 0,68,69
 475 293 475 293 472.5 244.5 c 128,-1,70
 470 196 470 196 470 145 c 0,0,1
245 68 m 0,71,72
 266 68 266 68 281 76 c 128,-1,73
 296 84 296 84 306.5 95 c 128,-1,74
 317 106 317 106 322.5 119 c 128,-1,75
 328 132 328 132 331 142 c 1,76,-1
 331 242 l 1,77,78
 284 241 284 241 254 236 c 128,-1,79
 224 231 224 231 207 219.5 c 128,-1,80
 190 208 190 208 183.5 190.5 c 128,-1,81
 177 173 177 173 177 148 c 0,82,83
 177 110 177 110 195 89 c 128,-1,84
 213 68 213 68 245 68 c 0,71,72
EndSplineSet
EndChar

StartChar: dcroat
Encoding: 273 273 209
Width: 599
Flags: W
LayerCount: 2
Fore
SplineSet
231 620 m 1,0,-1
 375 620 l 1,1,-1
 375 669 l 1,2,-1
 299 677 l 1,3,-1
 299 716 l 1,4,5
 313 722 313 722 337.5 727 c 128,-1,6
 362 732 362 732 389 736.5 c 128,-1,7
 416 741 416 741 442 745 c 128,-1,8
 468 749 468 749 485 752 c 1,9,-1
 519 752 l 1,10,-1
 519 620 l 1,11,-1
 598 620 l 1,12,-1
 598 559 l 1,13,-1
 519 559 l 1,14,-1
 519 71 l 1,15,-1
 585 63 l 1,16,-1
 585 28 l 1,17,18
 571 21 571 21 549 15 c 128,-1,19
 527 9 527 9 503 4 c 128,-1,20
 479 -1 479 -1 456.5 -4.5 c 128,-1,21
 434 -8 434 -8 419 -10 c 1,22,-1
 385 -10 l 1,23,-1
 376 99 l 1,24,-1
 372 99 l 1,25,26
 367 77 367 77 354 57 c 128,-1,27
 341 37 341 37 323 21.5 c 128,-1,28
 305 6 305 6 282 -3 c 128,-1,29
 259 -12 259 -12 233 -12 c 0,30,31
 134 -12 134 -12 82.5 50.5 c 128,-1,32
 31 113 31 113 31 242 c 0,33,34
 31 308 31 308 49 357.5 c 128,-1,35
 67 407 67 407 99.5 441 c 128,-1,36
 132 475 132 475 178 492 c 128,-1,37
 224 509 224 509 280 509 c 0,38,39
 298 509 298 509 310.5 508 c 128,-1,40
 323 507 323 507 333.5 505.5 c 128,-1,41
 344 504 344 504 353.5 500.5 c 128,-1,42
 363 497 363 497 375 493 c 1,43,-1
 375 559 l 1,44,-1
 231 559 l 1,45,-1
 231 620 l 1,0,-1
281 68 m 0,46,47
 316 68 316 68 340 90 c 128,-1,48
 364 112 364 112 375 165 c 1,49,-1
 375 434 l 1,50,51
 362 442 362 442 342.5 447 c 128,-1,52
 323 452 323 452 294 452 c 0,53,54
 236 452 236 452 211 399.5 c 128,-1,55
 186 347 186 347 186 247 c 0,56,57
 186 166 186 166 208 117 c 128,-1,58
 230 68 230 68 281 68 c 0,46,47
EndSplineSet
EndChar

StartChar: Eogonek
Encoding: 280 280 214
Width: 604
Flags: W
LayerCount: 2
Fore
SplineSet
546 700 m 1,0,1
 544 655 544 655 539 607 c 128,-1,2
 534 559 534 559 526 517 c 1,3,-1
 485 517 l 1,4,-1
 439 635 l 1,5,-1
 252 635 l 1,6,-1
 252 390 l 1,7,-1
 374 390 l 1,8,-1
 418 467 l 1,9,-1
 450 467 l 1,10,11
 455 418 455 418 455 358 c 128,-1,12
 455 298 455 298 450 246 c 1,13,-1
 418 246 l 1,14,-1
 374 325 l 1,15,-1
 252 325 l 1,16,-1
 252 65 l 1,17,-1
 447 65 l 1,18,-1
 500 192 l 1,19,-1
 541 192 l 1,20,21
 545 179 545 179 548.5 153.5 c 128,-1,22
 552 128 552 128 554.5 99 c 128,-1,23
 557 70 557 70 558.5 43 c 128,-1,24
 560 16 560 16 561 0 c 1,25,-1
 523 0 l 1,26,27
 484 -28 484 -28 462.5 -65.5 c 128,-1,28
 441 -103 441 -103 441 -135 c 0,29,30
 441 -161 441 -161 457 -175 c 128,-1,31
 473 -189 473 -189 495 -189 c 0,32,33
 507 -189 507 -189 518 -188 c 128,-1,34
 529 -187 529 -187 541 -184 c 1,35,-1
 541 -227 l 1,36,37
 527 -238 527 -238 500 -246.5 c 128,-1,38
 473 -255 473 -255 441 -255 c 0,39,40
 380 -255 380 -255 347 -226.5 c 128,-1,41
 314 -198 314 -198 314 -157 c 0,42,43
 314 -102 314 -102 354 -65.5 c 128,-1,44
 394 -29 394 -29 456 0 c 1,45,-1
 20 0 l 1,46,-1
 20 38 l 1,47,48
 37 47 37 47 58 55 c 128,-1,49
 79 63 79 63 102 67 c 1,50,-1
 102 633 l 1,51,52
 82 637 82 637 59.5 644.5 c 128,-1,53
 37 652 37 652 20 662 c 1,54,-1
 20 700 l 1,55,-1
 546 700 l 1,0,1
EndSplineSet
Position2: "'cpsp' Capital Spacing lookup 0 subtable" dx=40 dy=0 dh=80 dv=0
EndChar

StartChar: eogonek
Encoding: 281 281 215
Width: 537
Flags: W
LayerCount: 2
Fore
SplineSet
486 84 m 1,0,1
 476 64 476 64 454 44 c 128,-1,2
 432 24 432 24 400 10 c 1,3,4
 361 -13 361 -13 339 -48.5 c 128,-1,5
 317 -84 317 -84 317 -119 c 0,6,7
 317 -138 317 -138 329 -153.5 c 128,-1,8
 341 -169 341 -169 365 -169 c 0,9,10
 388 -169 388 -169 415 -160 c 1,11,-1
 415 -206 l 1,12,13
 408 -210 408 -210 396.5 -213.5 c 128,-1,14
 385 -217 385 -217 372.5 -220 c 128,-1,15
 360 -223 360 -223 347.5 -224.5 c 128,-1,16
 335 -226 335 -226 326 -226 c 0,17,18
 257 -226 257 -226 225 -199 c 128,-1,19
 193 -172 193 -172 193 -134 c 0,20,21
 193 -95 193 -95 217 -65 c 128,-1,22
 241 -35 241 -35 286 -12 c 1,23,24
 224 -12 224 -12 176.5 6.5 c 128,-1,25
 129 25 129 25 96.5 59 c 128,-1,26
 64 93 64 93 47.5 141.5 c 128,-1,27
 31 190 31 190 31 250 c 0,28,29
 31 378 31 378 98 445 c 128,-1,30
 165 512 165 512 284 512 c 0,31,32
 335 512 335 512 379.5 498 c 128,-1,33
 424 484 424 484 453.5 452 c 128,-1,34
 483 420 483 420 494.5 368 c 128,-1,35
 506 316 506 316 493 241 c 1,36,-1
 186 241 l 1,37,38
 187 162 187 162 226.5 115 c 128,-1,39
 266 68 266 68 343 68 c 0,40,41
 376 68 376 68 411.5 78 c 128,-1,42
 447 88 447 88 467 104 c 1,43,-1
 486 84 l 1,0,1
280 455 m 0,44,45
 260 455 260 455 244.5 448 c 128,-1,46
 229 441 229 441 217.5 422.5 c 128,-1,47
 206 404 206 404 199 372.5 c 128,-1,48
 192 341 192 341 189 293 c 1,49,-1
 350 293 l 1,50,51
 357 371 357 371 341 413 c 128,-1,52
 325 455 325 455 280 455 c 0,44,45
EndSplineSet
EndChar

StartChar: Hbar
Encoding: 294 294 226
Width: 769
Flags: W
LayerCount: 2
Fore
SplineSet
26 561 m 1,0,-1
 102 561 l 1,1,-1
 102 633 l 1,2,3
 78 637 78 637 56 645 c 128,-1,4
 34 653 34 653 20 662 c 1,5,-1
 20 700 l 1,6,-1
 323 700 l 1,7,-1
 323 662 l 1,8,9
 308 652 308 652 289.5 644 c 128,-1,10
 271 636 271 636 252 633 c 1,11,-1
 252 561 l 1,12,-1
 517 561 l 1,13,-1
 517 633 l 1,14,15
 495 637 495 637 477.5 645 c 128,-1,16
 460 653 460 653 446 662 c 1,17,-1
 446 700 l 1,18,-1
 749 700 l 1,19,-1
 749 662 l 1,20,21
 732 651 732 651 710 644 c 128,-1,22
 688 637 688 637 667 633 c 1,23,-1
 667 561 l 1,24,-1
 743 561 l 1,25,-1
 743 498 l 1,26,-1
 667 498 l 1,27,-1
 667 67 l 1,28,29
 690 63 690 63 711.5 55 c 128,-1,30
 733 47 733 47 749 38 c 1,31,-1
 749 0 l 1,32,-1
 446 0 l 1,33,-1
 446 38 l 1,34,35
 461 47 461 47 479 55 c 128,-1,36
 497 63 497 63 517 67 c 1,37,-1
 517 326 l 1,38,-1
 252 326 l 1,39,-1
 252 67 l 1,40,41
 272 63 272 63 289 56 c 128,-1,42
 306 49 306 49 323 38 c 1,43,-1
 323 0 l 1,44,-1
 20 0 l 1,45,-1
 20 38 l 1,46,47
 37 47 37 47 59.5 55 c 128,-1,48
 82 63 82 63 102 67 c 1,49,-1
 102 498 l 1,50,-1
 26 498 l 1,51,-1
 26 561 l 1,0,-1
517 391 m 1,52,-1
 517 498 l 1,53,-1
 252 498 l 1,54,-1
 252 391 l 1,55,-1
 517 391 l 1,52,-1
EndSplineSet
Position2: "'cpsp' Capital Spacing lookup 0 subtable" dx=40 dy=0 dh=80 dv=0
EndChar

StartChar: hbar
Encoding: 295 295 227
Width: 640
Flags: W
LayerCount: 2
Fore
SplineSet
7 620 m 1,0,-1
 85 620 l 1,1,-1
 85 669 l 1,2,-1
 9 677 l 1,3,-1
 9 716 l 1,4,5
 24 722 24 722 47.5 728 c 128,-1,6
 71 734 71 734 97 738.5 c 128,-1,7
 123 743 123 743 149 746.5 c 128,-1,8
 175 750 175 750 195 752 c 1,9,-1
 229 752 l 1,10,-1
 229 620 l 1,11,-1
 384 620 l 1,12,-1
 384 559 l 1,13,-1
 229 559 l 1,14,-1
 229 399 l 1,15,-1
 230 399 l 1,16,17
 240 422 240 422 257 442.5 c 128,-1,18
 274 463 274 463 295.5 478.5 c 128,-1,19
 317 494 317 494 342 503 c 128,-1,20
 367 512 367 512 395 512 c 0,21,22
 435 512 435 512 466.5 502.5 c 128,-1,23
 498 493 498 493 519 469 c 128,-1,24
 540 445 540 445 551 404.5 c 128,-1,25
 562 364 562 364 562 302 c 2,26,-1
 562 63 l 1,27,28
 579 59 579 59 596 54 c 128,-1,29
 613 49 613 49 628 39 c 1,30,-1
 628 0 l 1,31,-1
 363 0 l 1,32,-1
 363 39 l 1,33,34
 375 46 375 46 388 52 c 128,-1,35
 401 58 401 58 418 63 c 1,36,-1
 418 265 l 2,37,38
 418 351 418 351 401.5 391.5 c 128,-1,39
 385 432 385 432 337 432 c 0,40,41
 297 432 297 432 269 404.5 c 128,-1,42
 241 377 241 377 229 341 c 1,43,-1
 229 63 l 1,44,45
 245 59 245 59 257.5 54 c 128,-1,46
 270 49 270 49 284 39 c 1,47,-1
 284 0 l 1,48,-1
 19 0 l 1,49,-1
 19 39 l 1,50,51
 50 55 50 55 85 63 c 1,52,-1
 85 559 l 1,53,-1
 7 559 l 1,54,-1
 7 620 l 1,0,-1
EndSplineSet
EndChar

StartChar: Iogonek
Encoding: 302 302 230
Width: 372
Flags: W
LayerCount: 2
Fore
SplineSet
342 0 m 1,0,-1
 306 0 l 1,1,2
 267 -28 267 -28 245.5 -65.5 c 128,-1,3
 224 -103 224 -103 224 -135 c 0,4,5
 224 -161 224 -161 239.5 -175 c 128,-1,6
 255 -189 255 -189 278 -189 c 0,7,8
 290 -189 290 -189 301 -188 c 128,-1,9
 312 -187 312 -187 324 -184 c 1,10,-1
 324 -227 l 1,11,12
 310 -238 310 -238 282.5 -246.5 c 128,-1,13
 255 -255 255 -255 223 -255 c 0,14,15
 162 -255 162 -255 129.5 -226.5 c 128,-1,16
 97 -198 97 -198 97 -157 c 0,17,18
 97 -130 97 -130 107.5 -107.5 c 128,-1,19
 118 -85 118 -85 136.5 -66 c 128,-1,20
 155 -47 155 -47 181 -31 c 128,-1,21
 207 -15 207 -15 238 0 c 1,22,-1
 30 0 l 1,23,-1
 30 38 l 1,24,25
 70 60 70 60 111 67 c 1,26,-1
 111 633 l 1,27,28
 91 636 91 636 69 644 c 128,-1,29
 47 652 47 652 30 662 c 1,30,-1
 30 700 l 1,31,-1
 342 700 l 1,32,-1
 342 662 l 1,33,34
 324 651 324 651 302.5 643.5 c 128,-1,35
 281 636 281 636 261 633 c 1,36,-1
 261 67 l 1,37,38
 281 63 281 63 302.5 56 c 128,-1,39
 324 49 324 49 342 38 c 1,40,-1
 342 0 l 1,0,-1
EndSplineSet
Position2: "'cpsp' Capital Spacing lookup 0 subtable" dx=40 dy=0 dh=80 dv=0
EndChar

StartChar: iogonek
Encoding: 303 303 231
Width: 357
Flags: W
LayerCount: 2
Fore
SplineSet
317 0 m 1,0,-1
 282 0 l 1,1,2
 250 -24 250 -24 232 -56 c 128,-1,3
 214 -88 214 -88 214 -119 c 0,4,5
 214 -138 214 -138 226 -153.5 c 128,-1,6
 238 -169 238 -169 262 -169 c 0,7,8
 285 -169 285 -169 312 -160 c 1,9,-1
 312 -206 l 1,10,11
 305 -210 305 -210 293.5 -213.5 c 128,-1,12
 282 -217 282 -217 269.5 -220 c 128,-1,13
 257 -223 257 -223 244.5 -224.5 c 128,-1,14
 232 -226 232 -226 223 -226 c 0,15,16
 154 -226 154 -226 122 -199 c 128,-1,17
 90 -172 90 -172 90 -134 c 0,18,19
 90 -89 90 -89 120.5 -57 c 128,-1,20
 151 -25 151 -25 209 0 c 1,21,-1
 41 0 l 1,22,-1
 41 39 l 1,23,24
 56 47 56 47 72 52.5 c 128,-1,25
 88 58 88 58 107 63 c 1,26,-1
 107 429 l 1,27,-1
 41 437 l 1,28,-1
 41 476 l 1,29,30
 56 482 56 482 78.5 488 c 128,-1,31
 101 494 101 494 126 498.5 c 128,-1,32
 151 503 151 503 175 506.5 c 128,-1,33
 199 510 199 510 217 512 c 1,34,-1
 251 512 l 1,35,-1
 251 63 l 1,36,37
 271 58 271 58 287 52.5 c 128,-1,38
 303 47 303 47 317 39 c 1,39,-1
 317 0 l 1,0,-1
93 663 m 256,40,41
 93 697 93 697 116 716.5 c 128,-1,42
 139 736 139 736 176 736 c 256,43,44
 213 736 213 736 236.5 716.5 c 128,-1,45
 260 697 260 697 260 663 c 256,46,47
 260 629 260 629 236.5 609.5 c 128,-1,48
 213 590 213 590 176 590 c 256,49,50
 139 590 139 590 116 609.5 c 128,-1,51
 93 629 93 629 93 663 c 256,40,41
EndSplineSet
EndChar

StartChar: dotlessi
Encoding: 305 305 233
Width: 332
Flags: W
LayerCount: 2
Fore
SplineSet
307 0 m 1,0,-1
 31 0 l 1,1,-1
 31 39 l 1,2,3
 46 47 46 47 62 52.5 c 128,-1,4
 78 58 78 58 97 63 c 1,5,-1
 97 429 l 1,6,-1
 31 437 l 1,7,-1
 31 476 l 1,8,9
 46 482 46 482 68.5 488 c 128,-1,10
 91 494 91 494 116 498.5 c 128,-1,11
 141 503 141 503 165 506.5 c 128,-1,12
 189 510 189 510 207 512 c 1,13,-1
 241 512 l 1,14,-1
 241 63 l 1,15,16
 261 58 261 58 277 52.5 c 128,-1,17
 293 47 293 47 307 39 c 1,18,-1
 307 0 l 1,0,-1
EndSplineSet
EndChar

StartChar: Lslash
Encoding: 321 321 244
Width: 583
Flags: W
LayerCount: 2
Fore
SplineSet
20 700 m 1,0,-1
 348 700 l 1,1,-1
 348 662 l 1,2,3
 327 651 327 651 301.5 643.5 c 128,-1,4
 276 636 276 636 252 633 c 1,5,-1
 252 419 l 1,6,-1
 367 490 l 1,7,-1
 367 411 l 1,8,-1
 252 340 l 1,9,-1
 252 65 l 1,10,-1
 445 65 l 1,11,-1
 512 244 l 1,12,-1
 553 244 l 1,13,14
 557 221 557 221 560.5 190 c 128,-1,15
 564 159 564 159 566 125 c 128,-1,16
 568 91 568 91 569 58 c 128,-1,17
 570 25 570 25 569 0 c 1,18,-1
 20 0 l 1,19,-1
 20 38 l 1,20,21
 43 50 43 50 63.5 57 c 128,-1,22
 84 64 84 64 102 67 c 1,23,-1
 102 248 l 1,24,-1
 20 198 l 1,25,-1
 20 277 l 1,26,-1
 102 327 l 1,27,-1
 102 633 l 1,28,29
 53 641 53 641 20 662 c 1,30,-1
 20 700 l 1,0,-1
EndSplineSet
Position2: "'cpsp' Capital Spacing lookup 0 subtable" dx=40 dy=0 dh=80 dv=0
EndChar

StartChar: lslash
Encoding: 322 322 245
Width: 352
Flags: W
LayerCount: 2
Fore
SplineSet
23 295 m 1,0,-1
 107 346 l 1,1,-1
 107 669 l 1,2,-1
 31 677 l 1,3,-1
 31 716 l 1,4,5
 44 722 44 722 67 728 c 128,-1,6
 90 734 90 734 116.5 738.5 c 128,-1,7
 143 743 143 743 169.5 746.5 c 128,-1,8
 196 750 196 750 217 752 c 1,9,-1
 251 752 l 1,10,-1
 251 433 l 1,11,-1
 331 482 l 1,12,-1
 331 403 l 1,13,-1
 251 354 l 1,14,-1
 251 63 l 1,15,16
 284 55 284 55 317 39 c 1,17,-1
 317 0 l 1,18,-1
 41 0 l 1,19,-1
 41 39 l 1,20,21
 74 55 74 55 107 63 c 1,22,-1
 107 267 l 1,23,-1
 23 216 l 1,24,-1
 23 295 l 1,0,-1
EndSplineSet
EndChar

StartChar: OE
Encoding: 338 338 256
Width: 983
Flags: W
LayerCount: 2
Fore
SplineSet
482 0 m 1,0,1
 459 -5 459 -5 429.5 -8.5 c 128,-1,2
 400 -12 400 -12 375 -12 c 0,3,4
 293 -12 293 -12 230 15 c 128,-1,5
 167 42 167 42 124.5 90.5 c 128,-1,6
 82 139 82 139 60.5 205.5 c 128,-1,7
 39 272 39 272 39 350 c 256,8,9
 39 428 39 428 60.5 494.5 c 128,-1,10
 82 561 82 561 124.5 609.5 c 128,-1,11
 167 658 167 658 230 685 c 128,-1,12
 293 712 293 712 375 712 c 0,13,14
 396 712 396 712 426.5 708.5 c 128,-1,15
 457 705 457 705 481 700 c 1,16,-1
 925 700 l 1,17,18
 923 655 923 655 918 607 c 128,-1,19
 913 559 913 559 905 517 c 1,20,-1
 864 517 l 1,21,-1
 818 635 l 1,22,-1
 631 635 l 1,23,-1
 631 390 l 1,24,-1
 753 390 l 1,25,-1
 797 467 l 1,26,-1
 829 467 l 1,27,28
 834 418 834 418 834 358 c 128,-1,29
 834 298 834 298 829 246 c 1,30,-1
 797 246 l 1,31,-1
 753 325 l 1,32,-1
 631 325 l 1,33,-1
 631 65 l 1,34,-1
 826 65 l 1,35,-1
 879 192 l 1,36,-1
 920 192 l 1,37,38
 924 173 924 173 928 149 c 128,-1,39
 932 125 932 125 934.5 99.5 c 128,-1,40
 937 74 937 74 938.5 48 c 128,-1,41
 940 22 940 22 940 0 c 1,42,-1
 482 0 l 1,0,1
386 53 m 0,43,44
 410 53 410 53 435.5 59.5 c 128,-1,45
 461 66 461 66 481 77 c 1,46,-1
 481 617 l 1,47,48
 458 630 458 630 429 638.5 c 128,-1,49
 400 647 400 647 369 647 c 0,50,51
 323 647 323 647 292 624.5 c 128,-1,52
 261 602 261 602 242.5 562.5 c 128,-1,53
 224 523 224 523 216.5 468.5 c 128,-1,54
 209 414 209 414 209 350 c 256,55,56
 209 286 209 286 219 231.5 c 128,-1,57
 229 177 229 177 250.5 137.5 c 128,-1,58
 272 98 272 98 305.5 75.5 c 128,-1,59
 339 53 339 53 386 53 c 0,43,44
EndSplineSet
Position2: "'cpsp' Capital Spacing lookup 0 subtable" dx=40 dy=0 dh=80 dv=0
EndChar

StartChar: oe
Encoding: 339 339 257
Width: 913
Flags: W
LayerCount: 2
Fore
SplineSet
186 250 m 0,0,1
 186 205 186 205 191.5 167 c 128,-1,2
 197 129 197 129 211.5 102 c 128,-1,3
 226 75 226 75 250.5 60 c 128,-1,4
 275 45 275 45 314 45 c 0,5,6
 361 45 361 45 384.5 91.5 c 128,-1,7
 408 138 408 138 408 250 c 0,8,9
 408 296 408 296 402.5 333.5 c 128,-1,10
 397 371 397 371 383.5 398 c 128,-1,11
 370 425 370 425 347 440 c 128,-1,12
 324 455 324 455 289 455 c 0,13,14
 236 455 236 455 211 408.5 c 128,-1,15
 186 362 186 362 186 250 c 0,0,1
484 61 m 1,16,17
 449 22 449 22 401.5 5 c 128,-1,18
 354 -12 354 -12 297 -12 c 0,19,20
 229 -12 229 -12 179 7.5 c 128,-1,21
 129 27 129 27 96 61.5 c 128,-1,22
 63 96 63 96 47 144.5 c 128,-1,23
 31 193 31 193 31 250 c 0,24,25
 31 311 31 311 49.5 359.5 c 128,-1,26
 68 408 68 408 102.5 442 c 128,-1,27
 137 476 137 476 186 494 c 128,-1,28
 235 512 235 512 297 512 c 256,29,30
 359 512 359 512 408 493 c 128,-1,31
 457 474 457 474 483 439 c 1,32,33
 514 476 514 476 559 494 c 128,-1,34
 604 512 604 512 660 512 c 0,35,36
 711 512 711 512 755.5 498 c 128,-1,37
 800 484 800 484 829.5 452 c 128,-1,38
 859 420 859 420 870.5 368 c 128,-1,39
 882 316 882 316 869 241 c 1,40,-1
 562 241 l 1,41,42
 563 162 563 162 603 115 c 128,-1,43
 643 68 643 68 719 68 c 0,44,45
 753 68 753 68 788 78 c 128,-1,46
 823 88 823 88 843 104 c 1,47,-1
 862 84 l 1,48,49
 854 67 854 67 836.5 49.5 c 128,-1,50
 819 32 819 32 793.5 18.5 c 128,-1,51
 768 5 768 5 734.5 -3.5 c 128,-1,52
 701 -12 701 -12 662 -12 c 0,53,54
 633 -12 633 -12 606 -6.5 c 128,-1,55
 579 -1 579 -1 555.5 8.5 c 128,-1,56
 532 18 532 18 513.5 31.5 c 128,-1,57
 495 45 495 45 484 61 c 1,16,17
656 455 m 0,58,59
 636 455 636 455 620.5 448 c 128,-1,60
 605 441 605 441 593.5 422.5 c 128,-1,61
 582 404 582 404 575 372.5 c 128,-1,62
 568 341 568 341 565 293 c 1,63,-1
 726 293 l 1,64,65
 733 371 733 371 717 413 c 128,-1,66
 701 455 701 455 656 455 c 0,58,59
EndSplineSet
EndChar

StartChar: Scedilla
Encoding: 350 350 268
Width: 558
Flags: W
LayerCount: 2
Fore
SplineSet
157 83 m 1,0,1
 168 72 168 72 188 62.5 c 128,-1,2
 208 53 208 53 241 53 c 0,3,4
 296 53 296 53 332.5 81.5 c 128,-1,5
 369 110 369 110 369 161 c 0,6,7
 369 198 369 198 345.5 223 c 128,-1,8
 322 248 322 248 286 269 c 128,-1,9
 250 290 250 290 209 310.5 c 128,-1,10
 168 331 168 331 132 359 c 128,-1,11
 96 387 96 387 72.5 425.5 c 128,-1,12
 49 464 49 464 49 521 c 0,13,14
 49 570 49 570 67 606 c 128,-1,15
 85 642 85 642 116.5 665.5 c 128,-1,16
 148 689 148 689 191 700.5 c 128,-1,17
 234 712 234 712 284 712 c 0,18,19
 345 712 345 712 397.5 703.5 c 128,-1,20
 450 695 450 695 492 677 c 1,21,22
 491 657 491 657 488.5 631 c 128,-1,23
 486 605 486 605 482 579.5 c 128,-1,24
 478 554 478 554 473.5 531.5 c 128,-1,25
 469 509 469 509 465 494 c 1,26,-1
 424 494 l 1,27,-1
 378 631 l 1,28,29
 366 637 366 637 342.5 642 c 128,-1,30
 319 647 319 647 294 647 c 0,31,32
 252 647 252 647 223 625 c 128,-1,33
 194 603 194 603 194 561 c 0,34,35
 194 523 194 523 218 496.5 c 128,-1,36
 242 470 242 470 278 448 c 128,-1,37
 314 426 314 426 356.5 404.5 c 128,-1,38
 399 383 399 383 435 355 c 128,-1,39
 471 327 471 327 495 289.5 c 128,-1,40
 519 252 519 252 519 197 c 0,41,42
 519 104 519 104 460.5 51 c 128,-1,43
 402 -2 402 -2 289 -10 c 1,44,-1
 268 -58 l 1,45,46
 328 -60 328 -60 365.5 -81.5 c 128,-1,47
 403 -103 403 -103 403 -147 c 0,48,49
 403 -180 403 -180 380.5 -204 c 128,-1,50
 358 -228 358 -228 325.5 -243.5 c 128,-1,51
 293 -259 293 -259 256 -266 c 128,-1,52
 219 -273 219 -273 191 -273 c 1,53,-1
 191 -227 l 1,54,55
 226 -222 226 -222 248.5 -207 c 128,-1,56
 271 -192 271 -192 270 -164 c 0,57,58
 269 -141 269 -141 252.5 -128 c 128,-1,59
 236 -115 236 -115 194 -113 c 1,60,-1
 226 -11 l 1,61,62
 197 -10 197 -10 168 -5.5 c 128,-1,63
 139 -1 139 -1 114.5 5.5 c 128,-1,64
 90 12 90 12 71 19.5 c 128,-1,65
 52 27 52 27 42 35 c 1,66,67
 43 58 43 58 47 84.5 c 128,-1,68
 51 111 51 111 55.5 137.5 c 128,-1,69
 60 164 60 164 65 188 c 128,-1,70
 70 212 70 212 75 230 c 1,71,-1
 116 230 l 1,72,-1
 157 83 l 1,0,1
EndSplineSet
Substitution2: "'locl' Localized Forms in Latin lookup 9 subtable" Scommaaccent
Position2: "'cpsp' Capital Spacing lookup 0 subtable" dx=40 dy=0 dh=80 dv=0
EndChar

StartChar: scedilla
Encoding: 351 351 269
Width: 462
Flags: W
LayerCount: 2
Fore
SplineSet
298 109 m 0,0,1
 298 138 298 138 279 157 c 128,-1,2
 260 176 260 176 231 191 c 128,-1,3
 202 206 202 206 168.5 221 c 128,-1,4
 135 236 135 236 106 256.5 c 128,-1,5
 77 277 77 277 58 306 c 128,-1,6
 39 335 39 335 39 380 c 0,7,8
 39 440 39 440 90.5 476 c 128,-1,9
 142 512 142 512 226 512 c 0,10,11
 280 512 280 512 329 503.5 c 128,-1,12
 378 495 378 495 413 480 c 1,13,14
 409 448 409 448 397 411.5 c 128,-1,15
 385 375 385 375 374 345 c 1,16,-1
 340 345 l 1,17,-1
 298 447 l 1,18,19
 286 452 286 452 270.5 453.5 c 128,-1,20
 255 455 255 455 239 455 c 0,21,22
 205 455 205 455 189 437.5 c 128,-1,23
 173 420 173 420 173 398 c 0,24,25
 173 371 173 371 192 353 c 128,-1,26
 211 335 211 335 240 319.5 c 128,-1,27
 269 304 269 304 302.5 289.5 c 128,-1,28
 336 275 336 275 365 255 c 128,-1,29
 394 235 394 235 413 207 c 128,-1,30
 432 179 432 179 432 138 c 0,31,32
 432 70 432 70 380 30.5 c 128,-1,33
 328 -9 328 -9 233 -12 c 1,34,-1
 212 -68 l 1,35,36
 272 -71 272 -71 303.5 -89.5 c 128,-1,37
 335 -108 335 -108 336 -144 c 0,38,39
 336 -173 336 -173 319 -194 c 128,-1,40
 302 -215 302 -215 274 -229 c 128,-1,41
 246 -243 246 -243 211 -250 c 128,-1,42
 176 -257 176 -257 141 -257 c 1,43,-1
 141 -218 l 1,44,45
 211 -207 211 -207 211 -161 c 1,46,47
 210 -138 210 -138 191.5 -128 c 128,-1,48
 173 -118 173 -118 138 -114 c 1,49,-1
 175 -10 l 1,50,51
 135 -5 135 -5 96.5 3.5 c 128,-1,52
 58 12 58 12 29 26 c 1,53,54
 31 62 31 62 46 99 c 128,-1,55
 61 136 61 136 78 165 c 1,56,-1
 112 165 l 1,57,-1
 161 56 l 1,58,59
 172 48 172 48 188 46.5 c 128,-1,60
 204 45 204 45 216 45 c 0,61,62
 248 45 248 45 273 62 c 128,-1,63
 298 79 298 79 298 109 c 0,0,1
EndSplineSet
Substitution2: "'locl' Localized Forms in Latin lookup 9 subtable" scommaaccent
EndChar

StartChar: Tcedilla
Encoding: 354 354 272
Width: 666
Flags: W
LayerCount: 2
Fore
SplineSet
505 0 m 1,0,-1
 362 0 l 1,1,-1
 337 -58 l 1,2,3
 397 -60 397 -60 434.5 -81.5 c 128,-1,4
 472 -103 472 -103 472 -147 c 0,5,6
 472 -180 472 -180 449.5 -204 c 128,-1,7
 427 -228 427 -228 395 -243.5 c 128,-1,8
 363 -259 363 -259 325.5 -266 c 128,-1,9
 288 -273 288 -273 260 -273 c 1,10,-1
 260 -227 l 1,11,12
 295 -222 295 -222 317.5 -207 c 128,-1,13
 340 -192 340 -192 339 -164 c 0,14,15
 338 -141 338 -141 321.5 -128 c 128,-1,16
 305 -115 305 -115 263 -113 c 1,17,-1
 298 0 l 1,18,-1
 161 0 l 1,19,-1
 161 38 l 1,20,21
 181 46 181 46 206.5 54.5 c 128,-1,22
 232 63 232 63 258 67 c 1,23,-1
 258 635 l 1,24,-1
 142 635 l 1,25,-1
 78 464 l 1,26,-1
 37 464 l 1,27,28
 33 484 33 484 29 515 c 128,-1,29
 25 546 25 546 22 579 c 128,-1,30
 19 612 19 612 17 644.5 c 128,-1,31
 15 677 15 677 15 700 c 1,32,-1
 651 700 l 1,33,34
 651 676 651 676 649 644 c 128,-1,35
 647 612 647 612 644 579 c 128,-1,36
 641 546 641 546 637 515.5 c 128,-1,37
 633 485 633 485 629 464 c 1,38,-1
 588 464 l 1,39,-1
 524 635 l 1,40,-1
 408 635 l 1,41,-1
 408 67 l 1,42,43
 434 62 434 62 459.5 55 c 128,-1,44
 485 48 485 48 505 38 c 1,45,-1
 505 0 l 1,0,-1
EndSplineSet
Substitution2: "'locl' Localized Forms in Latin lookup 9 subtable" Tcommaaccent
Position2: "'cpsp' Capital Spacing lookup 0 subtable" dx=40 dy=0 dh=80 dv=0
EndChar

StartChar: tcedilla
Encoding: 355 355 273
Width: 399
Flags: W
LayerCount: 2
Fore
SplineSet
8 476 m 1,0,1
 46 500 46 500 88 510 c 1,2,-1
 88 591 l 1,3,4
 96 597 96 597 127.5 608.5 c 128,-1,5
 159 620 159 620 198 627 c 1,6,-1
 232 627 l 1,7,-1
 232 500 l 1,8,-1
 364 500 l 1,9,-1
 364 437 l 1,10,-1
 232 437 l 1,11,-1
 232 178 l 2,12,13
 232 116 232 116 247.5 92 c 128,-1,14
 263 68 263 68 299 68 c 0,15,16
 318 68 318 68 340 70.5 c 128,-1,17
 362 73 362 73 381 80 c 1,18,-1
 388 47 l 1,19,20
 372 32 372 32 336.5 14.5 c 128,-1,21
 301 -3 301 -3 256 -8 c 0,22,23
 248 -9 248 -9 241.5 -10 c 128,-1,24
 235 -11 235 -11 227 -11 c 1,25,-1
 206 -68 l 1,26,27
 266 -71 266 -71 297.5 -89.5 c 128,-1,28
 329 -108 329 -108 330 -144 c 0,29,30
 330 -173 330 -173 313 -194 c 128,-1,31
 296 -215 296 -215 268 -229 c 128,-1,32
 240 -243 240 -243 205 -250 c 128,-1,33
 170 -257 170 -257 135 -257 c 1,34,-1
 135 -218 l 1,35,36
 205 -207 205 -207 205 -161 c 1,37,38
 204 -138 204 -138 185.5 -128 c 128,-1,39
 167 -118 167 -118 132 -114 c 1,40,-1
 170 -6 l 1,41,42
 88 13 88 13 88 132 c 2,43,-1
 88 437 l 1,44,-1
 8 437 l 1,45,-1
 8 476 l 1,0,1
EndSplineSet
Substitution2: "'locl' Localized Forms in Latin lookup 9 subtable" tcommaaccent
EndChar

StartChar: Uogonek
Encoding: 370 370 284
Width: 715
Flags: W
LayerCount: 2
Fore
SplineSet
7 700 m 1,0,-1
 315 700 l 1,1,-1
 315 662 l 1,2,3
 282 641 282 641 239 633 c 1,4,-1
 239 248 l 2,5,6
 239 199 239 199 250 166 c 128,-1,7
 261 133 261 133 282 112.5 c 128,-1,8
 303 92 303 92 332.5 83 c 128,-1,9
 362 74 362 74 399 74 c 0,10,11
 432 74 432 74 459.5 83.5 c 128,-1,12
 487 93 487 93 507.5 114 c 128,-1,13
 528 135 528 135 539 169 c 128,-1,14
 550 203 550 203 550 253 c 2,15,-1
 550 628 l 1,16,17
 527 633 527 633 502.5 642 c 128,-1,18
 478 651 478 651 462 662 c 1,19,-1
 462 700 l 1,20,-1
 710 700 l 1,21,-1
 710 662 l 1,22,23
 692 649 692 649 670 641 c 128,-1,24
 648 633 648 633 627 628 c 1,25,-1
 627 252 l 2,26,27
 627 159 627 159 591.5 99 c 128,-1,28
 556 39 556 39 489 12 c 1,29,30
 465 -1 465 -1 446 -18.5 c 128,-1,31
 427 -36 427 -36 414.5 -56 c 128,-1,32
 402 -76 402 -76 395 -96.5 c 128,-1,33
 388 -117 388 -117 388 -135 c 0,34,35
 388 -161 388 -161 404 -175 c 128,-1,36
 420 -189 420 -189 442 -189 c 0,37,38
 454 -189 454 -189 465 -188 c 128,-1,39
 476 -187 476 -187 488 -184 c 1,40,-1
 488 -227 l 1,41,42
 474 -238 474 -238 447 -246.5 c 128,-1,43
 420 -255 420 -255 388 -255 c 0,44,45
 327 -255 327 -255 294 -226.5 c 128,-1,46
 261 -198 261 -198 261 -157 c 0,47,48
 261 -106 261 -106 295.5 -71.5 c 128,-1,49
 330 -37 330 -37 385 -9 c 1,50,-1
 369 -9 l 2,51,52
 235 -9 235 -9 162 51 c 128,-1,53
 89 111 89 111 89 243 c 2,54,-1
 89 633 l 1,55,56
 69 636 69 636 47 643.5 c 128,-1,57
 25 651 25 651 7 662 c 1,58,-1
 7 700 l 1,0,-1
EndSplineSet
Position2: "'cpsp' Capital Spacing lookup 0 subtable" dx=40 dy=0 dh=80 dv=0
EndChar

StartChar: uogonek
Encoding: 371 371 285
Width: 622
Flags: W
LayerCount: 2
Fore
SplineSet
71 198 m 0,0,1
 71 261 71 261 74 315 c 128,-1,2
 77 369 77 369 77 429 c 1,3,-1
 11 437 l 1,4,-1
 11 476 l 1,5,6
 27 482 27 482 51 488.5 c 128,-1,7
 75 495 75 495 101.5 500 c 128,-1,8
 128 505 128 505 152.5 508.5 c 128,-1,9
 177 512 177 512 193 512 c 2,10,-1
 221 512 l 1,11,12
 221 437 221 437 218 364.5 c 128,-1,13
 215 292 215 292 215 222 c 0,14,15
 215 140 215 140 231.5 104 c 128,-1,16
 248 68 248 68 293 68 c 0,17,18
 324 68 324 68 350.5 91.5 c 128,-1,19
 377 115 377 115 394 167 c 1,20,-1
 394 429 l 1,21,-1
 329 437 l 1,22,-1
 329 476 l 1,23,24
 344 482 344 482 366.5 488 c 128,-1,25
 389 494 389 494 413.5 498.5 c 128,-1,26
 438 503 438 503 462 506.5 c 128,-1,27
 486 510 486 510 504 512 c 1,28,-1
 538 512 l 1,29,-1
 538 71 l 1,30,-1
 604 63 l 1,31,-1
 604 28 l 1,32,33
 594 23 594 23 583 19.5 c 128,-1,34
 572 16 572 16 558 11 c 1,35,36
 519 -12 519 -12 496 -48 c 128,-1,37
 473 -84 473 -84 473 -119 c 0,38,39
 473 -138 473 -138 485.5 -153.5 c 128,-1,40
 498 -169 498 -169 521 -169 c 256,41,42
 544 -169 544 -169 571 -160 c 1,43,-1
 571 -206 l 1,44,45
 564 -210 564 -210 552.5 -213.5 c 128,-1,46
 541 -217 541 -217 528.5 -220 c 128,-1,47
 516 -223 516 -223 503.5 -224.5 c 128,-1,48
 491 -226 491 -226 482 -226 c 0,49,50
 413 -226 413 -226 381 -199 c 128,-1,51
 349 -172 349 -172 349 -134 c 0,52,53
 349 -93 349 -93 375 -62.5 c 128,-1,54
 401 -32 401 -32 451 -9 c 1,55,-1
 430 -10 l 1,56,-1
 405 -10 l 1,57,-1
 398 109 l 1,58,-1
 394 109 l 1,59,60
 390 90 390 90 378.5 70 c 128,-1,61
 367 50 367 50 349.5 33.5 c 128,-1,62
 332 17 332 17 308 5 c 128,-1,63
 284 -7 284 -7 256 -10 c 0,64,65
 245 -11 245 -11 234.5 -11.5 c 128,-1,66
 224 -12 224 -12 213 -11 c 0,67,68
 180 -9 180 -9 153.5 2 c 128,-1,69
 127 13 127 13 109 37 c 128,-1,70
 91 61 91 61 81 100.5 c 128,-1,71
 71 140 71 140 71 198 c 0,0,1
EndSplineSet
EndChar

StartChar: longs
Encoding: 383 383 293
Width: 372
Flags: W
LayerCount: 2
Fore
SplineSet
321 752 m 0,0,1
 362 752 362 752 394.5 744.5 c 128,-1,2
 427 737 427 737 444 730 c 1,3,4
 441 697 441 697 431 662 c 128,-1,5
 421 627 421 627 413 604 c 1,6,-1
 379 604 l 1,7,-1
 335 699 l 1,8,9
 309 699 309 699 291.5 693.5 c 128,-1,10
 274 688 274 688 263.5 672 c 128,-1,11
 253 656 253 656 248 626.5 c 128,-1,12
 243 597 243 597 243 550 c 2,13,-1
 243 63 l 1,14,15
 295 57 295 57 339 39 c 1,16,-1
 339 0 l 1,17,-1
 33 0 l 1,18,-1
 33 39 l 1,19,20
 64 57 64 57 99 63 c 1,21,-1
 99 437 l 1,22,-1
 23 437 l 1,23,-1
 23 476 l 1,24,25
 58 498 58 498 99 509 c 1,26,-1
 99 544 l 2,27,28
 99 606 99 606 116.5 646.5 c 128,-1,29
 134 687 134 687 164 710.5 c 128,-1,30
 194 734 194 734 234.5 743 c 128,-1,31
 275 752 275 752 321 752 c 0,0,1
EndSplineSet
EndChar

StartChar: florin
Encoding: 402 402 294
Width: 565
Flags: W
LayerCount: 2
Fore
SplineSet
185 437 m 1,0,-1
 115 437 l 1,1,-1
 115 476 l 1,2,3
 135 487 135 487 157.5 495.5 c 128,-1,4
 180 504 180 504 200 509 c 1,5,-1
 207 544 l 2,6,7
 220 606 220 606 242.5 646.5 c 128,-1,8
 265 687 265 687 295 710.5 c 128,-1,9
 325 734 325 734 362.5 743 c 128,-1,10
 400 752 400 752 444 752 c 0,11,12
 476 752 476 752 509 746.5 c 128,-1,13
 542 741 542 741 563 730 c 1,14,15
 565 716 565 716 561.5 699.5 c 128,-1,16
 558 683 558 683 550.5 668 c 128,-1,17
 543 653 543 653 532.5 641 c 128,-1,18
 522 629 522 629 510 623 c 1,19,-1
 439 699 l 1,20,21
 425 696 425 696 411.5 690 c 128,-1,22
 398 684 398 684 386 668.5 c 128,-1,23
 374 653 374 653 363 625 c 128,-1,24
 352 597 352 597 342 550 c 2,25,-1
 332 500 l 1,26,-1
 443 500 l 1,27,28
 445 489 445 489 442.5 469.5 c 128,-1,29
 440 450 440 450 430 437 c 1,30,-1
 319 437 l 1,31,-1
 263 43 l 2,32,33
 252 -28 252 -28 221 -75 c 128,-1,34
 190 -122 190 -122 152.5 -150.5 c 128,-1,35
 115 -179 115 -179 77.5 -193 c 128,-1,36
 40 -207 40 -207 16 -212 c 1,37,-1
 5 -180 l 1,38,39
 17 -174 17 -174 35 -160 c 128,-1,40
 53 -146 53 -146 71 -122 c 128,-1,41
 89 -98 89 -98 104.5 -62 c 128,-1,42
 120 -26 120 -26 128 24 c 1,43,-1
 185 437 l 1,0,-1
EndSplineSet
EndChar

StartChar: uni0237
Encoding: 567 567 301
Width: 320
Flags: W
LayerCount: 2
Fore
SplineSet
97 429 m 1,0,-1
 31 437 l 1,1,-1
 31 476 l 1,2,3
 46 483 46 483 68 489 c 128,-1,4
 90 495 90 495 115 499.5 c 128,-1,5
 140 504 140 504 164.5 507 c 128,-1,6
 189 510 189 510 207 512 c 1,7,-1
 241 512 l 1,8,-1
 241 43 l 2,9,10
 241 -4 241 -4 229.5 -41 c 128,-1,11
 218 -78 218 -78 199.5 -105 c 128,-1,12
 181 -132 181 -132 158.5 -151 c 128,-1,13
 136 -170 136 -170 114.5 -182.5 c 128,-1,14
 93 -195 93 -195 75 -202 c 128,-1,15
 57 -209 57 -209 47 -212 c 1,16,-1
 27 -182 l 1,17,18
 39 -176 39 -176 51 -162.5 c 128,-1,19
 63 -149 63 -149 73.5 -125 c 128,-1,20
 84 -101 84 -101 90.5 -64.5 c 128,-1,21
 97 -28 97 -28 97 24 c 2,22,-1
 97 429 l 1,0,-1
EndSplineSet
EndChar

StartChar: circumflex
Encoding: 710 710 303
Width: 396
Flags: W
LayerCount: 2
Fore
SplineSet
102 577 m 1,0,-1
 60 602 l 1,1,-1
 170 788 l 1,2,3
 176 793 176 793 194.5 793.5 c 128,-1,4
 213 794 213 794 222 788 c 1,5,-1
 336 603 l 1,6,-1
 295 577 l 1,7,-1
 192 675 l 1,8,-1
 102 577 l 1,0,-1
EndSplineSet
EndChar

StartChar: caron
Encoding: 711 711 304
Width: 426
Flags: W
LayerCount: 2
Fore
SplineSet
324 792 m 1,0,1
 334 792 334 792 349 782.5 c 128,-1,2
 364 773 364 773 366 767 c 1,3,-1
 238 586 l 1,4,5
 230 581 230 581 213 581 c 128,-1,6
 196 581 196 581 186 586 c 1,7,-1
 60 766 l 1,8,9
 61 769 61 769 67 773.5 c 128,-1,10
 73 778 73 778 80.5 782 c 128,-1,11
 88 786 88 786 95.5 789 c 128,-1,12
 103 792 103 792 108 792 c 1,13,-1
 219 699 l 1,14,-1
 324 792 l 1,0,1
EndSplineSet
AlternateSubs2: "'aalt' Access All Alternates lookup 1 subtable" caron.l caron.L
EndChar

StartChar: breve
Encoding: 728 728 305
Width: 428
Flags: W
LayerCount: 2
Fore
SplineSet
368 724 m 1,0,1
 359 697 359 697 345 671.5 c 128,-1,2
 331 646 331 646 311.5 626.5 c 128,-1,3
 292 607 292 607 268 595.5 c 128,-1,4
 244 584 244 584 216 584 c 0,5,6
 187 584 187 584 162 595 c 128,-1,7
 137 606 137 606 117 625.5 c 128,-1,8
 97 645 97 645 82.5 671 c 128,-1,9
 68 697 68 697 60 726 c 1,10,-1
 97 748 l 1,11,12
 117 722 117 722 149 705 c 128,-1,13
 181 688 181 688 217 687 c 0,14,15
 292 685 292 685 335 744 c 1,16,-1
 368 724 l 1,0,1
EndSplineSet
EndChar

StartChar: dotaccent
Encoding: 729 729 306
Width: 292
Flags: W
LayerCount: 2
Fore
SplineSet
60 664 m 0,0,1
 60 699 60 699 84 719 c 128,-1,2
 108 739 108 739 146 739 c 256,3,4
 184 739 184 739 208 719 c 128,-1,5
 232 699 232 699 232 664 c 0,6,7
 232 630 232 630 208 610 c 128,-1,8
 184 590 184 590 146 590 c 256,9,10
 108 590 108 590 84 610 c 128,-1,11
 60 630 60 630 60 664 c 0,0,1
EndSplineSet
EndChar

StartChar: ring
Encoding: 730 730 307
Width: 350
Flags: W
LayerCount: 2
Fore
SplineSet
60 679 m 0,0,1
 60 720 60 720 90.5 750 c 128,-1,2
 121 780 121 780 178 780 c 0,3,4
 231 780 231 780 260.5 753 c 128,-1,5
 290 726 290 726 290 682 c 0,6,7
 290 640 290 640 259 612 c 128,-1,8
 228 584 228 584 177 584 c 0,9,10
 119 584 119 584 89.5 610.5 c 128,-1,11
 60 637 60 637 60 679 c 0,0,1
135 681 m 0,12,13
 135 658 135 658 146 646 c 128,-1,14
 157 634 157 634 174 634 c 0,15,16
 215 634 215 634 215 678 c 0,17,18
 215 705 215 705 203.5 717.5 c 128,-1,19
 192 730 192 730 175 730 c 0,20,21
 135 730 135 730 135 681 c 0,12,13
EndSplineSet
EndChar

StartChar: ogonek
Encoding: 731 731 308
Width: 345
Flags: W
LayerCount: 2
Fore
SplineSet
285 20 m 1,0,1
 239 -3 239 -3 211.5 -42 c 128,-1,2
 184 -81 184 -81 184 -119 c 0,3,4
 184 -138 184 -138 196 -153.5 c 128,-1,5
 208 -169 208 -169 232 -169 c 0,6,7
 255 -169 255 -169 282 -160 c 1,8,-1
 282 -206 l 1,9,10
 275 -210 275 -210 263.5 -213.5 c 128,-1,11
 252 -217 252 -217 239.5 -220 c 128,-1,12
 227 -223 227 -223 214.5 -224.5 c 128,-1,13
 202 -226 202 -226 193 -226 c 0,14,15
 124 -226 124 -226 92 -199 c 128,-1,16
 60 -172 60 -172 60 -134 c 0,17,18
 60 -80 60 -80 105 -43 c 128,-1,19
 150 -6 150 -6 234 20 c 1,20,-1
 285 20 l 1,0,1
EndSplineSet
EndChar

StartChar: tilde
Encoding: 732 732 309
Width: 445
Flags: W
LayerCount: 2
Fore
SplineSet
385 667 m 1,0,1
 355 633 355 633 323 617.5 c 128,-1,2
 291 602 291 602 268 602 c 0,3,4
 250 602 250 602 234 607.5 c 128,-1,5
 218 613 218 613 203 619 c 128,-1,6
 188 625 188 625 173.5 630.5 c 128,-1,7
 159 636 159 636 144 636 c 0,8,9
 131 636 131 636 117.5 631.5 c 128,-1,10
 104 627 104 627 88 616 c 1,11,-1
 60 658 l 1,12,13
 97 696 97 696 130.5 711 c 128,-1,14
 164 726 164 726 187 726 c 0,15,16
 205 726 205 726 220.5 721 c 128,-1,17
 236 716 236 716 250 710 c 128,-1,18
 264 704 264 704 278.5 699 c 128,-1,19
 293 694 293 694 308 694 c 0,20,21
 321 694 321 694 334 696.5 c 128,-1,22
 347 699 347 699 363 709 c 1,23,-1
 385 667 l 1,0,1
EndSplineSet
EndChar

StartChar: hungarumlaut
Encoding: 733 733 310
Width: 496
Flags: W
LayerCount: 2
Fore
SplineSet
128 768 m 1,0,1
 134 770 134 770 151 769 c 128,-1,2
 168 768 168 768 186.5 765 c 128,-1,3
 205 762 205 762 220.5 757.5 c 128,-1,4
 236 753 236 753 239 747 c 1,5,-1
 239 723 l 1,6,-1
 101 585 l 1,7,-1
 60 605 l 1,8,-1
 128 768 l 1,0,1
324 768 m 1,9,10
 331 770 331 770 347 769 c 128,-1,11
 363 768 363 768 381 764 c 128,-1,12
 399 760 399 760 414.5 754 c 128,-1,13
 430 748 430 748 436 740 c 1,14,-1
 436 718 l 1,15,-1
 228 585 l 1,16,-1
 191 607 l 1,17,-1
 324 768 l 1,9,10
EndSplineSet
EndChar

StartChar: uni03A9
Encoding: 937 937 313
AltUni2: 002126.ffffffff.0
Width: 797
Flags: W
LayerCount: 2
Fore
SplineSet
30 0 m 1,0,1
 30 18 30 18 31.5 48 c 128,-1,2
 33 78 33 78 36 111 c 128,-1,3
 39 144 39 144 42.5 176 c 128,-1,4
 46 208 46 208 50 230 c 1,5,-1
 84 230 l 1,6,-1
 128 112 l 1,7,-1
 296 112 l 1,8,9
 252 128 252 128 210 154 c 128,-1,10
 168 180 168 180 135 216 c 128,-1,11
 102 252 102 252 82 299 c 128,-1,12
 62 346 62 346 62 405 c 0,13,14
 62 477 62 477 87 534 c 128,-1,15
 112 591 112 591 157.5 630.5 c 128,-1,16
 203 670 203 670 266.5 691 c 128,-1,17
 330 712 330 712 406 712 c 0,18,19
 484 712 484 712 545.5 691.5 c 128,-1,20
 607 671 607 671 649.5 632.5 c 128,-1,21
 692 594 692 594 715 538 c 128,-1,22
 738 482 738 482 738 410 c 0,23,24
 738 348 738 348 716.5 298.5 c 128,-1,25
 695 249 695 249 661.5 212.5 c 128,-1,26
 628 176 628 176 587.5 151 c 128,-1,27
 547 126 547 126 510 112 c 1,28,-1
 668 112 l 1,29,-1
 713 230 l 1,30,-1
 747 230 l 1,31,32
 751 207 751 207 755 174.5 c 128,-1,33
 759 142 759 142 761.5 109 c 128,-1,34
 764 76 764 76 765.5 46.5 c 128,-1,35
 767 17 767 17 767 0 c 1,36,-1
 449 0 l 1,37,-1
 449 119 l 1,38,39
 470 129 470 129 492 154 c 128,-1,40
 514 179 514 179 532 215 c 128,-1,41
 550 251 550 251 561.5 296.5 c 128,-1,42
 573 342 573 342 573 394 c 0,43,44
 573 511 573 511 530.5 579 c 128,-1,45
 488 647 488 647 406 647 c 0,46,47
 357 647 357 647 323 629.5 c 128,-1,48
 289 612 289 612 267.5 580.5 c 128,-1,49
 246 549 246 549 236.5 504.5 c 128,-1,50
 227 460 227 460 227 405 c 0,51,52
 227 351 227 351 240 304 c 128,-1,53
 253 257 253 257 272.5 219.5 c 128,-1,54
 292 182 292 182 315 156 c 128,-1,55
 338 130 338 130 358 119 c 1,56,-1
 358 0 l 1,57,-1
 30 0 l 1,0,1
EndSplineSet
EndChar

StartChar: pi
Encoding: 960 960 314
Width: 678
Flags: W
LayerCount: 2
Fore
SplineSet
601 64 m 1,0,-1
 601 29 l 1,1,2
 587 23 587 23 566 16.5 c 128,-1,3
 545 10 545 10 520.5 5 c 128,-1,4
 496 0 496 0 469.5 -4 c 128,-1,5
 443 -8 443 -8 419 -9 c 1,6,-1
 385 -9 l 1,7,-1
 385 410 l 1,8,-1
 239 410 l 1,9,-1
 239 287 l 2,10,11
 239 192 239 192 228.5 119 c 128,-1,12
 218 46 218 46 199 0 c 1,13,14
 190 -5 190 -5 169 -5.5 c 128,-1,15
 148 -6 148 -6 126.5 -5.5 c 128,-1,16
 105 -5 105 -5 89 -3 c 128,-1,17
 73 -1 73 -1 73 0 c 2,18,-1
 67 9 l 1,19,20
 89 40 89 40 108.5 88.5 c 128,-1,21
 128 137 128 137 142.5 192.5 c 128,-1,22
 157 248 157 248 165 305 c 128,-1,23
 173 362 173 362 173 410 c 1,24,-1
 156 410 l 2,25,26
 128 410 128 410 106.5 395.5 c 128,-1,27
 85 381 85 381 62 351 c 1,28,-1
 40 359 l 1,29,30
 46 395 46 395 55.5 422.5 c 128,-1,31
 65 450 65 450 82 469 c 128,-1,32
 99 488 99 488 125.5 497.5 c 128,-1,33
 152 507 152 507 192 506 c 0,34,35
 203 506 203 506 235.5 505 c 128,-1,36
 268 504 268 504 310.5 503 c 128,-1,37
 353 502 353 502 401 501 c 128,-1,38
 449 500 449 500 490 500 c 0,39,40
 522 500 522 500 543 500.5 c 128,-1,41
 564 501 564 501 577.5 504 c 128,-1,42
 591 507 591 507 600.5 512 c 128,-1,43
 610 517 610 517 620 526 c 1,44,-1
 638 517 l 1,45,46
 636 467 636 467 613 438.5 c 128,-1,47
 590 410 590 410 547 410 c 2,48,-1
 535 410 l 1,49,-1
 535 72 l 1,50,-1
 601 64 l 1,0,-1
EndSplineSet
EndChar

StartChar: afii10051
Encoding: 1026 1026 316
Width: 804
Flags: W
LayerCount: 2
Fore
SplineSet
776 234 m 0,0,1
 776 162 776 162 759 115.5 c 128,-1,2
 742 69 742 69 709.5 42 c 128,-1,3
 677 15 677 15 630.5 5 c 128,-1,4
 584 -5 584 -5 525 -3 c 1,5,-1
 519 42 l 1,6,7
 547 48 547 48 567 58.5 c 128,-1,8
 587 69 587 69 600 87.5 c 128,-1,9
 613 106 613 106 619.5 135 c 128,-1,10
 626 164 626 164 626 208 c 0,11,12
 626 243 626 243 621.5 271 c 128,-1,13
 617 299 617 299 605.5 319 c 128,-1,14
 594 339 594 339 573.5 350 c 128,-1,15
 553 361 553 361 520 361 c 256,16,17
 487 361 487 361 457.5 351.5 c 128,-1,18
 428 342 428 342 403 327 c 1,19,-1
 403 67 l 1,20,21
 420 62 420 62 435 54 c 128,-1,22
 450 46 450 46 463 38 c 1,23,-1
 463 0 l 1,24,-1
 156 0 l 1,25,-1
 156 38 l 1,26,27
 176 46 176 46 201.5 54.5 c 128,-1,28
 227 63 227 63 253 67 c 1,29,-1
 253 635 l 1,30,-1
 137 635 l 1,31,-1
 73 464 l 1,32,-1
 32 464 l 1,33,34
 28 484 28 484 24 515 c 128,-1,35
 20 546 20 546 17 579 c 128,-1,36
 14 612 14 612 12 644.5 c 128,-1,37
 10 677 10 677 10 700 c 1,38,-1
 647 700 l 1,39,40
 647 676 647 676 645 648.5 c 128,-1,41
 643 621 643 621 640 593.5 c 128,-1,42
 637 566 637 566 633 540.5 c 128,-1,43
 629 515 629 515 625 494 c 1,44,-1
 583 494 l 1,45,-1
 519 635 l 1,46,-1
 403 635 l 1,47,-1
 403 387 l 1,48,49
 431 403 431 403 478 417 c 128,-1,50
 525 431 525 431 581 431 c 0,51,52
 621 431 621 431 656.5 422.5 c 128,-1,53
 692 414 692 414 718.5 392 c 128,-1,54
 745 370 745 370 760.5 332 c 128,-1,55
 776 294 776 294 776 234 c 0,0,1
EndSplineSet
Position2: "'cpsp' Capital Spacing lookup 0 subtable" dx=40 dy=0 dh=80 dv=0
EndChar

StartChar: afii10053
Encoding: 1028 1028 318
Width: 645
Flags: W
LayerCount: 2
Fore
SplineSet
540 210 m 1,0,-1
 581 210 l 1,1,2
 585 194 585 194 588.5 171.5 c 128,-1,3
 592 149 592 149 594.5 123.5 c 128,-1,4
 597 98 597 98 598 73 c 128,-1,5
 599 48 599 48 599 28 c 1,6,7
 564 6 564 6 511.5 -3 c 128,-1,8
 459 -12 459 -12 404 -12 c 0,9,10
 321 -12 321 -12 253.5 8.5 c 128,-1,11
 186 29 186 29 138.5 73.5 c 128,-1,12
 91 118 91 118 65 186.5 c 128,-1,13
 39 255 39 255 39 351 c 0,14,15
 39 446 39 446 67.5 514.5 c 128,-1,16
 96 583 96 583 144 627 c 128,-1,17
 192 671 192 671 255.5 691.5 c 128,-1,18
 319 712 319 712 389 712 c 0,19,20
 455 712 455 712 508.5 702.5 c 128,-1,21
 562 693 562 693 596 677 c 1,22,23
 596 661 596 661 594.5 636 c 128,-1,24
 593 611 593 611 589.5 583.5 c 128,-1,25
 586 556 586 556 581.5 529.5 c 128,-1,26
 577 503 577 503 573 485 c 1,27,-1
 531 485 l 1,28,-1
 476 636 l 1,29,30
 467 641 467 641 447 644 c 128,-1,31
 427 647 427 647 406 647 c 0,32,33
 367 647 367 647 332 632 c 128,-1,34
 297 617 297 617 270 584.5 c 128,-1,35
 243 552 243 552 226 501.5 c 128,-1,36
 209 451 209 451 206 381 c 1,37,-1
 475 397 l 1,38,39
 484 373 484 373 484.5 343 c 128,-1,40
 485 313 485 313 480 293 c 1,41,42
 418 302 418 302 345 306.5 c 128,-1,43
 272 311 272 311 206 313 c 1,44,45
 213 188 213 188 268.5 120.5 c 128,-1,46
 324 53 324 53 417 53 c 0,47,48
 445 53 445 53 464.5 57.5 c 128,-1,49
 484 62 484 62 491 70 c 1,50,-1
 540 210 l 1,0,-1
EndSplineSet
Position2: "'cpsp' Capital Spacing lookup 0 subtable" dx=40 dy=0 dh=80 dv=0
EndChar

StartChar: afii10056
Encoding: 1031 1031 321
Width: 372
Flags: W
LayerCount: 2
Fore
SplineSet
12 793 m 0,0,1
 12 825 12 825 31.5 841 c 128,-1,2
 51 857 51 857 86 857 c 256,3,4
 121 857 121 857 140.5 841 c 128,-1,5
 160 825 160 825 160 793 c 0,6,7
 160 765 160 765 140.5 749.5 c 128,-1,8
 121 734 121 734 86 734 c 256,9,10
 51 734 51 734 31.5 749.5 c 128,-1,11
 12 765 12 765 12 793 c 0,0,1
211 793 m 0,12,13
 211 825 211 825 231 841 c 128,-1,14
 251 857 251 857 286 857 c 0,15,16
 359 857 359 857 359 793 c 0,17,18
 359 765 359 765 340 749.5 c 128,-1,19
 321 734 321 734 286 734 c 256,20,21
 251 734 251 734 231 749.5 c 128,-1,22
 211 765 211 765 211 793 c 0,12,13
342 0 m 1,23,-1
 30 0 l 1,24,-1
 30 38 l 1,25,26
 70 60 70 60 111 67 c 1,27,-1
 111 633 l 1,28,29
 91 636 91 636 69 644 c 128,-1,30
 47 652 47 652 30 662 c 1,31,-1
 30 700 l 1,32,-1
 342 700 l 1,33,-1
 342 662 l 1,34,35
 324 651 324 651 302.5 643.5 c 128,-1,36
 281 636 281 636 261 633 c 1,37,-1
 261 67 l 1,38,39
 281 63 281 63 302.5 56 c 128,-1,40
 324 49 324 49 342 38 c 1,41,-1
 342 0 l 1,23,-1
EndSplineSet
Position2: "'cpsp' Capital Spacing lookup 0 subtable" dx=40 dy=0 dh=80 dv=0
EndChar

StartChar: afii10058
Encoding: 1033 1033 323
Width: 969
Flags: W
LayerCount: 2
Fore
SplineSet
373 0 m 1,0,-1
 373 38 l 1,1,2
 391 48 391 48 410 55.5 c 128,-1,3
 429 63 429 63 449 67 c 1,4,-1
 449 635 l 1,5,-1
 286 635 l 1,6,7
 283 483 283 483 272 381.5 c 128,-1,8
 261 280 261 280 245 214 c 128,-1,9
 229 148 229 148 209.5 109.5 c 128,-1,10
 190 71 190 71 169 43 c 0,11,12
 150 17 150 17 121 2.5 c 128,-1,13
 92 -12 92 -12 65 -12 c 1,14,15
 52 -7 52 -7 40 8.5 c 128,-1,16
 28 24 28 24 18 44 c 128,-1,17
 8 64 8 64 1.5 86 c 128,-1,18
 -5 108 -5 108 -6 127 c 1,19,-1
 21 165 l 1,20,-1
 140 136 l 1,21,22
 153 164 153 164 165.5 203.5 c 128,-1,23
 178 243 178 243 188 301 c 128,-1,24
 198 359 198 359 204 438 c 128,-1,25
 210 517 210 517 210 623 c 1,26,27
 179 628 179 628 151.5 639 c 128,-1,28
 124 650 124 650 104 662 c 1,29,-1
 104 700 l 1,30,-1
 687 700 l 1,31,-1
 687 662 l 1,32,33
 668 652 668 652 645.5 644.5 c 128,-1,34
 623 637 623 637 599 633 c 1,35,-1
 599 419 l 1,36,37
 617 422 617 422 642 424 c 128,-1,38
 667 426 667 426 687 426 c 0,39,40
 739 426 739 426 785.5 416 c 128,-1,41
 832 406 832 406 866.5 382 c 128,-1,42
 901 358 901 358 921.5 318 c 128,-1,43
 942 278 942 278 942 218 c 0,44,45
 942 162 942 162 920 120.5 c 128,-1,46
 898 79 898 79 860 51.5 c 128,-1,47
 822 24 822 24 771 10.5 c 128,-1,48
 720 -3 720 -3 662 -3 c 0,49,50
 657 -3 657 -3 641.5 -2.5 c 128,-1,51
 626 -2 626 -2 605.5 -1.5 c 128,-1,52
 585 -1 585 -1 564 -0.5 c 128,-1,53
 543 0 543 0 528 0 c 2,54,-1
 373 0 l 1,0,-1
651 361 m 0,55,56
 618 361 618 361 599 355 c 1,57,-1
 599 66 l 1,58,59
 607 64 607 64 625 63 c 128,-1,60
 643 62 643 62 652 62 c 0,61,62
 709 62 709 62 743 99 c 128,-1,63
 777 136 777 136 777 218 c 0,64,65
 777 361 777 361 651 361 c 0,55,56
EndSplineSet
Position2: "'cpsp' Capital Spacing lookup 0 subtable" dx=40 dy=0 dh=80 dv=0
EndChar

StartChar: afii10059
Encoding: 1034 1034 324
Width: 1037
Flags: W
LayerCount: 2
Fore
SplineSet
446 0 m 1,0,-1
 446 38 l 1,1,2
 463 49 463 49 479.5 56 c 128,-1,3
 496 63 496 63 517 67 c 1,4,-1
 517 339 l 1,5,-1
 252 339 l 1,6,-1
 252 67 l 1,7,8
 272 63 272 63 289 56 c 128,-1,9
 306 49 306 49 323 38 c 1,10,-1
 323 0 l 1,11,-1
 20 0 l 1,12,-1
 20 38 l 1,13,14
 37 47 37 47 59.5 55 c 128,-1,15
 82 63 82 63 102 67 c 1,16,-1
 102 633 l 1,17,18
 78 637 78 637 56 645 c 128,-1,19
 34 653 34 653 20 662 c 1,20,-1
 20 700 l 1,21,-1
 323 700 l 1,22,-1
 323 662 l 1,23,24
 308 652 308 652 289.5 644 c 128,-1,25
 271 636 271 636 252 633 c 1,26,-1
 252 404 l 1,27,-1
 517 404 l 1,28,-1
 517 633 l 1,29,30
 497 637 497 637 481.5 643.5 c 128,-1,31
 466 650 466 650 446 662 c 1,32,-1
 446 700 l 1,33,-1
 755 700 l 1,34,-1
 755 662 l 1,35,36
 736 652 736 652 713.5 644.5 c 128,-1,37
 691 637 691 637 667 633 c 1,38,-1
 667 403 l 1,39,40
 685 406 685 406 710 408 c 128,-1,41
 735 410 735 410 755 410 c 0,42,43
 807 410 807 410 853.5 400.5 c 128,-1,44
 900 391 900 391 934.5 367.5 c 128,-1,45
 969 344 969 344 989.5 305.5 c 128,-1,46
 1010 267 1010 267 1010 209 c 0,47,48
 1010 153 1010 153 988 113 c 128,-1,49
 966 73 966 73 928 47.5 c 128,-1,50
 890 22 890 22 839 9.5 c 128,-1,51
 788 -3 788 -3 730 -3 c 0,52,53
 725 -3 725 -3 709.5 -2.5 c 128,-1,54
 694 -2 694 -2 673.5 -1.5 c 128,-1,55
 653 -1 653 -1 632 -0.5 c 128,-1,56
 611 0 611 0 596 0 c 2,57,-1
 446 0 l 1,0,-1
719 345 m 0,58,59
 686 345 686 345 667 339 c 1,60,-1
 667 66 l 1,61,62
 675 64 675 64 693 63 c 128,-1,63
 711 62 711 62 720 62 c 0,64,65
 776 62 776 62 810.5 95.5 c 128,-1,66
 845 129 845 129 845 209 c 0,67,68
 845 279 845 279 813.5 312 c 128,-1,69
 782 345 782 345 719 345 c 0,58,59
EndSplineSet
Position2: "'cpsp' Capital Spacing lookup 0 subtable" dx=40 dy=0 dh=80 dv=0
EndChar

StartChar: afii10060
Encoding: 1035 1035 325
Width: 843
Flags: W
LayerCount: 2
Fore
SplineSet
403 635 m 1,0,-1
 403 385 l 1,1,2
 431 402 431 402 475.5 416 c 128,-1,3
 520 430 520 430 576 430 c 0,4,5
 616 430 616 430 651 421.5 c 128,-1,6
 686 413 686 413 711.5 392 c 128,-1,7
 737 371 737 371 751.5 334.5 c 128,-1,8
 766 298 766 298 766 242 c 2,9,-1
 766 67 l 1,10,11
 785 64 785 64 804 56 c 128,-1,12
 823 48 823 48 838 38 c 1,13,-1
 838 0 l 1,14,-1
 616 0 l 1,15,-1
 616 207 l 2,16,17
 616 242 616 242 612.5 270 c 128,-1,18
 609 298 609 298 598.5 318 c 128,-1,19
 588 338 588 338 568 349 c 128,-1,20
 548 360 548 360 515 360 c 256,21,22
 482 360 482 360 455 350.5 c 128,-1,23
 428 341 428 341 403 325 c 1,24,-1
 403 67 l 1,25,26
 420 62 420 62 436 54 c 128,-1,27
 452 46 452 46 465 38 c 1,28,-1
 465 0 l 1,29,-1
 156 0 l 1,30,-1
 156 38 l 1,31,32
 176 46 176 46 201.5 54.5 c 128,-1,33
 227 63 227 63 253 67 c 1,34,-1
 253 635 l 1,35,-1
 137 635 l 1,36,-1
 73 464 l 1,37,-1
 32 464 l 1,38,39
 28 484 28 484 24 515 c 128,-1,40
 20 546 20 546 17 579 c 128,-1,41
 14 612 14 612 12 644.5 c 128,-1,42
 10 677 10 677 10 700 c 1,43,-1
 647 700 l 1,44,45
 646 651 646 651 639.5 595 c 128,-1,46
 633 539 633 539 625 496 c 1,47,-1
 583 496 l 1,48,-1
 519 635 l 1,49,-1
 403 635 l 1,0,-1
EndSplineSet
Position2: "'cpsp' Capital Spacing lookup 0 subtable" dx=40 dy=0 dh=80 dv=0
EndChar

StartChar: afii10145
Encoding: 1039 1039 328
Width: 758
Flags: W
LayerCount: 2
Fore
SplineSet
320 662 m 1,0,1
 304 652 304 652 288 644.5 c 128,-1,2
 272 637 272 637 252 633 c 1,3,-1
 252 65 l 1,4,-1
 506 65 l 1,5,-1
 506 633 l 1,6,7
 480 638 480 638 464 646 c 128,-1,8
 448 654 448 654 438 662 c 1,9,-1
 438 700 l 1,10,-1
 738 700 l 1,11,-1
 738 662 l 1,12,13
 716 649 716 649 696 642 c 128,-1,14
 676 635 676 635 656 633 c 1,15,-1
 656 67 l 1,16,17
 677 63 677 63 698 56.5 c 128,-1,18
 719 50 719 50 738 38 c 1,19,-1
 738 0 l 1,20,-1
 453 0 l 1,21,22
 446 -48 446 -48 430.5 -101 c 128,-1,23
 415 -154 415 -154 401 -200 c 1,24,-1
 357 -200 l 1,25,26
 340 -150 340 -150 326.5 -99 c 128,-1,27
 313 -48 313 -48 305 0 c 1,28,-1
 20 0 l 1,29,-1
 20 38 l 1,30,31
 39 49 39 49 60.5 56 c 128,-1,32
 82 63 82 63 102 67 c 1,33,-1
 102 633 l 1,34,35
 75 637 75 637 55 645 c 128,-1,36
 35 653 35 653 20 662 c 1,37,-1
 20 700 l 1,38,-1
 320 700 l 1,39,-1
 320 662 l 1,0,1
EndSplineSet
Position2: "'cpsp' Capital Spacing lookup 0 subtable" dx=40 dy=0 dh=80 dv=0
EndChar

StartChar: afii10018
Encoding: 1041 1041 330
Width: 641
Flags: W
LayerCount: 2
Fore
SplineSet
102 633 m 1,0,1
 55 641 55 641 20 662 c 1,2,-1
 20 700 l 1,3,-1
 557 700 l 1,4,5
 557 677 557 677 555 649 c 128,-1,6
 553 621 553 621 550 593 c 128,-1,7
 547 565 547 565 543 539 c 128,-1,8
 539 513 539 513 535 492 c 1,9,-1
 494 492 l 1,10,-1
 432 635 l 1,11,-1
 252 635 l 1,12,-1
 252 407 l 1,13,14
 261 408 261 408 274 409.5 c 128,-1,15
 287 411 287 411 300.5 412 c 128,-1,16
 314 413 314 413 327.5 413.5 c 128,-1,17
 341 414 341 414 351 414 c 0,18,19
 402 414 402 414 448 403 c 128,-1,20
 494 392 494 392 528.5 367.5 c 128,-1,21
 563 343 563 343 583.5 304 c 128,-1,22
 604 265 604 265 604 210 c 0,23,24
 604 157 604 157 582.5 117 c 128,-1,25
 561 77 561 77 523.5 50.5 c 128,-1,26
 486 24 486 24 434.5 10.5 c 128,-1,27
 383 -3 383 -3 323 -3 c 0,28,29
 318 -3 318 -3 298 -2.5 c 128,-1,30
 278 -2 278 -2 253 -1.5 c 128,-1,31
 228 -1 228 -1 203 -0.5 c 128,-1,32
 178 0 178 0 163 0 c 2,33,-1
 20 0 l 1,34,-1
 20 38 l 1,35,36
 39 49 39 49 59.5 56.5 c 128,-1,37
 80 64 80 64 102 67 c 1,38,-1
 102 633 l 1,0,1
308 349 m 0,39,40
 292 349 292 349 277 347.5 c 128,-1,41
 262 346 262 346 252 343 c 1,42,-1
 252 66 l 1,43,44
 256 65 256 65 264.5 64 c 128,-1,45
 273 63 273 63 282 62.5 c 128,-1,46
 291 62 291 62 299.5 62 c 128,-1,47
 308 62 308 62 313 62 c 0,48,49
 372 62 372 62 405.5 100 c 128,-1,50
 439 138 439 138 439 207 c 0,51,52
 439 273 439 273 408 311 c 128,-1,53
 377 349 377 349 308 349 c 0,39,40
EndSplineSet
Position2: "'cpsp' Capital Spacing lookup 0 subtable" dx=40 dy=0 dh=80 dv=0
EndChar

StartChar: afii10020
Encoding: 1043 1043 332
Width: 543
Flags: W
LayerCount: 2
Fore
SplineSet
252 67 m 1,0,1
 277 63 277 63 301.5 55 c 128,-1,2
 326 47 326 47 348 38 c 1,3,-1
 348 0 l 1,4,-1
 20 0 l 1,5,-1
 20 38 l 1,6,7
 64 60 64 60 102 67 c 1,8,-1
 102 633 l 1,9,10
 82 637 82 637 60.5 644 c 128,-1,11
 39 651 39 651 20 662 c 1,12,-1
 20 700 l 1,13,-1
 532 700 l 1,14,15
 532 676 532 676 531 645 c 128,-1,16
 530 614 530 614 528 581 c 128,-1,17
 526 548 526 548 522 516.5 c 128,-1,18
 518 485 518 485 514 460 c 1,19,-1
 473 460 l 1,20,-1
 410 635 l 1,21,-1
 252 635 l 1,22,-1
 252 67 l 1,0,1
EndSplineSet
Position2: "'cpsp' Capital Spacing lookup 0 subtable" dx=40 dy=0 dh=80 dv=0
EndChar

StartChar: afii10021
Encoding: 1044 1044 333
Width: 727
Flags: W
LayerCount: 2
Fore
SplineSet
716 65 m 1,0,1
 716 42 716 42 714 12.5 c 128,-1,2
 712 -17 712 -17 708.5 -48 c 128,-1,3
 705 -79 705 -79 700.5 -109 c 128,-1,4
 696 -139 696 -139 690 -163 c 1,5,-1
 651 -163 l 1,6,-1
 597 0 l 1,7,-1
 119 0 l 1,8,-1
 65 -163 l 1,9,-1
 26 -163 l 1,10,11
 20 -138 20 -138 15 -107 c 128,-1,12
 10 -76 10 -76 6.5 -44.5 c 128,-1,13
 3 -13 3 -13 1.5 16 c 128,-1,14
 0 45 0 45 0 65 c 1,15,-1
 87 65 l 1,16,17
 115 107 115 107 138.5 169 c 128,-1,18
 162 231 162 231 178.5 304.5 c 128,-1,19
 195 378 195 378 203.5 459.5 c 128,-1,20
 212 541 212 541 212 623 c 1,21,22
 186 628 186 628 158 638 c 128,-1,23
 130 648 130 648 106 662 c 1,24,-1
 106 700 l 1,25,-1
 681 700 l 1,26,-1
 681 662 l 1,27,28
 646 643 646 643 599 633 c 1,29,-1
 599 65 l 1,30,-1
 716 65 l 1,0,1
449 65 m 1,31,-1
 449 635 l 1,32,-1
 288 635 l 1,33,34
 283 519 283 519 271 427 c 128,-1,35
 259 335 259 335 242.5 265 c 128,-1,36
 226 195 226 195 207 145.5 c 128,-1,37
 188 96 188 96 170 65 c 1,38,-1
 449 65 l 1,31,-1
EndSplineSet
Position2: "'cpsp' Capital Spacing lookup 0 subtable" dx=40 dy=0 dh=80 dv=0
EndChar

StartChar: afii10024
Encoding: 1046 1046 335
Width: 1023
Flags: W
LayerCount: 2
Fore
SplineSet
441 633 m 1,0,1
 421 638 421 638 404.5 646 c 128,-1,2
 388 654 388 654 376 662 c 1,3,-1
 376 700 l 1,4,-1
 636 700 l 1,5,-1
 636 662 l 1,6,7
 626 655 626 655 611.5 647.5 c 128,-1,8
 597 640 597 640 577 633 c 1,9,-1
 577 378 l 1,10,-1
 645 393 l 1,11,-1
 789 633 l 1,12,13
 769 638 769 638 750.5 646 c 128,-1,14
 732 654 732 654 716 662 c 1,15,-1
 716 700 l 1,16,-1
 981 700 l 1,17,-1
 981 662 l 1,18,19
 966 654 966 654 947.5 646 c 128,-1,20
 929 638 929 638 909 633 c 1,21,-1
 729 388 l 1,22,23
 755 354 755 354 784.5 313 c 128,-1,24
 814 272 814 272 845.5 228.5 c 128,-1,25
 877 185 877 185 911.5 141.5 c 128,-1,26
 946 98 946 98 982 58 c 1,27,-1
 1023 34 l 1,28,-1
 1023 0 l 1,29,-1
 854 0 l 1,30,-1
 811 34 l 1,31,32
 782 68 782 68 758 104 c 128,-1,33
 734 140 734 140 713 177 c 128,-1,34
 692 214 692 214 672.5 252.5 c 128,-1,35
 653 291 653 291 631 330 c 1,36,-1
 577 330 l 1,37,-1
 577 67 l 1,38,39
 594 62 594 62 610 54.5 c 128,-1,40
 626 47 626 47 641 38 c 1,41,-1
 641 0 l 1,42,-1
 371 0 l 1,43,-1
 371 38 l 1,44,45
 385 47 385 47 402.5 54.5 c 128,-1,46
 420 62 420 62 441 67 c 1,47,-1
 441 339 l 1,48,-1
 384 324 l 1,49,50
 342 243 342 243 303.5 172 c 128,-1,51
 265 101 265 101 212 34 c 1,52,-1
 169 0 l 1,53,-1
 0 0 l 1,54,-1
 0 34 l 1,55,-1
 41 58 l 1,56,57
 77 98 77 98 111 141 c 128,-1,58
 145 184 145 184 176 226 c 128,-1,59
 207 268 207 268 234 307 c 128,-1,60
 261 346 261 346 284 378 c 1,61,-1
 105 633 l 1,62,63
 85 638 85 638 68 646 c 128,-1,64
 51 654 51 654 38 662 c 1,65,-1
 38 700 l 1,66,-1
 302 700 l 1,67,-1
 302 662 l 1,68,69
 289 654 289 654 271 646 c 128,-1,70
 253 638 253 638 233 633 c 1,71,-1
 377 387 l 1,72,-1
 441 387 l 1,73,-1
 441 633 l 1,0,1
EndSplineSet
Position2: "'cpsp' Capital Spacing lookup 0 subtable" dx=40 dy=0 dh=80 dv=0
EndChar

StartChar: afii10025
Encoding: 1047 1047 336
Width: 580
Flags: W
LayerCount: 2
Fore
SplineSet
252 -12 m 0,0,1
 224 -12 224 -12 193.5 -9 c 128,-1,2
 163 -6 163 -6 134 -1 c 128,-1,3
 105 4 105 4 80 11.5 c 128,-1,4
 55 19 55 19 38 27 c 1,5,6
 38 43 38 43 41.5 66 c 128,-1,7
 45 89 45 89 50 113.5 c 128,-1,8
 55 138 55 138 61.5 162.5 c 128,-1,9
 68 187 68 187 74 207 c 1,10,-1
 116 207 l 1,11,-1
 156 65 l 1,12,13
 167 60 167 60 191.5 56.5 c 128,-1,14
 216 53 216 53 237 53 c 0,15,16
 303 53 303 53 343 91 c 128,-1,17
 383 129 383 129 383 194 c 0,18,19
 383 265 383 265 348 294.5 c 128,-1,20
 313 324 313 324 254 324 c 1,21,-1
 177 311 l 1,22,23
 172 329 172 329 171 352 c 128,-1,24
 170 375 170 375 176 394 c 1,25,-1
 208 394 l 1,26,27
 225 393 225 393 247.5 394.5 c 128,-1,28
 270 396 270 396 286 398 c 1,29,30
 324 414 324 414 344.5 444.5 c 128,-1,31
 365 475 365 475 365 522 c 0,32,33
 365 581 365 581 334.5 614 c 128,-1,34
 304 647 304 647 248 647 c 0,35,36
 224 647 224 647 204.5 641.5 c 128,-1,37
 185 636 185 636 178 628 c 1,38,-1
 129 501 l 1,39,-1
 87 501 l 1,40,41
 83 516 83 516 79 535.5 c 128,-1,42
 75 555 75 555 72 577.5 c 128,-1,43
 69 600 69 600 66.5 623.5 c 128,-1,44
 64 647 64 647 64 669 c 1,45,46
 83 682 83 682 108.5 690 c 128,-1,47
 134 698 134 698 160.5 703 c 128,-1,48
 187 708 187 708 213 710 c 128,-1,49
 239 712 239 712 260 712 c 0,50,51
 308 712 308 712 355 705 c 128,-1,52
 402 698 402 698 438.5 678.5 c 128,-1,53
 475 659 475 659 497.5 625.5 c 128,-1,54
 520 592 520 592 520 540 c 0,55,56
 520 489 520 489 486.5 442.5 c 128,-1,57
 453 396 453 396 385 375 c 1,58,-1
 385 371 l 1,59,60
 416 366 416 366 444.5 353 c 128,-1,61
 473 340 473 340 495 319 c 128,-1,62
 517 298 517 298 530 268 c 128,-1,63
 543 238 543 238 543 199 c 0,64,65
 543 146 543 146 522 106 c 128,-1,66
 501 66 501 66 463 40 c 128,-1,67
 425 14 425 14 371.5 1 c 128,-1,68
 318 -12 318 -12 252 -12 c 0,0,1
EndSplineSet
Position2: "'cpsp' Capital Spacing lookup 0 subtable" dx=40 dy=0 dh=80 dv=0
EndChar

StartChar: afii10026
Encoding: 1048 1048 337
Width: 779
Flags: W
LayerCount: 2
Fore
SplineSet
321 0 m 1,0,-1
 20 0 l 1,1,-1
 20 38 l 1,2,3
 39 48 39 48 60 56 c 128,-1,4
 81 64 81 64 102 67 c 1,5,-1
 102 633 l 1,6,7
 82 638 82 638 60 644.5 c 128,-1,8
 38 651 38 651 20 662 c 1,9,-1
 20 700 l 1,10,-1
 321 700 l 1,11,-1
 321 662 l 1,12,13
 306 653 306 653 287 645 c 128,-1,14
 268 637 268 637 246 633 c 1,15,-1
 246 253 l 1,16,-1
 236 175 l 1,17,-1
 285 257 l 1,18,-1
 537 609 l 1,19,-1
 537 633 l 1,20,21
 490 644 490 644 458 662 c 1,22,-1
 458 700 l 1,23,-1
 759 700 l 1,24,-1
 759 662 l 1,25,26
 742 651 742 651 720.5 644.5 c 128,-1,27
 699 638 699 638 677 633 c 1,28,-1
 677 67 l 1,29,30
 700 63 700 63 720.5 55.5 c 128,-1,31
 741 48 741 48 759 38 c 1,32,-1
 759 0 l 1,33,-1
 458 0 l 1,34,-1
 458 38 l 1,35,36
 472 45 472 45 491.5 53.5 c 128,-1,37
 511 62 511 62 533 67 c 1,38,-1
 533 446 l 1,39,-1
 543 525 l 1,40,-1
 498 446 l 1,41,-1
 242 89 l 1,42,-1
 242 67 l 1,43,44
 265 62 265 62 285 54 c 128,-1,45
 305 46 305 46 321 38 c 1,46,-1
 321 0 l 1,0,-1
EndSplineSet
Position2: "'cpsp' Capital Spacing lookup 0 subtable" dx=40 dy=0 dh=80 dv=0
EndChar

StartChar: afii10029
Encoding: 1051 1051 340
Width: 701
Flags: W
LayerCount: 2
Fore
SplineSet
210 623 m 1,0,1
 179 628 179 628 151.5 639 c 128,-1,2
 124 650 124 650 104 662 c 1,3,-1
 104 700 l 1,4,-1
 681 700 l 1,5,-1
 681 662 l 1,6,7
 666 653 666 653 644.5 645 c 128,-1,8
 623 637 623 637 599 633 c 1,9,-1
 599 67 l 1,10,11
 622 63 622 63 642.5 55 c 128,-1,12
 663 47 663 47 681 38 c 1,13,-1
 681 0 l 1,14,-1
 373 0 l 1,15,-1
 373 38 l 1,16,17
 390 47 390 47 409.5 54.5 c 128,-1,18
 429 62 429 62 449 67 c 1,19,-1
 449 635 l 1,20,-1
 286 635 l 1,21,22
 283 483 283 483 272 381.5 c 128,-1,23
 261 280 261 280 245 214 c 128,-1,24
 229 148 229 148 209.5 109.5 c 128,-1,25
 190 71 190 71 169 43 c 0,26,27
 150 17 150 17 121 2.5 c 128,-1,28
 92 -12 92 -12 65 -12 c 1,29,30
 52 -7 52 -7 40 8.5 c 128,-1,31
 28 24 28 24 18 44 c 128,-1,32
 8 64 8 64 1.5 86 c 128,-1,33
 -5 108 -5 108 -6 127 c 1,34,-1
 21 165 l 1,35,-1
 140 136 l 1,36,37
 153 164 153 164 165.5 203.5 c 128,-1,38
 178 243 178 243 188 301 c 128,-1,39
 198 359 198 359 204 438 c 128,-1,40
 210 517 210 517 210 623 c 1,0,1
EndSplineSet
Position2: "'cpsp' Capital Spacing lookup 0 subtable" dx=40 dy=0 dh=80 dv=0
EndChar

StartChar: afii10033
Encoding: 1055 1055 344
Width: 758
Flags: W
LayerCount: 2
Fore
SplineSet
320 0 m 1,0,-1
 20 0 l 1,1,-1
 20 38 l 1,2,3
 35 46 35 46 55 54.5 c 128,-1,4
 75 63 75 63 102 67 c 1,5,-1
 102 633 l 1,6,7
 82 637 82 637 60.5 644 c 128,-1,8
 39 651 39 651 20 662 c 1,9,-1
 20 700 l 1,10,-1
 738 700 l 1,11,-1
 738 662 l 1,12,13
 719 650 719 650 698 643.5 c 128,-1,14
 677 637 677 637 656 633 c 1,15,-1
 656 67 l 1,16,17
 693 63 693 63 738 38 c 1,18,-1
 738 0 l 1,19,-1
 438 0 l 1,20,-1
 438 38 l 1,21,22
 448 46 448 46 464 53.5 c 128,-1,23
 480 61 480 61 506 67 c 1,24,-1
 506 635 l 1,25,-1
 252 635 l 1,26,-1
 252 67 l 1,27,28
 272 62 272 62 288 55 c 128,-1,29
 304 48 304 48 320 38 c 1,30,-1
 320 0 l 1,0,-1
EndSplineSet
Position2: "'cpsp' Capital Spacing lookup 0 subtable" dx=40 dy=0 dh=80 dv=0
EndChar

StartChar: afii10037
Encoding: 1059 1059 348
Width: 684
Flags: W
LayerCount: 2
Fore
SplineSet
519 633 m 1,0,1
 495 638 495 638 477 645.5 c 128,-1,2
 459 653 459 653 442 662 c 1,3,-1
 442 700 l 1,4,-1
 684 700 l 1,5,-1
 684 662 l 1,6,7
 673 654 673 654 654.5 646.5 c 128,-1,8
 636 639 636 639 613 633 c 1,9,-1
 422 201 l 2,10,11
 374 91 374 91 322 37.5 c 128,-1,12
 270 -16 270 -16 211 -5 c 1,13,14
 203 3 203 3 194.5 19.5 c 128,-1,15
 186 36 186 36 178.5 54.5 c 128,-1,16
 171 73 171 73 166 90.5 c 128,-1,17
 161 108 161 108 160 120 c 1,18,-1
 188 160 l 1,19,-1
 307 123 l 1,20,21
 315 132 315 132 322 145 c 128,-1,22
 329 158 329 158 335 174 c 1,23,-1
 69 633 l 1,24,25
 50 638 50 638 32.5 645.5 c 128,-1,26
 15 653 15 653 0 662 c 1,27,-1
 0 700 l 1,28,-1
 312 700 l 1,29,-1
 312 662 l 1,30,31
 282 644 282 644 236 633 c 1,32,-1
 377 362 l 1,33,-1
 398 298 l 1,34,-1
 400 298 l 1,35,-1
 420 364 l 1,36,-1
 519 633 l 1,0,1
EndSplineSet
Position2: "'cpsp' Capital Spacing lookup 0 subtable" dx=40 dy=0 dh=80 dv=0
EndChar

StartChar: afii10038
Encoding: 1060 1060 349
Width: 847
Flags: W
LayerCount: 2
Fore
SplineSet
284 700 m 1,0,-1
 558 700 l 1,1,-1
 558 663 l 1,2,3
 547 656 547 656 531 648 c 128,-1,4
 515 640 515 640 492 634 c 1,5,-1
 492 591 l 1,6,7
 502 593 502 593 515.5 594.5 c 128,-1,8
 529 596 529 596 542 596.5 c 128,-1,9
 555 597 555 597 567 597 c 128,-1,10
 579 597 579 597 587 597 c 0,11,12
 639 597 639 597 681.5 581 c 128,-1,13
 724 565 724 565 755 534 c 128,-1,14
 786 503 786 503 803 459 c 128,-1,15
 820 415 820 415 820 360 c 0,16,17
 820 297 820 297 799 251 c 128,-1,18
 778 205 778 205 743 174 c 128,-1,19
 708 143 708 143 663 128 c 128,-1,20
 618 113 618 113 570 113 c 0,21,22
 565 113 565 113 555 113.5 c 128,-1,23
 545 114 545 114 533.5 114.5 c 128,-1,24
 522 115 522 115 510.5 116 c 128,-1,25
 499 117 499 117 492 119 c 1,26,-1
 492 66 l 1,27,28
 512 61 512 61 528.5 53 c 128,-1,29
 545 45 545 45 558 37 c 1,30,-1
 558 0 l 1,31,-1
 284 0 l 1,32,-1
 284 37 l 1,33,34
 298 45 298 45 316.5 53 c 128,-1,35
 335 61 335 61 355 65 c 1,36,-1
 355 117 l 1,37,38
 333 115 333 115 306.5 114 c 128,-1,39
 280 113 280 113 260 113 c 0,40,41
 216 113 216 113 174 126 c 128,-1,42
 132 139 132 139 99.5 167.5 c 128,-1,43
 67 196 67 196 47 241 c 128,-1,44
 27 286 27 286 27 350 c 0,45,46
 27 409 27 409 47 455 c 128,-1,47
 67 501 67 501 101.5 532.5 c 128,-1,48
 136 564 136 564 182 580.5 c 128,-1,49
 228 597 228 597 280 597 c 0,50,51
 286 597 286 597 296 597 c 128,-1,52
 306 597 306 597 316.5 596.5 c 128,-1,53
 327 596 327 596 337.5 595.5 c 128,-1,54
 348 595 348 595 355 594 c 1,55,-1
 355 634 l 1,56,57
 332 639 332 639 313.5 647 c 128,-1,58
 295 655 295 655 284 663 c 1,59,-1
 284 700 l 1,0,-1
538 536 m 0,60,61
 525 536 525 536 514 535 c 128,-1,62
 503 534 503 534 491 531 c 1,63,-1
 491 177 l 1,64,65
 501 175 501 175 512.5 174.5 c 128,-1,66
 524 174 524 174 532 174 c 0,67,68
 558 174 558 174 582 184 c 128,-1,69
 606 194 606 194 624.5 216.5 c 128,-1,70
 643 239 643 239 654 274 c 128,-1,71
 665 309 665 309 665 360 c 0,72,73
 665 445 665 445 633 490.5 c 128,-1,74
 601 536 601 536 538 536 c 0,60,61
315 174 m 0,75,76
 326 174 326 174 335.5 175 c 128,-1,77
 345 176 345 176 356 179 c 1,78,-1
 356 534 l 1,79,80
 344 536 344 536 335.5 536 c 128,-1,81
 327 536 327 536 315 536 c 0,82,83
 290 536 290 536 266 526 c 128,-1,84
 242 516 242 516 223.5 493.5 c 128,-1,85
 205 471 205 471 193.5 435.5 c 128,-1,86
 182 400 182 400 182 350 c 0,87,88
 182 262 182 262 218.5 218 c 128,-1,89
 255 174 255 174 315 174 c 0,75,76
EndSplineSet
Position2: "'cpsp' Capital Spacing lookup 0 subtable" dx=40 dy=0 dh=80 dv=0
EndChar

StartChar: afii10040
Encoding: 1062 1062 351
Width: 780
Flags: W
LayerCount: 2
Fore
SplineSet
20 0 m 1,0,-1
 20 38 l 1,1,2
 34 46 34 46 55 54 c 128,-1,3
 76 62 76 62 102 67 c 1,4,-1
 102 633 l 1,5,6
 82 636 82 636 60.5 643.5 c 128,-1,7
 39 651 39 651 20 662 c 1,8,-1
 20 700 l 1,9,-1
 318 700 l 1,10,-1
 318 662 l 1,11,12
 306 654 306 654 290 646.5 c 128,-1,13
 274 639 274 639 252 633 c 1,14,-1
 252 65 l 1,15,-1
 502 65 l 1,16,-1
 502 633 l 1,17,18
 484 637 484 637 466.5 645 c 128,-1,19
 449 653 449 653 435 662 c 1,20,-1
 435 700 l 1,21,-1
 734 700 l 1,22,-1
 734 662 l 1,23,24
 714 650 714 650 693.5 643.5 c 128,-1,25
 673 637 673 637 652 633 c 1,26,-1
 652 65 l 1,27,-1
 769 65 l 1,28,29
 768 39 768 39 766 8.5 c 128,-1,30
 764 -22 764 -22 760.5 -53 c 128,-1,31
 757 -84 757 -84 752.5 -112.5 c 128,-1,32
 748 -141 748 -141 743 -163 c 1,33,-1
 704 -163 l 1,34,-1
 650 0 l 1,35,-1
 20 0 l 1,0,-1
EndSplineSet
Position2: "'cpsp' Capital Spacing lookup 0 subtable" dx=40 dy=0 dh=80 dv=0
EndChar
